<?xml version="1.0" encoding="utf-8"?>
<!-- Generator: Adobe Illustrator 27.5.0, SVG Export Plug-In . SVG Version: 6.00 Build 0)  -->
<svg version="1.1" xmlns="http://www.w3.org/2000/svg" xmlns:xlink="http://www.w3.org/1999/xlink" x="0px" y="0px"
	 viewBox="0 0 750 500" style="enable-background:new 0 0 750 500;" xml:space="preserve">
<g id="BACKGROUND">
	<rect style="fill:#FFFFFF;" width="750" height="500"/>
</g>
<g id="OBJECTS">
	<g>
		<g>
			<path style="fill:#E1F2F9;" d="M64.739,145.51c15.433-13.992,35.909-23.07,60.182-24.459c26.775-1.532,53.913,2.318,80.302-2.568
				c39.774-7.364,74.135-33.851,113.729-42.171c39.132-8.223,79.848,2.086,116.823,17.57s71.807,36.143,109.368,50.07
				c21.293,7.895,44.081,13.987,61.182,29.189c15.543,13.817,26.255,34.951,45.924,41.163c20.044,6.33,43.267-5.315,62.129,4.081
				c20.399,10.162,23.686,38.048,23.737,61.276c0.1,45.106-1.682,90.263-6.946,135.046c-1.517,12.908-3.495,26.264-10.492,37.114
				c-11.694,18.133-34.294,24.884-55.243,28.361c-45.499,7.551-91.968,5.976-137.926,2.374
				c-143.715-11.264-290.346-44.171-407.878-129.602c-31.471-22.876-61.363-50.468-76.973-86.61
				C23.162,221.207,33.85,173.515,64.739,145.51z"/>
		</g>
		<g>
			<g>
				<rect x="185.047" y="186.979" style="fill:#FFFFFF;" width="23.989" height="157.674"/>
			</g>
			<g>
				<rect x="218.676" y="208.003" style="fill:#FFFFFF;" width="23.989" height="157.674"/>
			</g>
			<g>
				<rect x="252.496" y="235.685" style="fill:#FFFFFF;" width="23.989" height="157.674"/>
			</g>
			<g>
				<rect x="283.633" y="300.073" style="fill:#FFFFFF;" width="23.989" height="157.674"/>
			</g>
			<g>
				<rect x="348.246" y="281.25" style="fill:#FFFFFF;" width="23.989" height="157.674"/>
			</g>
			<g>
				<rect x="380.933" y="180.398" style="fill:#FFFFFF;" width="23.989" height="257.714"/>
			</g>
			<g>
				<rect x="477.625" y="183.376" style="fill:#FFFFFF;" width="23.989" height="278.762"/>
			</g>
			<g>
				<rect x="511.543" y="212.148" style="fill:#FFFFFF;" width="23.989" height="278.762"/>
			</g>
			<g>
				<rect x="545.355" y="258.015" style="fill:#FFFFFF;" width="23.989" height="229.522"/>
			</g>
			<g>
				<rect x="414.358" y="218.193" style="fill:#FFFFFF;" width="23.989" height="222.896"/>
			</g>
			<g>
				<rect x="446.137" y="155.313" style="fill:#FFFFFF;" width="23.989" height="284.207"/>
			</g>
		</g>
		<g>
			<g>
				<g>
					<path style="fill:#42A147;" d="M151.587,319.771c-0.567,0-1.027-0.459-1.027-1.027v-83.287c0-0.567,0.46-1.027,1.027-1.027
						s1.027,0.46,1.027,1.027v83.287C152.614,319.312,152.154,319.771,151.587,319.771z"/>
				</g>
				<g>
					<path style="fill:#42A147;" d="M151.463,263.946c6.239-9.686,16.695-16.548,28.063-18.416c1.446-0.238,2.903-0.398,4.36-0.559
						c-1.527,5.735-5.194,10.825-10.051,14.237c-4.856,3.412-10.931,5.05-16.844,4.541
						C155.113,263.587,153.15,263.105,151.463,263.946z"/>
				</g>
				<g>
					<path style="fill:#42A147;" d="M152.026,280.203c-6.239-9.686-16.695-16.548-28.063-18.416
						c-1.446-0.238-2.903-0.398-4.36-0.559c1.527,5.735,5.194,10.825,10.051,14.237c4.856,3.412,10.931,5.05,16.844,4.541
						C148.376,279.845,150.339,279.362,152.026,280.203z"/>
				</g>
				<g>
					<g>
						<g>
							<circle style="fill:#F89520;" cx="151.943" cy="216.982" r="24.367"/>
						</g>
					</g>
					<g>
						<g>
							<path style="fill:#FFFFFF;" d="M151.943,237.352c-11.232,0-20.369-9.138-20.369-20.369c0-11.232,9.138-20.369,20.369-20.369
								s20.369,9.138,20.369,20.369C172.312,228.214,163.174,237.352,151.943,237.352z"/>
						</g>
					</g>
					<g>
						<g>
							<path style="fill:#F89520;" d="M150.633,232.649l0.045-2.164c-0.156,0.011-0.313,0.022-0.469,0.033
								c-0.156,0.011-0.313,0.009-0.472-0.007c-2.124-0.034-3.735-0.503-4.833-1.409c-1.099-0.905-1.697-2.074-1.799-3.508
								c-0.064-0.912,0.133-1.738,0.592-2.477c0.459-0.74,1.144-1.142,2.057-1.206c0.235-0.016,0.358,0.054,0.368,0.21
								c0.008,0.105-0.051,0.213-0.174,0.326c-0.097,0.112-0.206,0.336-0.326,0.671c-0.121,0.337-0.187,0.61-0.198,0.82
								c-0.019,0.106-0.025,0.205-0.019,0.296c0.007,0.092,0.013,0.176,0.018,0.254c0.095,1.356,0.666,2.395,1.712,3.121
								c1.047,0.725,2.243,1.159,3.588,1.3l0.385-10.753c-0.872-0.461-1.717-0.952-2.54-1.472c-0.822-0.518-1.544-1.082-2.162-1.694
								c-0.621-0.637-1.102-1.323-1.441-2.059c-0.34-0.736-0.537-1.494-0.592-2.277c-0.091-1.303,0.192-2.573,0.852-3.812
								c0.66-1.238,1.641-2.27,2.946-3.094c1.08-0.653,2.242-1.087,3.483-1.306l0.056-2.007c0.011-0.21,0.078-0.373,0.201-0.486
								c0.123-0.113,0.263-0.176,0.419-0.187c0.156-0.011,0.31,0.032,0.46,0.126c0.15,0.094,0.22,0.246,0.209,0.457l-0.095,2.01
								c1.517-0.027,2.795,0.341,3.83,1.107c1.036,0.765,1.617,2.047,1.743,3.845c0.049,0.704-0.088,1.258-0.414,1.66
								c-0.326,0.403-0.671,0.617-1.036,0.642c-0.261,0.018-0.495-0.064-0.705-0.246c-0.209-0.181-0.328-0.48-0.358-0.897
								c-0.006-0.078-0.011-0.163-0.018-0.254s0-0.19,0.019-0.296c0.052-0.371,0.066-0.739,0.04-1.103
								c-0.062-0.886-0.346-1.651-0.849-2.298c-0.504-0.645-1.267-0.985-2.291-1.018l-0.381,11.932l2.121,1.108
								c1.386,0.715,2.511,1.356,3.376,1.924c0.865,0.568,1.51,1.17,1.934,1.809c0.424,0.638,0.67,1.414,0.733,2.326
								c0.007,0.103,0.007,0.202,0.001,0.294c-0.007,0.092-0.006,0.19,0.001,0.294c-0.032,1.784-0.787,3.342-2.265,4.678
								c-1.478,1.335-3.607,2.164-6.386,2.491l-0.081,2.207c-0.011,0.21-0.079,0.371-0.201,0.486
								c-0.124,0.113-0.263,0.176-0.419,0.187c-0.157,0.011-0.311-0.038-0.462-0.145
								C150.689,232.979,150.62,232.833,150.633,232.649z M151.219,214.692l0.368-10.987c-0.848,0.244-1.576,0.68-2.187,1.312
								c-0.611,0.633-1.077,1.367-1.397,2.201c-0.321,0.834-0.451,1.696-0.388,2.581c0.04,0.573,0.172,1.14,0.394,1.701
								c0.222,0.56,0.559,1.06,1.009,1.501c0.31,0.319,0.652,0.616,1.025,0.891C150.416,214.166,150.808,214.433,151.219,214.692z
								 M152.026,228.977l0.469-0.033c0.495-0.035,0.981-0.101,1.459-0.201c0.478-0.099,0.919-0.242,1.326-0.427
								c0.84-0.347,1.481-0.824,1.923-1.431c0.442-0.607,0.698-1.163,0.767-1.665c0.056-0.318,0.074-0.62,0.054-0.907
								c-0.057-0.808-0.356-1.521-0.896-2.137c-0.541-0.617-1.23-1.197-2.067-1.742c-0.837-0.543-1.732-1.07-2.684-1.579
								L152.026,228.977z"/>
						</g>
					</g>
				</g>
			</g>
			<g>
				<g>
					<path style="fill:#42A147;" d="M38.151,228.031c-0.567,0-1.027-0.46-1.027-1.027v-83.287c0-0.567,0.46-1.027,1.027-1.027
						s1.027,0.46,1.027,1.027v83.287C39.178,227.572,38.718,228.031,38.151,228.031z"/>
				</g>
				<g>
					<path style="fill:#42A147;" d="M38.026,172.206c6.239-9.686,16.695-16.548,28.063-18.416c1.446-0.238,2.903-0.398,4.36-0.559
						c-1.527,5.735-5.194,10.825-10.051,14.237s-10.931,5.05-16.844,4.541C41.677,171.847,39.713,171.365,38.026,172.206z"/>
				</g>
				<g>
					<path style="fill:#42A147;" d="M38.589,188.463c-6.239-9.686-16.695-16.548-28.063-18.416c-1.446-0.238-2.903-0.398-4.36-0.559
						c1.527,5.735,5.194,10.825,10.051,14.237s10.931,5.05,16.844,4.541C34.939,188.105,36.903,187.622,38.589,188.463z"/>
				</g>
				<g>
					<g>
						<g>
							<circle style="fill:#F89520;" cx="38.506" cy="125.242" r="24.367"/>
						</g>
					</g>
					<g>
						<g>
							<path style="fill:#FFFFFF;" d="M38.506,145.612c-11.232,0-20.369-9.138-20.369-20.369s9.138-20.369,20.369-20.369
								s20.369,9.138,20.369,20.369S49.738,145.612,38.506,145.612z"/>
						</g>
					</g>
					<g>
						<g>
							<path style="fill:#F89520;" d="M37.197,140.909l0.045-2.164c-0.156,0.011-0.313,0.022-0.469,0.033
								c-0.156,0.011-0.313,0.009-0.472-0.007c-2.124-0.034-3.735-0.503-4.833-1.409c-1.099-0.905-1.697-2.074-1.799-3.508
								c-0.064-0.912,0.133-1.738,0.592-2.477c0.459-0.74,1.144-1.142,2.057-1.206c0.235-0.016,0.358,0.054,0.368,0.21
								c0.007,0.105-0.051,0.213-0.174,0.326c-0.097,0.112-0.206,0.336-0.326,0.671c-0.121,0.337-0.187,0.61-0.198,0.82
								c-0.019,0.106-0.025,0.205-0.019,0.296c0.007,0.092,0.013,0.176,0.018,0.254c0.095,1.356,0.666,2.395,1.712,3.121
								c1.047,0.725,2.243,1.159,3.588,1.3l0.385-10.753c-0.872-0.461-1.717-0.952-2.54-1.472c-0.822-0.518-1.544-1.082-2.162-1.694
								c-0.621-0.637-1.102-1.323-1.441-2.059c-0.34-0.736-0.537-1.494-0.592-2.277c-0.091-1.303,0.192-2.573,0.852-3.812
								c0.66-1.238,1.641-2.27,2.946-3.094c1.08-0.653,2.242-1.087,3.483-1.306l0.056-2.007c0.011-0.21,0.078-0.373,0.201-0.486
								c0.123-0.113,0.263-0.176,0.419-0.187s0.31,0.032,0.46,0.126c0.15,0.094,0.22,0.246,0.209,0.457l-0.095,2.01
								c1.517-0.027,2.795,0.341,3.83,1.107c1.036,0.765,1.617,2.047,1.743,3.845c0.049,0.704-0.088,1.258-0.414,1.66
								c-0.326,0.403-0.671,0.617-1.036,0.642c-0.261,0.018-0.495-0.064-0.705-0.246c-0.209-0.181-0.328-0.48-0.358-0.897
								c-0.006-0.078-0.011-0.163-0.018-0.254s0-0.19,0.019-0.296c0.052-0.371,0.066-0.739,0.04-1.103
								c-0.062-0.886-0.346-1.651-0.849-2.298c-0.504-0.645-1.267-0.985-2.291-1.018l-0.381,11.932l2.121,1.108
								c1.386,0.715,2.511,1.356,3.376,1.924c0.865,0.568,1.51,1.17,1.934,1.809c0.424,0.638,0.67,1.414,0.733,2.326
								c0.007,0.103,0.007,0.202,0.001,0.294c-0.007,0.092-0.006,0.19,0.001,0.294c-0.032,1.784-0.787,3.342-2.265,4.678
								c-1.478,1.335-3.607,2.164-6.386,2.491l-0.081,2.207c-0.011,0.21-0.079,0.371-0.201,0.486
								c-0.124,0.113-0.263,0.176-0.419,0.187c-0.157,0.011-0.311-0.038-0.462-0.145C37.253,141.239,37.184,141.093,37.197,140.909z
								 M37.783,122.952l0.368-10.987c-0.848,0.244-1.576,0.68-2.187,1.312c-0.611,0.633-1.077,1.367-1.397,2.201
								c-0.321,0.834-0.451,1.696-0.388,2.581c0.04,0.573,0.172,1.14,0.394,1.701c0.222,0.56,0.559,1.06,1.009,1.501
								c0.31,0.319,0.652,0.616,1.025,0.891C36.98,122.426,37.372,122.693,37.783,122.952z M38.589,137.237l0.469-0.033
								c0.495-0.035,0.981-0.101,1.459-0.201c0.478-0.099,0.919-0.242,1.326-0.427c0.84-0.347,1.481-0.824,1.923-1.431
								c0.442-0.607,0.698-1.163,0.767-1.665c0.056-0.318,0.074-0.62,0.054-0.907c-0.057-0.808-0.356-1.521-0.896-2.137
								c-0.541-0.617-1.23-1.197-2.067-1.742c-0.837-0.543-1.732-1.07-2.684-1.579L38.589,137.237z"/>
						</g>
					</g>
				</g>
			</g>
			<g>
				<g>
					<path style="fill:#42A147;" d="M208.076,350.623c-0.396,0-0.718-0.321-0.718-0.718v-58.263c0-0.397,0.322-0.718,0.718-0.718
						c0.396,0,0.718,0.321,0.718,0.718v58.263C208.794,350.302,208.472,350.623,208.076,350.623z"/>
				</g>
				<g>
					<path style="fill:#42A147;" d="M207.989,311.57c4.364-6.776,11.679-11.576,19.632-12.883c1.011-0.166,2.031-0.279,3.05-0.391
						c-1.068,4.012-3.634,7.573-7.031,9.96c-3.397,2.387-7.647,3.532-11.783,3.177C210.542,311.32,209.169,310.982,207.989,311.57z"
						/>
				</g>
				<g>
					<path style="fill:#42A147;" d="M208.383,322.943c-4.364-6.776-11.679-11.576-19.632-12.883
						c-1.011-0.166-2.031-0.279-3.05-0.391c1.068,4.012,3.634,7.573,7.031,9.96c3.397,2.387,7.647,3.532,11.783,3.177
						C205.829,322.692,207.203,322.355,208.383,322.943z"/>
				</g>
				<g>
					<g>
						<g>
							<circle style="fill:#F89520;" cx="208.324" cy="278.717" r="17.046"/>
						</g>
					</g>
					<g>
						<g>
							<path style="fill:#FFFFFF;" d="M208.324,292.966c-7.857,0-14.249-6.392-14.249-14.249c0-7.857,6.392-14.249,14.249-14.249
								s14.249,6.392,14.249,14.249C222.574,286.574,216.181,292.966,208.324,292.966z"/>
						</g>
					</g>
					<g>
						<g>
							<path style="fill:#F89520;" d="M207.408,289.677l0.031-1.514c-0.109,0.008-0.219,0.015-0.328,0.023
								c-0.109,0.008-0.219,0.006-0.33-0.005c-1.486-0.024-2.613-0.352-3.381-0.985c-0.769-0.633-1.187-1.451-1.258-2.454
								c-0.045-0.638,0.093-1.216,0.414-1.733c0.321-0.518,0.801-0.799,1.439-0.844c0.164-0.011,0.25,0.038,0.258,0.147
								c0.005,0.073-0.035,0.149-0.122,0.228c-0.068,0.078-0.144,0.235-0.228,0.469c-0.085,0.236-0.131,0.426-0.138,0.574
								c-0.013,0.074-0.018,0.143-0.013,0.207c0.005,0.064,0.009,0.123,0.013,0.178c0.067,0.948,0.466,1.676,1.198,2.183
								c0.732,0.507,1.569,0.811,2.51,0.909l0.269-7.522c-0.61-0.323-1.201-0.666-1.777-1.03c-0.575-0.362-1.08-0.757-1.512-1.185
								c-0.434-0.446-0.771-0.926-1.008-1.441c-0.238-0.515-0.376-1.045-0.414-1.593c-0.064-0.911,0.134-1.8,0.596-2.667
								c0.461-0.866,1.148-1.588,2.061-2.164c0.756-0.457,1.568-0.761,2.437-0.914l0.039-1.404c0.008-0.147,0.055-0.261,0.141-0.34
								c0.086-0.079,0.184-0.123,0.293-0.131c0.109-0.008,0.217,0.022,0.322,0.088c0.105,0.065,0.154,0.172,0.146,0.319
								l-0.067,1.406c1.061-0.019,1.955,0.238,2.68,0.774c0.725,0.535,1.131,1.432,1.219,2.69c0.035,0.493-0.062,0.88-0.289,1.161
								c-0.228,0.282-0.469,0.431-0.725,0.449c-0.183,0.013-0.347-0.044-0.493-0.172c-0.146-0.127-0.23-0.336-0.25-0.628
								c-0.004-0.055-0.008-0.114-0.012-0.178s0-0.133,0.013-0.207c0.036-0.26,0.046-0.517,0.028-0.772
								c-0.044-0.62-0.242-1.155-0.594-1.607c-0.353-0.452-0.886-0.689-1.603-0.712l-0.266,8.347l1.484,0.775
								c0.969,0.5,1.757,0.949,2.362,1.346c0.605,0.397,1.056,0.819,1.353,1.265c0.297,0.447,0.468,0.989,0.513,1.627
								c0.005,0.072,0.005,0.141,0.001,0.206c-0.005,0.064-0.004,0.133,0.001,0.206c-0.022,1.248-0.551,2.338-1.584,3.272
								c-1.034,0.934-2.523,1.514-4.468,1.742l-0.057,1.544c-0.008,0.147-0.055,0.26-0.141,0.34
								c-0.086,0.079-0.184,0.123-0.293,0.131c-0.11,0.008-0.218-0.027-0.323-0.102
								C207.448,289.908,207.399,289.805,207.408,289.677z M207.818,277.115l0.257-7.686c-0.593,0.17-1.103,0.476-1.53,0.918
								c-0.427,0.443-0.753,0.956-0.978,1.54c-0.225,0.583-0.315,1.186-0.272,1.806c0.028,0.401,0.12,0.797,0.276,1.19
								c0.155,0.392,0.391,0.742,0.706,1.05c0.217,0.223,0.456,0.431,0.717,0.623C207.257,276.747,207.531,276.934,207.818,277.115z
								 M208.383,287.108l0.328-0.023c0.346-0.024,0.687-0.071,1.021-0.141c0.334-0.069,0.643-0.17,0.927-0.299
								c0.588-0.243,1.036-0.577,1.345-1.001c0.309-0.424,0.488-0.814,0.537-1.165c0.039-0.223,0.052-0.434,0.038-0.634
								c-0.04-0.566-0.249-1.064-0.627-1.495c-0.379-0.431-0.861-0.837-1.446-1.218c-0.586-0.38-1.212-0.749-1.878-1.105
								L208.383,287.108z"/>
						</g>
					</g>
				</g>
			</g>
			<g>
				<g>
					<path style="fill:#42A147;" d="M90.916,270.75c-0.48,0-0.869-0.389-0.869-0.869v-70.502c0-0.48,0.389-0.869,0.869-0.869
						s0.869,0.389,0.869,0.869v70.502C91.785,270.361,91.395,270.75,90.916,270.75z"/>
				</g>
				<g>
					<path style="fill:#42A147;" d="M90.81,223.494c5.281-8.199,14.132-14.008,23.756-15.589c1.224-0.201,2.458-0.337,3.691-0.473
						c-1.292,4.855-4.397,9.164-8.508,12.052c-4.111,2.888-9.253,4.274-14.259,3.844C93.9,223.19,92.238,222.782,90.81,223.494z"/>
				</g>
				<g>
					<path style="fill:#42A147;" d="M91.287,237.255c-5.281-8.199-14.132-14.008-23.756-15.589
						c-1.224-0.201-2.458-0.337-3.691-0.473c1.292,4.855,4.397,9.164,8.508,12.052c4.111,2.888,9.253,4.274,14.259,3.844
						C88.197,236.952,89.859,236.544,91.287,237.255z"/>
				</g>
				<g>
					<g>
						<g>
							<circle style="fill:#F89520;" cx="91.216" cy="183.74" r="20.627"/>
						</g>
					</g>
					<g>
						<g>
							<path style="fill:#FFFFFF;" d="M91.216,200.982c-9.508,0-17.242-7.735-17.242-17.242c0-9.508,7.735-17.242,17.242-17.242
								s17.242,7.735,17.242,17.242C108.459,193.247,100.724,200.982,91.216,200.982z"/>
						</g>
					</g>
					<g>
						<g>
							<path style="fill:#F89520;" d="M90.108,197.002l0.038-1.832c-0.132,0.009-0.265,0.019-0.397,0.028
								c-0.132,0.009-0.265,0.007-0.4-0.006c-1.798-0.029-3.162-0.426-4.091-1.192c-0.93-0.766-1.437-1.755-1.522-2.97
								c-0.054-0.772,0.113-1.471,0.501-2.097c0.389-0.626,0.969-0.966,1.741-1.021c0.199-0.014,0.303,0.046,0.312,0.178
								c0.006,0.089-0.043,0.18-0.147,0.276c-0.082,0.095-0.174,0.284-0.276,0.568c-0.102,0.285-0.158,0.516-0.167,0.694
								c-0.016,0.09-0.021,0.173-0.016,0.25c0.006,0.078,0.011,0.149,0.015,0.215c0.081,1.148,0.563,2.028,1.449,2.642
								c0.886,0.614,1.898,0.981,3.037,1.1l0.326-9.103c-0.738-0.391-1.454-0.806-2.15-1.246c-0.696-0.438-1.307-0.916-1.83-1.434
								c-0.526-0.539-0.933-1.12-1.22-1.743c-0.288-0.623-0.455-1.265-0.501-1.927c-0.077-1.103,0.163-2.178,0.721-3.227
								c0.558-1.048,1.389-1.922,2.494-2.619c0.914-0.553,1.898-0.92,2.949-1.106l0.047-1.699c0.009-0.178,0.066-0.315,0.17-0.411
								c0.104-0.096,0.223-0.149,0.355-0.158s0.262,0.027,0.39,0.106c0.127,0.079,0.186,0.209,0.177,0.387l-0.081,1.702
								c1.284-0.023,2.366,0.288,3.242,0.937c0.877,0.648,1.369,1.733,1.476,3.255c0.042,0.596-0.075,1.065-0.35,1.405
								c-0.276,0.341-0.568,0.522-0.877,0.544c-0.221,0.015-0.419-0.054-0.596-0.208c-0.177-0.153-0.278-0.407-0.303-0.76
								c-0.005-0.066-0.01-0.138-0.015-0.215c-0.005-0.078,0-0.161,0.016-0.25c0.044-0.314,0.056-0.625,0.034-0.934
								c-0.053-0.75-0.293-1.398-0.719-1.945c-0.427-0.546-1.073-0.834-1.939-0.862l-0.322,10.1l1.795,0.938
								c1.173,0.605,2.126,1.148,2.858,1.628c0.732,0.481,1.278,0.991,1.637,1.531c0.359,0.54,0.567,1.197,0.621,1.969
								c0.006,0.088,0.006,0.171,0.001,0.249c-0.006,0.078-0.005,0.161,0.001,0.249c-0.027,1.51-0.666,2.829-1.917,3.959
								c-1.251,1.13-3.053,1.832-5.406,2.108l-0.069,1.868c-0.009,0.178-0.066,0.314-0.17,0.411
								c-0.105,0.096-0.222,0.149-0.355,0.158c-0.133,0.009-0.263-0.032-0.391-0.123C90.155,197.281,90.097,197.157,90.108,197.002z
								 M90.604,181.801l0.311-9.301c-0.717,0.206-1.334,0.576-1.851,1.11c-0.517,0.536-0.912,1.157-1.183,1.863
								c-0.272,0.706-0.382,1.435-0.329,2.185c0.034,0.485,0.145,0.965,0.334,1.44c0.188,0.474,0.473,0.898,0.854,1.27
								c0.263,0.27,0.552,0.521,0.868,0.754C89.924,181.356,90.256,181.582,90.604,181.801z M91.287,193.893l0.397-0.028
								c0.419-0.029,0.831-0.086,1.235-0.17c0.404-0.084,0.778-0.205,1.122-0.362c0.711-0.294,1.253-0.698,1.628-1.212
								c0.374-0.514,0.59-0.984,0.65-1.41c0.047-0.269,0.063-0.525,0.046-0.768c-0.048-0.684-0.302-1.287-0.759-1.809
								c-0.458-0.522-1.042-1.013-1.75-1.474c-0.709-0.46-1.466-0.906-2.272-1.337L91.287,193.893z"/>
						</g>
					</g>
				</g>
			</g>
		</g>
		<g>
			<path style="fill:#1E3D44;" d="M0,208.003l72.283,34.119c9.073,4.489,16.085,12.28,19.597,21.775l0.125,0.338
				c3.293,8.903,9.673,16.329,17.978,20.926l59.885,33.152c6.241,3.455,11.434,8.53,15.031,14.691l0,0
				c5.906,10.115,15.984,17.1,27.529,19.079l50.324,8.63c10.738,1.841,20.244,8.021,26.285,17.087l4.075,6.115
				c5.254,7.885,13.159,13.627,22.282,16.185l41.892,11.748c5.552,1.557,10.697,4.307,15.077,8.057l7.398,6.335
				c8.117,6.95,21.736,1.399,32.378,0.44l31.656-4.317c9.702-0.874,19.836,11.933,27.653,17.744l16.714,12.423
				c6.836,5.081,15.128,7.825,23.646,7.825h16.616c7.198,0,14.259,1.96,20.428,5.669l22.39,13.465
				c6.168,3.709,13.23,5.669,20.428,5.669h14.898c7.868,0,15.558,2.342,22.09,6.726L640.744,500H0V208.003z"/>
		</g>
		<g>
			<g>
				<g>
					<g>
						<path style="fill:#FCBA9D;" d="M256.877,168.454c-2.982-1.241-5.868-1.952-8.654-3.586
							c-6.129-3.595-15.241-9.559-22.746-12.121c-0.8-0.273-1.517-0.87-2.36-0.807c-0.843,0.063-1.675,0.885-1.411,1.687
							c0.143,0.436,0.546,0.724,0.925,0.982c1.52,1.034,7.399,3.406,8.919,4.44c0.878,0.598,1.852,1.365,1.859,2.427
							c0.006,0.908-0.728,1.794-0.421,2.649c0.38,1.059,2.009,1.129,2.522,2.13c0.627,1.224-0.876,2.44-2.171,2.902
							s-2.932,1.205-2.809,2.574c0.081,0.912,1.016,1.548,1.927,1.647c0.91,0.099,1.81-0.197,2.698-0.422
							c6.832-1.732,13.96,0.643,20.606,2.989C256.608,173.801,256.028,170.599,256.877,168.454z"/>
					</g>
					<g>
						<path style="fill:#1E3D44;" d="M324.674,185.953c0,0-11.189,4.51-19.413,2.97c-8.223-1.54-25.095-8.045-25.095-8.045
							s0.803-3.393-3.214-0.988L248.9,162.052l-5.422,11.698c0,0,25.977,14.79,32.404,19.166s31.065,13.481,31.065,13.481
							l10.545-15.03l3.798-2.444L324.674,185.953z"/>
					</g>
					<g>
						<g>
							<path style="fill:#375A60;" d="M276.061,185.496c0.654-1.239,1.531-2.335,2.593-3.248c0.158-0.136,0.139-0.405,0-0.544
								c-0.156-0.156-0.386-0.136-0.544,0c-1.107,0.951-2.032,2.113-2.714,3.404C275.165,185.545,275.829,185.934,276.061,185.496
								L276.061,185.496z"/>
						</g>
					</g>
					<g>
						<g>
							<path style="fill:#375A60;" d="M280.752,185.83c0.535-1.071,1.07-2.143,1.606-3.214c0.093-0.186,0.05-0.417-0.138-0.527
								c-0.171-0.1-0.433-0.049-0.527,0.138c-0.535,1.071-1.07,2.143-1.606,3.214c-0.093,0.186-0.05,0.417,0.138,0.527
								C280.396,186.068,280.659,186.017,280.752,185.83L280.752,185.83z"/>
						</g>
					</g>
				</g>
				<g>
					<g>
						<g>
							<g>
								<path style="fill:#1E3D44;" d="M337.945,398.934c0,0,2.72,9.288-5.231,8.725c-7.951-0.563-14.142-1.196-15.163-4.679
									c-1.02-3.483,8.572-3.865,8.572-3.865L337.945,398.934z"/>
							</g>
							<g>
								<path style="fill:#92CEE0;" d="M338.927,266.737l-1.554,59.651c0,0,3.791,4.663-0.637,6.178l2.686,66.333l-14.996,0.353
									l-8.594-74.265l-4.022-77.316L338.927,266.737z"/>
							</g>
							<g>
								<g>
									<path style="fill:#1E3D44;" d="M328.564,271.619c0.57,4.831,4.124,9.058,8.812,10.398c0.477,0.137,0.681-0.606,0.205-0.742
										c-4.33-1.239-7.717-5.172-8.247-9.656C329.277,271.132,328.506,271.127,328.564,271.619L328.564,271.619z"/>
								</g>
							</g>
							<g>
								<g>
									<path style="fill:#1E3D44;" d="M335.613,280.512c-0.764,7.87-1.53,15.741-2.291,23.611
										c-0.754,7.793-1.422,15.595-1.191,23.432c0.461,15.639,2.585,31.183,2.99,46.83c0.233,8.977-0.054,17.979-1.346,26.875
										c-0.07,0.485,0.671,0.694,0.742,0.205c2.248-15.476,1.458-31.133,0.268-46.664c-0.604-7.886-1.337-15.768-1.739-23.668
										c-0.408-8.019,0.009-15.974,0.754-23.96c0.829-8.89,1.719-17.774,2.582-26.66
										C336.431,280.019,335.661,280.022,335.613,280.512L335.613,280.512z"/>
								</g>
							</g>
							<g>
								<g>
									<path style="fill:#1E3D44;" d="M323.075,346.525c0.789,1.395,1.963,2.562,3.364,3.342c0.433,0.241,0.822-0.424,0.389-0.665
										c-1.291-0.719-2.36-1.779-3.088-3.066C323.496,345.705,322.831,346.093,323.075,346.525L323.075,346.525z"/>
								</g>
							</g>
							<g>
								<g>
									<path style="fill:#1E3D44;" d="M325.478,344.52c0.9,1.628,2.014,3.134,3.306,4.473c0.345,0.357,0.889-0.188,0.544-0.544
										c-1.248-1.294-2.316-2.744-3.185-4.317C325.904,343.698,325.238,344.086,325.478,344.52L325.478,344.52z"/>
								</g>
							</g>
						</g>
						<g>
							<g>
								<path style="fill:#1E3D44;" d="M262.175,351.849c0,0,2.188,7.393-5.783,7.385c-7.971-0.008-14.191-0.209-15.452-3.612
									c-1.26-3.403,8.282-4.453,8.282-4.453L262.175,351.849z"/>
							</g>
							<g>
								<path style="fill:#92CEE0;" d="M297.991,251.668l-36.786,31.321c-2.683,2.285-4.382,5.515-4.744,9.021l-6.18,59.898
									l13.007,1.342L274.32,300c0,0,5.071,0.688,1.847-3.096l48.547-32.948l-5.913-15.563L297.991,251.668z"/>
							</g>
							<g>
								<g>
									<path style="fill:#1E3D44;" d="M260.557,297.849c1.016,2.168,2.031,4.337,3.047,6.505c0.21,0.448,0.874,0.058,0.665-0.389
										c-1.016-2.168-2.031-4.337-3.047-6.505C261.012,297.012,260.348,297.402,260.557,297.849L260.557,297.849z"/>
								</g>
							</g>
							<g>
								<g>
									<path style="fill:#1E3D44;" d="M261.974,295.126c1.456,3.088,2.912,6.176,4.368,9.263c0.211,0.448,0.875,0.057,0.665-0.389
										c-1.456-3.088-2.912-6.176-4.367-9.263C262.428,294.289,261.764,294.68,261.974,295.126L261.974,295.126z"/>
								</g>
							</g>
						</g>
					</g>
					<g>
						<g>
							<path style="fill:#1E3D44;" d="M328.164,162.542c0.698-2.702,2.891-4.967,5.569-5.751s5.746-0.06,7.792,1.839
								c0.991,0.921,1.768,2.161,1.811,3.513c0.009,0.27-0.007,0.558,0.133,0.789c0.199,0.327,0.626,0.413,1.002,0.485
								c0.951,0.181,1.909,0.483,2.649,1.106c0.74,0.623,1.223,1.623,1.015,2.568c-0.297,1.348-1.839,2.198-1.998,3.569
								c-0.071,0.612,0.155,1.226,0.111,1.84c-0.112,1.552-1.76,2.42-2.955,3.417c-1.737,1.449-3.216,3.833-5.469,3.625
								c-2.171-0.2-3.259-2.725-3.561-4.885s-0.412-4.631-2.094-6.019c-0.497-0.41-1.088-0.677-1.62-1.037
								c-0.492-0.333-0.815-0.782-1.22-1.205c-0.561-0.587-0.999-1.017-1.197-1.837
								C327.973,163.893,327.993,163.204,328.164,162.542z"/>
						</g>
						<g>
							<g>
								<g>
									<path style="fill:#FCBA9D;" d="M327.078,169.645c-1.272,4.353-0.498,10.489,4.563,10.745
										c3.367,0.171,7.008-2.638,8.28-6.991c1.272-4.353,0.702-9.094-3.852-10.669
										C330.298,160.733,328.351,165.292,327.078,169.645z"/>
								</g>
								<g>
									<path style="fill:#FCBA9D;" d="M338.743,172.823c-0.824,1.164-1.457,3.321-0.504,3.995c0.952,0.674,3.129-0.39,3.953-1.554
										c0.824-1.164,0.72-2.654-0.233-3.328C341.007,171.262,339.567,171.659,338.743,172.823z"/>
								</g>
							</g>
							<g>
								<path style="fill:#FCBA9D;" d="M337.362,183.803c0.219,0.808,0.595,1.628,0.421,2.447c-0.112,0.528-0.443,0.981-0.784,1.399
									c-0.83,1.017-1.798,1.956-2.984,2.518s-2.62,0.704-3.807,0.146c-1.187-0.559-2.027-1.906-1.78-3.194
									c0.365-1.902,2.638-2.779,3.566-4.479c0.536-0.981,0.576-2.155,0.967-3.203c0.575-1.538,2.189-3.076,3.903-3.186
									c0.895-0.058,1.501-0.223,1.401,0.463c-0.138,0.943-0.957,2.974-1.074,3.927
									C337.06,181.694,337.083,182.773,337.362,183.803z"/>
							</g>
						</g>
					</g>
					<g>
						<g>
							<path style="fill:#1E3D44;" d="M339.461,184.304l-14.73,25.264l4.003-25.588l-16.549,8.046
								c-3.479,1.691-5.991,4.883-6.817,8.662l-14.699,51.21c0,0,10.086,12.132,21.672,4.947c0,0,3.052,19.787,28.789,14.801
								l14.519-60.108c0.974-3.566,0.157-7.382-2.193-10.236L339.461,184.304z"/>
						</g>
						<g>
							<g>
								<path style="fill:#375A60;" d="M313.038,255.782c2.108-9.473,4.117-18.974,6.336-28.422c1.064-4.53,2.596-8.715,5.43-12.451
									c2.83-3.731,6.216-7.083,9.436-10.473c3.773-3.972,7.61-7.883,11.504-11.736c0.353-0.349-0.192-0.893-0.544-0.544
									c-3.54,3.503-7.033,7.053-10.474,10.654c-3.244,3.395-6.579,6.767-9.555,10.402c-2.809,3.432-4.735,7.165-5.909,11.44
									c-1.28,4.661-2.185,9.442-3.235,14.159c-1.244,5.589-2.488,11.177-3.732,16.766
									C312.188,256.06,312.93,256.267,313.038,255.782L313.038,255.782z"/>
							</g>
						</g>
						<g>
							<g>
								<path style="fill:#375A60;" d="M320.146,190.858c0.35,9.12,0.856,18.233,1.518,27.335c0.036,0.491,0.806,0.495,0.77,0
									c-0.662-9.102-1.169-18.215-1.518-27.335C320.897,190.364,320.127,190.362,320.146,190.858L320.146,190.858z"/>
							</g>
						</g>
						<g>
							<g>
								<path style="fill:#375A60;" d="M324.087,225.764c1.486,0,1.489-2.31,0-2.31
									C322.601,223.454,322.598,225.764,324.087,225.764L324.087,225.764z"/>
							</g>
						</g>
						<g>
							<g>
								<path style="fill:#375A60;" d="M321.396,233.727c0.089,0.089,0.179,0.179,0.268,0.268c0.105,0.113,0.229,0.192,0.372,0.239
									c0.138,0.072,0.286,0.105,0.445,0.099c0.159,0.006,0.307-0.027,0.445-0.099c0.143-0.047,0.267-0.126,0.372-0.239
									c0.06-0.078,0.12-0.156,0.181-0.234c0.104-0.18,0.157-0.374,0.158-0.583c-0.014-0.102-0.028-0.205-0.041-0.307
									c-0.055-0.196-0.154-0.366-0.297-0.51c-0.089-0.089-0.179-0.179-0.268-0.268c-0.105-0.113-0.228-0.192-0.372-0.239
									c-0.138-0.072-0.286-0.105-0.445-0.099c-0.159-0.006-0.307,0.027-0.445,0.099c-0.143,0.047-0.267,0.126-0.372,0.239
									c-0.06,0.078-0.12,0.156-0.181,0.234c-0.104,0.18-0.157,0.374-0.158,0.583c0.014,0.102,0.027,0.205,0.041,0.307
									C321.153,233.413,321.252,233.583,321.396,233.727L321.396,233.727z"/>
							</g>
						</g>
						<g>
							<g>
								<path style="fill:#375A60;" d="M320.338,244.242c1.486,0,1.489-2.31,0-2.31
									C318.851,241.932,318.849,244.242,320.338,244.242L320.338,244.242z"/>
							</g>
						</g>
						<g>
							<g>
								<path style="fill:#375A60;" d="M328.526,253.518c3.38-1.747,6.857-3.295,10.419-4.634c0.46-0.173,0.26-0.917-0.205-0.742
									c-3.623,1.363-7.164,2.935-10.603,4.712C327.697,253.081,328.086,253.745,328.526,253.518L328.526,253.518z"/>
							</g>
						</g>
						<g>
							<g>
								<path style="fill:#375A60;" d="M299.463,239.32c2.053,1.736,3.902,3.706,5.49,5.876c0.29,0.396,0.958,0.012,0.665-0.389
									c-1.628-2.224-3.506-4.252-5.611-6.032C299.631,238.458,299.084,239,299.463,239.32L299.463,239.32z"/>
							</g>
						</g>
					</g>
					<g>
						<polygon style="fill:#FFFFFF;" points="328.663,184.431 330.648,188.154 338.842,185.365 324.73,209.568 						"/>
					</g>
					<g>
						<polygon style="fill:#FE6083;" points="328.539,190.363 330.38,188.924 332.635,191.937 330.648,191.937 329.604,201.209 
							324.73,209.568 326.154,200.13 329.333,191.541 						"/>
					</g>
				</g>
				<g>
					<g>
						<path style="fill:#375A60;" d="M304.864,204.611c0.974-2.934,1.948-5.867,2.921-8.801c0.156-0.471-0.587-0.673-0.742-0.205
							c-0.974,2.934-1.947,5.867-2.921,8.801C303.965,204.878,304.708,205.08,304.864,204.611L304.864,204.611z"/>
					</g>
				</g>
				<g>
					<path style="fill:#FCBA9D;" d="M355.142,261.779c-1.716,0.431-9.607,4.809-11.335,5.189c-2.163,0.475-4.574-0.918-5.242-3.03
						c-0.221-0.699-0.014-1.749,0.719-1.73c-0.734-0.283-1.373-0.992-1.288-1.773c0.085-0.782,1.169-1.334,1.723-0.777
						c-0.684-0.308-1.255-0.861-1.583-1.535c-0.156-0.32-0.257-0.7-0.116-1.026c0.339-0.786,1.515-0.493,2.261-0.073
						c-0.584-0.205-1.192-0.424-1.621-0.87c-0.429-0.447-0.614-1.193-0.245-1.69c0.413-0.556,1.283-0.525,1.897-0.203
						c0.614,0.322,1.09,0.858,1.685,1.213c0.596,0.354,1.435,0.482,1.931-0.002c0.164-0.159,0.27-0.368,0.353-0.581
						c0.497-1.283,0.112-2.857-0.92-3.766c-0.298-0.262-0.645-0.475-0.887-0.79c-0.242-0.314-0.353-0.781-0.121-1.103
						c0.186-0.259,0.53-0.346,0.848-0.372c1.893-0.155,3.754,1.433,3.898,3.327c0.07,0.917-0.211,1.823-0.26,2.741
						s0.221,1.965,1.034,2.395c1.091-0.179,3.789-2.575,4.732-3.153C352.788,256.971,356.252,259.201,355.142,261.779z"/>
				</g>
				<g>
					<path style="fill:#1E3D44;" d="M353.457,201.303c0,0,24.726,29.733,24.726,31.608c0,1.875-24.726,31.065-24.726,31.065
						l-5-10.177l13.926-16.738c0,0-1.071-1.071,1.607-2.142l-18.518-12.587L353.457,201.303z"/>
				</g>
				<g>
					<g>
						<path style="fill:#375A60;" d="M351.889,205.21c-1.19,6.535-1.432,13.194-0.7,19.796c0.054,0.487,0.825,0.493,0.77,0
							c-0.724-6.531-0.505-13.126,0.673-19.592C352.72,204.93,351.978,204.722,351.889,205.21L351.889,205.21z"/>
					</g>
				</g>
				<g>
					<g>
						<path style="fill:#375A60;" d="M366.973,234.142c0.674-0.394,1.349-0.787,2.023-1.181c0.174-0.102,0.251-0.352,0.138-0.527
							c-0.113-0.175-0.341-0.247-0.527-0.138c-0.674,0.394-1.349,0.787-2.023,1.181c-0.174,0.102-0.251,0.352-0.138,0.527
							C366.56,234.179,366.787,234.25,366.973,234.142L366.973,234.142z"/>
					</g>
				</g>
				<g>
					<g>
						<path style="fill:#375A60;" d="M368.12,236.306c0.938-0.132,1.875-0.264,2.813-0.396c0.206-0.029,0.319-0.292,0.269-0.474
							c-0.061-0.222-0.267-0.298-0.474-0.269c-0.938,0.132-1.875,0.264-2.813,0.396c-0.206,0.029-0.319,0.292-0.269,0.474
							C367.707,236.259,367.913,236.336,368.12,236.306L368.12,236.306z"/>
					</g>
				</g>
			</g>
			<g>
				<g>
					<path style="fill:#1E3D44;" d="M450.239,265.128c-1.935-0.915-3.702-2.182-5.188-3.722c-1.125-1.165-2.143-2.688-1.88-4.286
						c0.298-1.812,2.179-3.226,1.983-5.052c-0.147-1.368-1.402-2.301-2.169-3.444c-2.178-3.246,0.194-8.072,3.859-9.433
						c1.375-0.511,3.174-0.969,3.391-2.42c0.086-0.571-0.128-1.137-0.241-1.703c-0.435-2.174,0.795-4.568,2.815-5.48
						c2.02-0.913,4.629-0.254,5.974,1.509c1.363-4.232,9.431-5.549,11.617-1.678c1.215,2.151,1.009,4.989,2.596,6.882
						c2.368,2.825,7.821,2.471,8.911,5.992c0.829,2.678-1.743,5.733-0.456,8.223c0.841,1.626,2.881,2.101,4.521,2.914
						c4.136,2.049,6.255,7.436,4.624,11.754c-1.232,3.262-4.314,6.185-3.575,9.593c0.767,3.536,5.488,5.853,4.795,9.405
						c-0.668,3.424-5.937,4.411-6.495,7.855c-0.396,2.448,1.911,4.684,1.665,7.151c-0.308,3.095-4.1,4.317-7.17,4.818
						c-4.988,0.814-10.388,1.568-14.864-0.78c-2.877-1.509-5.009-4.147-6.633-6.961c-3.122-5.407-4.643-11.726-4.322-17.961
						c0.092-1.794,0.329-3.631-0.163-5.359c-0.535-1.88-1.873-3.419-2.682-5.199C450.346,265.966,448.687,266.316,450.239,265.128z"
						/>
				</g>
				<g>
					<g>
						<g>
							<path style="fill:#1E3D44;" d="M445.591,307.823c-10.902,11.758-21.805,23.515-32.707,35.273
								c-1.806,1.948-3.67,3.996-4.398,6.551c-0.595,2.088-0.369,4.311-0.138,6.47c2.143,20.03,4.286,40.059,6.428,60.089
								c0.112,1.046,0.265,2.181,1.016,2.918c0.754,0.741,1.899,0.87,2.952,0.96c3.35,0.285,5.058,0.43,8.408,0.715
								c1.26-19.863,2.146-39.968-0.476-59.698c1.059,0.87,2.659-0.489,3.445-1.612c0.787-1.123,0.407-2.883-0.773-3.581
								c11.636-12.447,25.564-23.158,35.829-36.758c0.842-1.115-0.798-5.968-0.378-7.301c1.338-4.245-2.518-8.81-6.909-9.532
								S448.617,304.56,445.591,307.823z"/>
						</g>
						<g>
							<path style="fill:#1E3D44;" d="M473.186,302.681c7.881,22.781-3.463,47.949,5.079,70.491c1.111,2.931,2.967,2.042,2.157,5.07
								c3.144,5.444,5.201,16.9,6.308,23.088c2.413,13.49,6.264,26.722,11.467,39.399c-3.89,1.01-8.577,2.316-12.575,1.902
								c-15.253-32.045-27.321-66.296-31.299-101.562c-0.544-4.824-0.979-9.685-0.644-14.527c0.46-6.656,2.437-13.294,6.298-18.736
								C462.865,303.734,468.331,301.514,473.186,302.681z"/>
						</g>
						<g>
							<g>
								<path style="fill:#375A60;" d="M464.365,311.558c2.105,3.867,6.277,6.401,10.676,6.508c0.496,0.012,0.495-0.758,0-0.77
									c-4.135-0.1-8.035-2.497-10.011-6.127C464.793,310.734,464.128,311.122,464.365,311.558L464.365,311.558z"/>
							</g>
						</g>
						<g>
							<g>
								<path style="fill:#375A60;" d="M472.306,317.922c-0.815,10.088-1.224,20.206-1.205,30.327
									c0.009,4.741-0.096,9.575,0.36,14.298c0.303,3.134,1.154,6.435,3.999,8.186c0-0.222,0-0.443,0-0.665
									c-1.402,0.68-2.018,2.253-1.63,3.742c0.246,0.946,0.851,1.767,1.361,2.583c0.706,1.13,1.377,2.283,2.01,3.456
									c2.44,4.527,4.321,9.332,5.847,14.238c3.011,9.68,4.59,19.692,6.669,29.592c1.188,5.658,2.703,11.269,5.401,16.413
									c0.23,0.439,0.895,0.05,0.665-0.389c-4.526-8.627-5.751-18.547-7.647-27.98c-1.822-9.068-3.919-18.154-7.582-26.681
									c-1.049-2.441-2.226-4.828-3.552-7.131c-1.079-1.873-4.319-5.643-1.153-7.178c0.27-0.131,0.23-0.523,0-0.665
									c-3.246-1.997-3.618-6.227-3.752-9.678c-0.184-4.718-0.241-9.444-0.224-14.165c0.034-9.446,0.442-18.888,1.203-28.303
									C473.116,317.428,472.345,317.431,472.306,317.922L472.306,317.922z"/>
							</g>
						</g>
						<g>
							<g>
								<path style="fill:#375A60;" d="M453.785,331.122c0.623-4.378,0.014-8.809-1.771-12.855c-0.2-0.452-0.863-0.061-0.665,0.389
									c1.692,3.835,2.284,8.111,1.693,12.262C452.974,331.401,453.716,331.611,453.785,331.122L453.785,331.122z"/>
							</g>
						</g>
						<g>
							<g>
								<path style="fill:#375A60;" d="M451.747,322.578c-1.031-0.982-2.061-1.964-3.092-2.945
									c-0.359-0.342-0.904,0.202-0.544,0.544c1.031,0.982,2.061,1.964,3.092,2.945
									C451.561,323.464,452.106,322.921,451.747,322.578L451.747,322.578z"/>
							</g>
						</g>
						<g>
							<g>
								<path style="fill:#375A60;" d="M450.796,324.973c-0.381-0.422-0.762-0.843-1.143-1.264c-0.135-0.15-0.409-0.148-0.544,0
									c-0.147,0.16-0.144,0.385,0,0.544c0.381,0.421,0.762,0.843,1.143,1.264c0.135,0.15,0.409,0.148,0.544,0
									C450.943,325.357,450.94,325.133,450.796,324.973L450.796,324.973z"/>
							</g>
						</g>
						<g>
							<g>
								<path style="fill:#375A60;" d="M411.776,361.447c1.054,0.955,2.109,1.91,3.163,2.865c0.154,0.14,0.392,0.152,0.544,0
									c0.142-0.142,0.155-0.404,0-0.544c-1.054-0.955-2.109-1.91-3.163-2.865c-0.154-0.14-0.392-0.152-0.544,0
									C411.634,361.044,411.621,361.306,411.776,361.447L411.776,361.447z"/>
							</g>
						</g>
						<g>
							<g>
								<path style="fill:#375A60;" d="M414.653,360.359c0.871,1.126,1.741,2.252,2.611,3.378c0.127,0.165,0.411,0.134,0.544,0
									c0.163-0.162,0.128-0.379,0-0.544c-0.87-1.126-1.741-2.252-2.611-3.378c-0.127-0.165-0.411-0.134-0.544,0
									C414.491,359.977,414.526,360.194,414.653,360.359L414.653,360.359z"/>
							</g>
						</g>
					</g>
					<g>
						<path style="fill:#92CEE0;" d="M474.904,291.256c-0.167-3.776,0.158-7.625,0.221-11.416
							c0.103-6.217-0.741-12.958-5.027-17.462c-3.802-3.996-9.884-5.438-15.247-4.15c-12.673,3.045-16.76,16.145-15.318,27.705
							c0.757,6.07,2.262,12.14,1.654,18.227c-0.121,1.216-0.253,2.641,0.653,3.461c0.412,0.373,0.967,0.536,1.504,0.68
							c9.919,2.653,20.659,2.139,30.279-1.449c0.942-0.351,1.912-0.759,2.561-1.527c1.565-1.854,0.548-4.625-0.158-6.946
							C475.318,296.059,475.01,293.673,474.904,291.256z"/>
					</g>
					<g>
						<g>
							<g>
								<g>
									<path style="fill:#FCBA9D;" d="M452.422,243.34c-1.22,4.368-0.372,10.494,4.692,10.69c3.368,0.13,6.976-2.722,8.196-7.09
										c1.22-4.368,0.592-9.101-3.979-10.622C455.534,234.389,453.642,238.972,452.422,243.34z"/>
								</g>
								<g>
									<path style="fill:#FCBA9D;" d="M464.124,246.377c-0.81,1.174-1.417,3.338-0.456,4c0.961,0.663,3.125-0.427,3.934-1.601
										s0.688-2.663-0.273-3.325C466.368,244.789,464.933,245.203,464.124,246.377z"/>
								</g>
							</g>
							<g>
								<path style="fill:#FCBA9D;" d="M462.875,257.373c0.229,0.805,0.615,1.621,0.45,2.442c-0.106,0.529-0.431,0.986-0.768,1.408
									c-0.817,1.027-1.774,1.978-2.953,2.554c-1.179,0.576-2.611,0.736-3.805,0.191c-1.194-0.545-2.05-1.881-1.818-3.173
									c0.342-1.906,2.605-2.811,3.512-4.521c0.524-0.988,0.55-2.162,0.929-3.214c0.556-1.545,2.152-3.102,3.865-3.233
									c0.895-0.069,1.498-0.241,1.406,0.446c-0.127,0.945-0.921,2.985-1.027,3.94
									C462.547,255.268,462.583,256.346,462.875,257.373z"/>
							</g>
						</g>
					</g>
					<g>
						<g>
							<path style="fill:#1E3D44;" d="M445.237,289.467c0.896,0.85,1.791,1.699,2.687,2.549c0.151,0.143,0.395,0.15,0.544,0
								c0.144-0.144,0.151-0.401,0-0.544c-0.896-0.85-1.791-1.699-2.687-2.549c-0.151-0.143-0.395-0.15-0.544,0
								C445.092,289.067,445.086,289.324,445.237,289.467L445.237,289.467z"/>
						</g>
					</g>
					<g>
						<g>
							<path style="fill:#1E3D44;" d="M446.487,286.942c0.59,1.658,1.683,3.084,3.13,4.085c0.171,0.118,0.427,0.032,0.527-0.138
								c0.112-0.191,0.033-0.408-0.138-0.527c-1.272-0.881-2.258-2.168-2.776-3.625c-0.07-0.196-0.263-0.327-0.474-0.269
								C446.566,286.521,446.417,286.745,446.487,286.942L446.487,286.942z"/>
						</g>
					</g>
					<g>
						<g>
							<g>
								<g>
									<g>
										<path style="fill:#DD436B;" d="M503.428,334.993l-2.595-7.773c-0.137-0.412-0.106-0.854,0.088-1.243
											c0.194-0.39,0.529-0.68,0.942-0.816l10.464-3.494c0.411-0.137,0.853-0.107,1.243,0.088c0.39,0.194,0.68,0.529,0.816,0.942
											l2.595,7.77L503.428,334.993z M512.852,323.209l-10.476,3.488l2.076,6.247l10.481-3.499L512.852,323.209z"/>
									</g>
									<g>
										<g>
											<g>
												<path style="fill:#FE6083;" d="M534.469,351.517l-32.38,10.808c-1.43,0.477-2.975-0.295-3.452-1.724l-7.585-22.724
													c-0.477-1.43,0.295-2.975,1.725-3.453l32.38-10.808c1.43-0.477,2.975,0.295,3.453,1.725l7.585,22.724
													C536.671,349.494,535.899,351.04,534.469,351.517z"/>
											</g>
											<g>
												<path style="fill:#DD436B;" d="M497.415,350.132l-0.243-0.065c-0.112-0.057-0.195-0.157-0.234-0.28l-4.387-13.141
													c-0.071-0.213,0.044-0.441,0.256-0.512c0.217-0.069,0.442,0.044,0.512,0.256l4.284,12.831
													c15.044-4.841,30.401-9.884,32.603-10.815c-0.681-2.035-4.304-12.891-4.304-12.891l0.768-0.257
													c0,0,4.303,12.891,4.41,13.21l0.053,0.16l-0.077,0.158c-0.109,0.218-0.314,0.623-33.481,11.294L497.415,350.132z"/>
											</g>
											<g>
												<g>
													
														<rect x="502.449" y="345.295" transform="matrix(0.9486 -0.3166 0.3166 0.9486 -84.0292 177.613)" style="fill:#FCD936;" width="4.171" height="4.171"/>
												</g>
												<g>
													
														<rect x="521.453" y="338.951" transform="matrix(0.9486 -0.3166 0.3166 0.9486 -81.0431 183.3036)" style="fill:#FCD936;" width="4.171" height="4.171"/>
												</g>
											</g>
										</g>
										<g>
											<g>
												<path style="fill:#DD436B;" d="M529.89,347.662c0.357-1.157,0.713-2.315,1.07-3.472
													c0.115-0.374-0.471-0.534-0.585-0.161c-0.357,1.157-0.713,2.315-1.07,3.472
													C529.189,347.875,529.775,348.035,529.89,347.662L529.89,347.662z"/>
											</g>
										</g>
										<g>
											<g>
												<path style="fill:#DD436B;" d="M528.393,346.405c0.161-0.584,0.321-1.167,0.482-1.751
													c0.042-0.153-0.052-0.337-0.212-0.373c-0.16-0.037-0.328,0.048-0.373,0.212c-0.161,0.584-0.321,1.167-0.482,1.751
													c-0.042,0.153,0.052,0.337,0.212,0.373C528.18,346.654,528.348,346.569,528.393,346.405L528.393,346.405z"/>
											</g>
										</g>
										<g>
											<g>
												<path style="fill:#DD436B;" d="M500.08,342.275c0.217-1.114,0.434-2.228,0.651-3.342
													c0.074-0.382-0.511-0.545-0.585-0.161c-0.217,1.114-0.434,2.228-0.651,3.342
													C499.42,342.495,500.005,342.659,500.08,342.275L500.08,342.275z"/>
											</g>
										</g>
										<g>
											<g>
												<path style="fill:#DD436B;" d="M502.216,340.67c0.126-0.872,0.252-1.745,0.378-2.617
													c0.023-0.162-0.04-0.326-0.212-0.373c-0.143-0.039-0.35,0.049-0.373,0.212c-0.126,0.872-0.252,1.745-0.378,2.617
													c-0.023,0.162,0.04,0.326,0.212,0.373C501.985,340.921,502.192,340.833,502.216,340.67L502.216,340.67z"/>
											</g>
										</g>
									</g>
								</g>
								<g>
									<path style="fill:#FCBA9D;" d="M508.961,314.626c1.171,2.847,2.189,5.757,3.049,8.713c0.223,0.766,0.419,1.65-0.023,2.313
										c-0.218,0.328-0.563,0.547-0.904,0.744c-1.087,0.629-2.243,1.136-3.442,1.51c-1.021,0.318-2.333,0.451-2.974-0.405
										c-0.293-0.392-0.362-0.9-0.519-1.363c-0.157-0.463-0.481-0.941-0.967-0.995c-0.466-0.051-1.128,0.216-1.286-0.226
										c-0.069-0.193,0.039-0.4,0.137-0.58c1.175-2.16,1.286-4.868,0.291-7.117c1.59-1.143,3.343-2.496,5.301-2.454
										C508.057,314.774,508.882,315.05,508.961,314.626z"/>
								</g>
							</g>
							<g>
								<path style="fill:#92CEE0;" d="M467.477,260.24c0,0,34.694,15.384,37.642,22.042c2.949,6.658,6.067,32.456,6.067,32.456
									s-2.326,4.039-10.226,4.26l-1.938-27.499c0,0-2.849,0.66-1.222-2.341l-26.647-11.27L467.477,260.24z"/>
							</g>
						</g>
						<g>
							<g>
								<path style="fill:#1E3D44;" d="M468.516,263.431c0.087,5.469,2,10.766,5.403,15.044c0.308,0.388,0.85-0.16,0.544-0.544
									c-3.272-4.113-5.095-9.249-5.178-14.5C469.278,262.936,468.508,262.935,468.516,263.431L468.516,263.431z"/>
							</g>
						</g>
						<g>
							<g>
								<path style="fill:#1E3D44;" d="M500.085,289.399c0.702-0.635,1.405-1.27,2.107-1.904c0.15-0.135,0.148-0.409,0-0.544
									c-0.16-0.147-0.385-0.144-0.544,0c-0.702,0.635-1.405,1.27-2.107,1.904c-0.15,0.135-0.148,0.409,0,0.544
									C499.701,289.546,499.925,289.543,500.085,289.399L500.085,289.399z"/>
							</g>
						</g>
						<g>
							<g>
								<path style="fill:#1E3D44;" d="M501.84,291.204c0.408-0.113,0.816-0.227,1.224-0.34c0.194-0.054,0.333-0.275,0.269-0.474
									c-0.064-0.198-0.266-0.327-0.474-0.269c-0.408,0.113-0.816,0.227-1.224,0.34c-0.194,0.054-0.333,0.275-0.269,0.474
									C501.431,291.133,501.632,291.262,501.84,291.204L501.84,291.204z"/>
							</g>
						</g>
					</g>
					<g>
						<g>
							<g>
								<path style="fill:#FCBA9D;" d="M398.384,247.191c0.175-1.928-0.349-3.912-1.455-5.501c-0.286-0.412-0.636-0.816-1.111-0.977
									c-0.475-0.161-1.096,0.02-1.266,0.492c-0.516-0.317-1.418-0.628-2.011-0.754s-1.271-0.02-1.686,0.42
									c-0.17,0.18-0.306,0.418-0.543,0.488c-0.255,0.075-0.523-0.078-0.789-0.06c-0.366,0.025-0.625,0.357-0.831,0.661
									c-0.593,0.875-1.169,1.783-1.464,2.799c-0.183,0.63-0.251,1.306-0.093,1.943c0.325,1.306,1.508,2.189,2.612,2.96
									c1.883,1.317,3.887,2.678,6.177,2.86c0.827,0.066,1.783-0.098,2.225-0.8c0.178-0.283,0.247-0.618,0.313-0.945
									C398.725,249.484,399.122,248.286,398.384,247.191z"/>
							</g>
							<g>
								<path style="fill:#92CEE0;" d="M460.577,275.272c0,0-37.4,6.447-43.547,2.543c-6.147-3.904-23.053-23.638-23.053-23.638
									s-0.306-4.651,6.145-9.217l16.868,21.804c0,0,2.004-2.13,2.316,1.27l29.791-7.422L460.577,275.272z"/>
							</g>
						</g>
						<g>
							<g>
								<path style="fill:#1E3D44;" d="M443.943,265.714c-1.55,3.94-3.1,7.881-4.65,11.821c-0.181,0.461,0.563,0.661,0.742,0.205
									c1.55-3.94,3.1-7.881,4.65-11.821C444.867,265.457,444.122,265.257,443.943,265.714L443.943,265.714z"/>
							</g>
						</g>
						<g>
							<g>
								<path style="fill:#1E3D44;" d="M418.165,271.391c0.181-0.794,0.363-1.588,0.544-2.382c0.045-0.196-0.06-0.426-0.269-0.474
									c-0.196-0.045-0.426,0.059-0.474,0.269c-0.181,0.794-0.363,1.588-0.544,2.382c-0.045,0.196,0.06,0.426,0.269,0.474
									C417.887,271.705,418.117,271.601,418.165,271.391L418.165,271.391z"/>
							</g>
						</g>
						<g>
							<g>
								<path style="fill:#1E3D44;" d="M421.446,271.164c0.168-0.662,0.337-1.323,0.505-1.985c0.05-0.195-0.063-0.427-0.269-0.474
									c-0.2-0.046-0.42,0.06-0.474,0.269c-0.168,0.662-0.337,1.323-0.505,1.985c-0.05,0.195,0.063,0.427,0.269,0.474
									C421.172,271.478,421.393,271.373,421.446,271.164L421.446,271.164z"/>
							</g>
						</g>
					</g>
					<g>
						<path style="fill:#1E3D44;" d="M410.449,422.968c-0.507,0.303-1.04,0.665-1.221,1.227c-0.225,0.699,0.203,1.476,0.815,1.881
							c0.613,0.405,1.367,0.519,2.096,0.605c3.766,0.446,7.588,0.407,11.344-0.115c0.653-0.091,1.335-0.209,1.852-0.617
							c0.874-0.689,0.995-1.948,1.014-3.06c0.024-1.453-0.066-3.058-1.075-4.104c-1.348-1.396-3.983-1.236-5.61-0.435
							c-0.847,0.417-1.004,1.249-1.958,1.54c-1.178,0.359-2.343,0.714-3.484,1.185C412.92,421.613,411.658,422.246,410.449,422.968z
							"/>
					</g>
					<g>
						<path style="fill:#1E3D44;" d="M482.907,452.031c-0.221,0.547-0.428,1.158-0.233,1.715c0.242,0.693,1.053,1.055,1.785,1.008
							s1.403-0.411,2.036-0.782c3.271-1.917,6.296-4.255,8.975-6.938c0.466-0.466,0.938-0.973,1.104-1.61
							c0.281-1.077-0.382-2.154-1.039-3.052c-0.857-1.173-1.898-2.399-3.334-2.623c-1.918-0.299-3.922,1.418-4.736,3.039
							c-0.424,0.844-0.046,1.602-0.632,2.41c-0.723,0.997-1.437,1.984-2.062,3.048C484.06,449.459,483.435,450.725,482.907,452.031z
							"/>
					</g>
				</g>
			</g>
			<g>
				<g>
					<g>
						<g>
							<path style="fill:#DD436B;" d="M647.485,393.896l-0.659-8.168c-0.035-0.434,0.101-0.854,0.383-1.186
								c0.282-0.331,0.676-0.532,1.109-0.567l10.998-0.887c0.888-0.059,1.681,0.595,1.754,1.491l0.659,8.168L647.485,393.896z
								 M659.456,384.71l-11.008,0.879l0.521,6.563l11.015-0.889L659.456,384.71z"/>
						</g>
						<g>
							<g>
								<g>
									<path style="fill:#FE6083;" d="M673.671,417.368l-34.026,2.745c-1.502,0.121-2.818-0.998-2.94-2.501l-1.927-23.878
										c-0.121-1.502,0.998-2.818,2.501-2.94l34.026-2.745c1.502-0.121,2.818,0.998,2.94,2.501l1.927,23.878
										C676.293,415.931,675.173,417.247,673.671,417.368z"/>
								</g>
								<g>
									<path style="fill:#DD436B;" d="M637.743,407.175l-0.098-0.458l-1.115-13.819c-0.018-0.223,0.147-0.417,0.371-0.435
										c0.246-0.024,0.417,0.148,0.435,0.371l1.089,13.483c12.828-0.892,31.669-2.288,34.243-2.7
										c-0.172-2.137-1.092-13.547-1.092-13.547l0.806-0.064c0,0,1.092,13.545,1.12,13.88l0.014,0.169l-0.112,0.135
										c-0.139,0.162-0.465,0.541-35.263,2.957L637.743,407.175z"/>
								</g>
								<g>
									<g>
										
											<rect x="643.51" y="404.103" transform="matrix(0.9968 -0.0804 0.0804 0.9968 -30.5769 53.2387)" style="fill:#FCD936;" width="4.171" height="4.171"/>
									</g>
									<g>
										
											<rect x="663.48" y="402.491" transform="matrix(0.9968 -0.0804 0.0804 0.9968 -30.3826 54.8396)" style="fill:#FCD936;" width="4.171" height="4.171"/>
									</g>
								</g>
							</g>
							<g>
								<g>
									<path style="fill:#DD436B;" d="M670.144,412.534c0.623-1.038,1.246-2.077,1.87-3.115c0.202-0.336-0.323-0.641-0.524-0.306
										c-0.623,1.038-1.246,2.077-1.87,3.115C669.418,412.564,669.943,412.869,670.144,412.534L670.144,412.534z"/>
								</g>
							</g>
							<g>
								<g>
									<path style="fill:#DD436B;" d="M668.991,410.956c0.296-0.528,0.591-1.056,0.887-1.584c0.078-0.139,0.038-0.338-0.109-0.415
										c-0.143-0.076-0.332-0.039-0.415,0.109c-0.296,0.528-0.591,1.056-0.887,1.584c-0.078,0.139-0.038,0.338,0.109,0.415
										C668.719,411.14,668.909,411.104,668.991,410.956L668.991,410.956z"/>
								</g>
							</g>
							<g>
								<g>
									<path style="fill:#DD436B;" d="M642.49,400.17c0.477-1.03,0.955-2.059,1.432-3.089c0.069-0.149,0.042-0.327-0.109-0.415
										c-0.131-0.077-0.346-0.041-0.415,0.109c-0.477,1.03-0.955,2.06-1.432,3.089c-0.069,0.149-0.042,0.327,0.109,0.415
										C642.205,400.356,642.42,400.32,642.49,400.17L642.49,400.17z"/>
								</g>
							</g>
							<g>
								<g>
									<path style="fill:#DD436B;" d="M644.978,399.05c0.331-0.817,0.662-1.634,0.993-2.451c0.062-0.152-0.067-0.334-0.212-0.373
										c-0.174-0.048-0.312,0.059-0.373,0.212c-0.331,0.817-0.662,1.634-0.993,2.451c-0.062,0.152,0.067,0.334,0.212,0.373
										C644.778,399.31,644.916,399.203,644.978,399.05L644.978,399.05z"/>
								</g>
							</g>
						</g>
					</g>
					<g>
						<path style="fill:#FCBA9D;" d="M657.732,375.445c0.456,3.044,0.748,6.113,0.876,9.189c0.033,0.797,0.012,1.702-0.576,2.241
							c-0.29,0.266-0.677,0.396-1.056,0.506c-1.206,0.351-2.45,0.567-3.703,0.642c-1.068,0.064-2.374-0.12-2.79-1.105
							c-0.19-0.45-0.136-0.961-0.178-1.448c-0.042-0.487-0.242-1.029-0.701-1.197c-0.441-0.161-1.147-0.06-1.194-0.527
							c-0.021-0.204,0.134-0.379,0.272-0.53c1.658-1.816,2.414-4.419,1.986-6.841c1.817-0.729,3.843-1.624,5.734-1.114
							C656.819,375.373,657.554,375.837,657.732,375.445z"/>
					</g>
				</g>
				<g>
					<g>
						<g>
							<g>
								<path style="fill:#1E3D44;" d="M597.454,346.733c-13.159,10.423-26.318,20.846-39.476,31.269
									c-3.609,2.859-7.299,5.809-9.65,9.767c-2.117,3.565-3.002,7.711-3.762,11.787c-3.629,19.467-5.135,39.328-4.484,59.12
									c4.823,1.328,11.311,1.477,16.217,0.501c4.438-17.689,7.969-35.653,11.11-53.617c1.699,0.351,3.384-1.125,4.18-2.666
									c0.796-1.541,0.439-3.592-0.83-4.774c13.596-9.921,26.959-19.581,40.555-29.501c3.957-2.887,8.255-6.331,8.828-11.196
									c0.489-4.144-2.087-8.235-5.635-10.431C609.93,344.159,601.672,343.391,597.454,346.733z"/>
							</g>
							<g>
								<g>
									<path style="fill:#375A60;" d="M550.802,401.859c1.088,1.415,2.176,2.831,3.264,4.246c0.126,0.165,0.331,0.252,0.527,0.138
										c0.162-0.095,0.266-0.361,0.138-0.527c-1.088-1.415-2.176-2.831-3.264-4.246c-0.126-0.165-0.331-0.252-0.527-0.138
										C550.778,401.427,550.675,401.693,550.802,401.859L550.802,401.859z"/>
								</g>
							</g>
							<g>
								<g>
									<path style="fill:#375A60;" d="M552.955,396.909c0.357,1.071,0.714,2.142,1.071,3.214c0.066,0.197,0.266,0.326,0.474,0.269
										c0.193-0.053,0.335-0.275,0.269-0.474c-0.357-1.071-0.714-2.142-1.071-3.214c-0.066-0.197-0.266-0.326-0.474-0.269
										C553.032,396.488,552.889,396.711,552.955,396.909L552.955,396.909z"/>
								</g>
							</g>
							<g>
								<g>
									<path style="fill:#375A60;" d="M604.534,365.114c-0.325-1.435-0.651-2.871-0.976-4.306
										c-0.109-0.483-0.852-0.279-0.742,0.205c0.325,1.435,0.651,2.871,0.976,4.306
										C603.901,365.802,604.643,365.597,604.534,365.114L604.534,365.114z"/>
								</g>
							</g>
						</g>
						<g>
							<path style="fill:#1E3D44;" d="M553.893,465.424c-0.767,0.525-1.548,1.057-2.437,1.328c-1.613,0.493-3.348,0.067-4.98-0.359
								c-3.2-0.836-6.399-1.671-9.599-2.507c-0.912-0.238-1.852-0.49-2.597-1.068c-0.745-0.578-1.249-1.575-0.966-2.475
								c0.152-0.483,0.508-0.879,0.913-1.181c2.156-1.608,5.171-0.689,7.861-0.705c3.272-0.02,6.415-1.55,9.709-1.058
								c2.166,0.323,2.75,1.686,2.95,3.701C554.907,462.705,555.403,464.39,553.893,465.424z"/>
						</g>
					</g>
					<g>
						<g>
							<g>
								<path style="fill:#1E3D44;" d="M608.15,361.045c-4.881,16.061-9.761,32.123-14.642,48.184
									c-1.339,4.405-2.692,8.932-2.37,13.524c0.29,4.136,1.923,8.048,3.62,11.831c8.103,18.068,18.176,35.252,29.982,51.15
									c4.721-1.655,10.139-5.227,13.616-8.824c-6.426-17.067-13.753-33.845-21.402-50.4c1.596-0.679,2.141-2.852,1.918-4.572
									c-0.223-1.72-1.685-3.203-3.401-3.451c5.526-15.897,11.009-31.448,16.535-47.346c1.608-4.627,3.18-9.905,0.88-14.231
									c-1.958-3.685-6.405-5.581-10.572-5.365C616.94,351.824,609.715,355.896,608.15,361.045z"/>
							</g>
							<g>
								<g>
									<path style="fill:#375A60;" d="M623.231,356.553c-0.832,5.104,2.623,10.426,7.664,11.667
										c0.481,0.118,0.686-0.624,0.205-0.742c-4.603-1.133-7.893-6.021-7.127-10.72
										C624.053,356.273,623.311,356.064,623.231,356.553L623.231,356.553z"/>
								</g>
							</g>
							<g>
								<g>
									<path style="fill:#375A60;" d="M626.944,366.223c-3.264,8.194-6.516,16.393-9.764,24.594
										c-1.624,4.1-3.246,8.201-4.868,12.303c-0.829,2.095-1.688,4.181-2.479,6.29c-0.656,1.747-1.229,3.602-1.103,5.491
										c0.194,2.906,2.502,5.777,5.629,5.306c0.441-0.066,0.317-0.748-0.102-0.756c-3.44-0.069-4.051,3.959-3.152,6.492
										c0.723,2.038,1.834,3.965,2.783,5.903c1.008,2.059,2.017,4.118,3.025,6.178c4.183,8.542,8.366,17.084,12.549,25.626
										c2.353,4.805,4.706,9.61,7.059,14.415c0.218,0.445,0.882,0.055,0.665-0.389c-4.743-9.686-9.486-19.372-14.23-29.058
										c-2.353-4.805-4.706-9.61-7.059-14.415c-1.182-2.414-2.424-4.809-3.544-7.253c-0.614-1.341-1.228-2.913-0.835-4.406
										c0.338-1.284,1.359-2.351,2.739-2.323c-0.034-0.252-0.068-0.504-0.102-0.756c-2.513,0.378-4.397-2.056-4.639-4.336
										c-0.261-2.449,0.79-4.85,1.668-7.072c1.808-4.575,3.618-9.149,5.429-13.723c3.683-9.306,7.372-18.609,11.075-27.906
										C627.869,365.967,627.125,365.767,626.944,366.223L626.944,366.223z"/>
								</g>
							</g>
							<g>
								<g>
									<path style="fill:#375A60;" d="M599.709,430.913c1.07,0.716,2.14,1.431,3.211,2.147c0.173,0.116,0.426,0.034,0.527-0.138
										c0.111-0.189,0.035-0.411-0.138-0.527c-1.07-0.716-2.14-1.431-3.211-2.147c-0.173-0.116-0.426-0.034-0.527,0.138
										C599.461,430.575,599.536,430.797,599.709,430.913L599.709,430.913z"/>
								</g>
							</g>
							<g>
								<g>
									<path style="fill:#375A60;" d="M601.795,426.425c0.84,1.464,2.261,2.558,3.89,2.998c0.479,0.129,0.683-0.613,0.205-0.742
										c-1.442-0.389-2.686-1.348-3.43-2.644C602.213,425.606,601.548,425.994,601.795,426.425L601.795,426.425z"/>
								</g>
							</g>
							<g>
								<g>
									<path style="fill:#375A60;" d="M605.215,372.971c2.199-4.247,2.995-9.069,2.302-13.798
										c-0.072-0.488-0.814-0.281-0.742,0.205c0.661,4.511-0.129,9.158-2.224,13.205
										C604.323,373.021,604.987,373.411,605.215,372.971L605.215,372.971z"/>
								</g>
							</g>
						</g>
						<g>
							<path style="fill:#1E3D44;" d="M640.391,484.386c-0.218,0.903-0.442,1.822-0.921,2.618c-0.868,1.446-2.441,2.291-3.939,3.068
								c-2.936,1.522-5.872,3.043-8.808,4.565c-0.837,0.434-1.704,0.876-2.644,0.945c-0.94,0.069-1.982-0.334-2.375-1.191
								c-0.21-0.46-0.211-0.993-0.112-1.489c0.525-2.638,3.38-3.974,5.367-5.787c2.417-2.205,3.727-5.446,6.503-7.287
								c1.826-1.21,3.172-0.589,4.669,0.774C639.325,481.687,640.821,482.607,640.391,484.386z"/>
						</g>
					</g>
				</g>
				<g>
					<g>
						<path style="fill:#92CEE0;" d="M618.759,298.922c-5.6-0.737-11.255,1.94-15.219,5.964s-6.459,9.257-8.429,14.551
							c-2.782,7.479-4.659,15.295-5.575,23.223c-0.147,1.271-0.265,2.59,0.138,3.805c0.524,1.579,1.845,2.748,3.164,3.762
							c12.993,9.987,31.534,12.193,46.508,5.533c0.331-4.613,1.371-9.259,1.702-13.872c0.648-9.025,1.26-18.346-1.719-26.89
							c-2.979-8.544-10.533-16.174-19.58-16.299C619.501,298.132,619.008,299.487,618.759,298.922z"/>
					</g>
					<g>
						<g>
							<path style="fill:#1E3D44;" d="M612.035,266.86c0.842-1.142,1.983-2.146,3.371-2.443c1.388-0.296,3.023,0.297,3.593,1.597
								c0.157,0.358,0.246,0.774,0.549,1.019c0.793,0.642,2.053-0.486,2.952-0.005c1.143,0.611,0.014,2.411,0.399,3.649
								c0.355,1.141,1.866,1.397,3.047,1.216c1.181-0.181,2.462-0.573,3.511-0.001c1.67,0.911,1.388,3.402,0.602,5.135
								c-0.161,0.356-0.338,0.73-0.293,1.118c0.124,1.063,1.783,1.564,1.651,2.625c-0.097,0.776-1.092,1.086-1.461,1.776
								c-0.783,1.465,1.666,2.872,1.507,4.525c-0.159,1.662-2.506,1.885-3.773,2.972c-1.156,0.993-1.485,2.861-2.883,3.467
								c-1.548,0.671-3.279-0.768-3.838-2.36c-0.559-1.592-0.426-3.353-0.906-4.971c-0.484-1.628-1.627-3.021-3.076-3.891
								c-1.142-0.686-2.429-1.082-3.58-1.744c-2.518-1.447-3.383-5.164-3.309-7.845C610.157,270.62,610.795,268.543,612.035,266.86z
								"/>
						</g>
						<g>
							<g>
								<g>
									<g>
										<path style="fill:#FCBA9D;" d="M611.963,283.458c-1.189,4.377-0.297,10.496,4.768,10.656
											c3.369,0.106,6.956-2.772,8.145-7.148c1.189-4.377,0.527-9.105-4.055-10.594
											C615.012,274.486,613.152,279.081,611.963,283.458z"/>
									</g>
									<g>
										<path style="fill:#FCBA9D;" d="M623.686,286.412c-0.801,1.18-1.393,3.348-0.427,4.004s3.121-0.449,3.923-1.629
											c0.801-1.18,0.669-2.668-0.297-3.323S624.488,285.232,623.686,286.412z"/>
									</g>
								</g>
								<g>
									<path style="fill:#FCBA9D;" d="M622.516,297.416c0.234,0.804,0.626,1.616,0.468,2.438c-0.102,0.53-0.424,0.989-0.757,1.414
										c-0.81,1.032-1.76,1.99-2.935,2.575c-1.175,0.584-2.606,0.754-3.804,0.218c-1.198-0.536-2.063-1.866-1.841-3.16
										c0.328-1.909,2.584-2.829,3.479-4.546c0.517-0.992,0.534-2.166,0.906-3.22c0.545-1.549,2.13-3.117,3.841-3.26
										c0.894-0.075,1.496-0.251,1.409,0.436c-0.12,0.946-0.9,2.991-0.999,3.947C622.174,295.313,622.217,296.392,622.516,297.416
										z"/>
								</g>
							</g>
						</g>
					</g>
				</g>
				<g>
					<path style="fill:#92CEE0;" d="M630.998,302.834c7.584,7.473,13.835,14.449,20.223,22.967c2.87,3.827,5.638,7.798,7.39,12.25
						c1.682,4.273,2.378,8.868,2.81,13.44c0.784,8.294,0.736,16.667-0.142,24.952c-3.978,0.823-8.024,0.655-12.075,0.355
						c0.198-8.973-0.58-18.285-0.381-27.258c-0.77-0.243-2.132-1.488-2.035-2.29c0.097-0.802,0.816-1.483,1.622-1.537
						C635.477,336.237,629.379,318.784,630.998,302.834z"/>
				</g>
				<g>
					<path style="fill:#FCBA9D;" d="M573.561,292.676c1.21-1.511,1.868-3.455,1.824-5.39c-0.011-0.502-0.08-1.031-0.387-1.428
						c-0.308-0.396-0.925-0.589-1.327-0.289c-0.255-0.549-0.836-1.306-1.261-1.738c-0.424-0.432-1.049-0.718-1.638-0.58
						c-0.241,0.056-0.486,0.18-0.722,0.107c-0.254-0.078-0.393-0.354-0.625-0.485c-0.319-0.181-0.718-0.047-1.057,0.093
						c-0.978,0.402-1.959,0.841-2.765,1.526c-0.5,0.424-0.931,0.95-1.15,1.568c-0.45,1.269,0.049,2.658,0.544,3.91
						c0.844,2.137,1.763,4.379,3.572,5.795c0.653,0.511,1.541,0.903,2.297,0.561c0.304-0.138,0.547-0.379,0.783-0.615
						C572.581,294.776,573.573,293.996,573.561,292.676z"/>
				</g>
				<g>
					<path style="fill:#92CEE0;" d="M607.124,301.941c-8.352,5.355-13.978,11.57-21.141,18.435c0.333-0.687,0.152-1.377,0.113-2.139
						s-0.602-1.556-1.365-1.567c-0.872-0.013-1.427,0.898-1.798,1.687c-2.208-9.502-5.432-18.665-7.64-28.167
						c-3.308,1.372-6.938,2.708-9.965,4.62c2.96,11.234,5.201,23.058,8.161,34.292c0.54,2.048,1.369,4.411,3.396,5.024
						c1.023,0.309,2.125,0.076,3.157-0.199c7.924-2.116,14.979-6.607,21.77-11.205c3.659-2.477,7.508-5.296,8.885-9.494
						C611.997,309.261,608.329,305.939,607.124,301.941z"/>
				</g>
				<g>
					<g>
						<path style="fill:#1E3D44;" d="M633.5,308.57c-0.108,10.212,2.084,20.321,6.39,29.58c0.209,0.449,0.873,0.058,0.665-0.389
							c-4.249-9.134-6.391-19.119-6.285-29.191C634.275,308.074,633.505,308.074,633.5,308.57L633.5,308.57z"/>
					</g>
				</g>
				<g>
					<g>
						<path style="fill:#1E3D44;" d="M650.013,345.432c1.071,0.133,2.143,0.265,3.214,0.398c0.207,0.026,0.385-0.195,0.385-0.385
							c0-0.229-0.178-0.359-0.385-0.385c-1.071-0.133-2.143-0.265-3.214-0.398c-0.207-0.026-0.385,0.195-0.385,0.385
							C649.628,345.277,649.805,345.407,650.013,345.432L650.013,345.432z"/>
					</g>
				</g>
				<g>
					<g>
						<path style="fill:#1E3D44;" d="M651.097,342.724c0.668,0.14,1.336,0.281,2.005,0.421c0.197,0.041,0.425-0.058,0.474-0.269
							c0.044-0.193-0.058-0.429-0.269-0.474c-0.668-0.14-1.336-0.281-2.004-0.421c-0.197-0.041-0.425,0.058-0.474,0.269
							C650.784,342.443,650.886,342.679,651.097,342.724L651.097,342.724z"/>
					</g>
				</g>
				<g>
					<g>
						<path style="fill:#1E3D44;" d="M592.243,328.771c1.053-6.387,3.582-12.431,7.393-17.664c0.292-0.401-0.376-0.786-0.665-0.389
							c-3.844,5.279-6.408,11.405-7.47,17.848C591.421,329.051,592.163,329.26,592.243,328.771L592.243,328.771z"/>
					</g>
				</g>
				<g>
					<g>
						<path style="fill:#1E3D44;" d="M582.812,322.797c0.391-0.676,0.781-1.352,1.172-2.028c0.101-0.174,0.046-0.429-0.138-0.527
							c-0.184-0.097-0.419-0.048-0.527,0.138c-0.391,0.676-0.781,1.352-1.172,2.028c-0.101,0.174-0.046,0.429,0.138,0.527
							C582.469,323.032,582.704,322.983,582.812,322.797L582.812,322.797z"/>
					</g>
				</g>
				<g>
					<g>
						<path style="fill:#1E3D44;" d="M586.2,323.167c0.528-1.342,1.056-2.684,1.584-4.026c0.076-0.194-0.083-0.423-0.269-0.474
							c-0.218-0.06-0.397,0.075-0.474,0.269c-0.528,1.342-1.056,2.684-1.584,4.026c-0.076,0.194,0.084,0.423,0.269,0.474
							C585.945,323.496,586.124,323.362,586.2,323.167L586.2,323.167z"/>
					</g>
				</g>
				<g>
					<g>
						<path style="fill:#1E3D44;" d="M602.548,339.686c0.464,2.518,1.855,4.84,3.86,6.432c0.384,0.305,0.932-0.236,0.544-0.544
							c-1.916-1.521-3.219-3.686-3.662-6.092C603.201,338.995,602.459,339.201,602.548,339.686L602.548,339.686z"/>
					</g>
				</g>
				<g>
					<g>
						<path style="fill:#1E3D44;" d="M606.287,336.477c1.538,3.373,3.753,6.414,6.487,8.915c0.365,0.334,0.911-0.209,0.544-0.544
							c-2.692-2.463-4.854-5.44-6.367-8.76C606.747,335.638,606.083,336.029,606.287,336.477L606.287,336.477z"/>
					</g>
				</g>
			</g>
		</g>
		<g>
			<g>
				<path style="fill:#42A147;" d="M743.508,296.79c-0.298,0-0.592-0.128-0.795-0.376l-49.03-59.875l-133.125-7.321l-0.285-0.319
					l-83.706-93.987l-112.688,5.575L240.342,74.433c-0.5-0.267-0.688-0.889-0.421-1.389c0.268-0.5,0.889-0.688,1.389-0.421
					l123.036,65.785l113.102-5.595l84.075,94.402l133.177,7.324l49.602,60.574c0.36,0.439,0.295,1.086-0.143,1.445
					C743.966,296.713,743.737,296.79,743.508,296.79z"/>
			</g>
			<g>
				<polygon style="fill:#42A147;" points="239.867,83.543 248.232,66.538 227.225,66.538 				"/>
			</g>
			<g>
				<circle style="fill:#42A147;" cx="364.659" cy="138.778" r="4.419"/>
			</g>
			<g>
				<circle style="fill:#42A147;" cx="477.214" cy="134.359" r="4.419"/>
			</g>
			<g>
				<circle style="fill:#42A147;" cx="560.769" cy="228.157" r="4.419"/>
			</g>
			<g>
				<circle style="fill:#42A147;" cx="695.474" cy="235.864" r="4.419"/>
			</g>
		</g>
		<g>
			<path style="fill:#92CEE0;" d="M662.058,189.663c-32.315-0.269-64.636,0.205-96.93,1.422c0.72-3.09,2.832-6.666,5.935-7.33
				c3.103-0.664,6.537,0.607,8.459,3.132c0.738-6.711,2.901-14.616,8.364-18.584s13.895-4.155,18.517,0.766
				c2.819,3,3.826,7.225,4.726,11.242c0.173-5.674,1.382-11.843,4.97-16.242c3.588-4.399,9.318-7.227,14.951-6.523
				c3.597,0.45,6.997,2.325,9.296,5.128c4.352,5.307,4.345,12.834,4.124,19.694c1.034-2.281,2.174-5.026,4.352-6.265
				c3.218-1.831,7.568-0.181,9.744,2.815S662.207,185.964,662.058,189.663z"/>
		</g>
		<g>
			<path style="fill:#92CEE0;" d="M466.473,95.98c32.315-0.269,64.636,0.205,96.93,1.422c-0.72-3.09-2.832-6.666-5.935-7.33
				c-3.103-0.664-6.537,0.607-8.459,3.132c-0.738-6.711-2.901-14.616-8.364-18.584c-5.462-3.968-13.895-4.155-18.517,0.766
				c-2.819,3-3.826,7.225-4.726,11.242c-0.173-5.674-1.382-11.843-4.97-16.242c-3.588-4.399-9.318-7.227-14.951-6.523
				c-3.597,0.449-6.997,2.325-9.296,5.128c-4.352,5.307-4.345,12.834-4.124,19.694c-1.034-2.281-2.174-5.026-4.352-6.265
				c-3.218-1.831-7.568-0.181-9.744,2.815S466.325,92.28,466.473,95.98z"/>
		</g>
		<g>
			<path style="fill:#92CEE0;" d="M80.171,85.034c26.295-0.219,52.595,0.167,78.872,1.157c-0.586-2.515-2.305-5.424-4.829-5.965
				s-5.319,0.494-6.883,2.548c-0.6-5.461-2.361-11.893-6.805-15.122c-4.445-3.229-11.306-3.381-15.068,0.623
				c-2.294,2.441-3.113,5.879-3.845,9.148c-0.141-4.617-1.124-9.637-4.044-13.216s-7.582-5.881-12.166-5.308
				c-2.927,0.366-5.693,1.892-7.564,4.173c-3.541,4.318-3.536,10.443-3.356,16.025c-0.842-1.856-1.769-4.09-3.541-5.098
				c-2.618-1.49-6.158-0.147-7.928,2.291S80.05,82.023,80.171,85.034z"/>
		</g>
		<g>
			<path style="fill:#92CEE0;" d="M215.186,161.014c-32.315-0.269-64.636,0.205-96.93,1.422c0.72-3.09,2.832-6.666,5.935-7.33
				c3.103-0.664,6.537,0.607,8.459,3.132c0.738-6.711,2.901-14.616,8.364-18.584s13.895-4.155,18.517,0.766
				c2.819,3,3.825,7.225,4.726,11.242c0.173-5.674,1.382-11.843,4.97-16.242c3.588-4.399,9.318-7.227,14.951-6.523
				c3.597,0.45,6.997,2.325,9.296,5.128c4.352,5.307,4.345,12.834,4.124,19.694c1.034-2.281,2.174-5.026,4.352-6.265
				c3.218-1.831,7.568-0.181,9.744,2.815C213.868,153.263,215.335,157.315,215.186,161.014z"/>
		</g>
		<g>
			<path style="fill:#92CEE0;" d="M715.919,302.589c-22.508-0.489-45.037-0.062-67.51,1.281c0.072-2.135,1.415-5.276,3.477-5.831
				s4.436,0.375,5.57,2.184c-0.11-0.085-0.219-0.169-0.329-0.254c3.678-11.367,13.448-20.937,25.212-23.019
				c3.552-0.629,7.268-0.662,10.708,0.422c8.36,2.636,13.512,11.48,14.496,20.19c1.721-2.196,4.688-4.143,7.229-2.991
				C717.226,295.683,716.938,300.096,715.919,302.589z"/>
		</g>
		<g>
			<path style="fill:#92CEE0;" d="M398.864,107.292c-17.956-0.39-35.928-0.049-53.856,1.022c0.057-1.703,1.129-4.209,2.774-4.652
				c1.645-0.443,3.538,0.299,4.444,1.743c-0.088-0.067-0.175-0.135-0.263-0.202c2.934-9.068,10.728-16.702,20.113-18.363
				c2.833-0.501,5.798-0.528,8.542,0.337c6.669,2.103,10.779,9.158,11.564,16.107c1.373-1.752,3.74-3.305,5.767-2.386
				C399.907,101.783,399.677,105.304,398.864,107.292z"/>
		</g>
		<g>
			<path style="fill:#92CEE0;" d="M299.191,147.078c-15.068-0.328-30.15-0.041-45.195,0.858c0.048-1.429,0.947-3.532,2.328-3.904
				c1.381-0.372,2.969,0.251,3.729,1.462c-0.073-0.057-0.147-0.113-0.22-0.17c2.462-7.61,9.003-14.016,16.879-15.41
				c2.378-0.421,4.866-0.443,7.169,0.283c5.597,1.765,9.045,7.685,9.704,13.516c1.152-1.47,3.139-2.773,4.84-2.002
				C300.066,142.455,299.873,145.409,299.191,147.078z"/>
		</g>
	</g>
</g>
</svg>
