<?xml version="1.0" encoding="utf-8"?>
<!-- Generator: Adobe Illustrator 27.5.0, SVG Export Plug-In . SVG Version: 6.00 Build 0)  -->
<svg version="1.1" xmlns="http://www.w3.org/2000/svg" xmlns:xlink="http://www.w3.org/1999/xlink" x="0px" y="0px"
	 viewBox="0 0 1100 800" style="enable-background:new 0 0 1100 800;" xml:space="preserve">
<g id="Background">
	<rect style="fill:#FFFFFF;" width="1100" height="800"/>
</g>
<g id="Shadow">
	<g style="opacity:0.5;">
		<path style="fill:#EED5D5;" d="M517.023,668.118c-29.109,0.084-58.218,0.762-87.276,3.892c-10.956,1.18-21.683,3.776-32.664,4.823
			c-21.934,2.092-43.476,5.993-65.488,7.793c-17.726,1.449-35.526,2.305-53.201,4.143c-16.571,1.724-34.916,1.326-51.359-1.522
			c-12.173-2.109-24.402-3.296-36.371-6.682c-13.389-3.789-27.934-6.498-41.884-6.4c-19.892,0.139-39.265,0.155-58.301,6.845
			c-6.683,2.348-14.863,6.209-19.938,11.137c-11.617,11.282-13.189,39.432-1.59,51.133c19.536,19.693,61.233,27.42,88.617,27.785
			c30.008,0.4,59.159-1.758,89.211-3.026c27.925-1.179,55.779-2.856,83.75-2.797c57.127,0.121,114.262,0,171.286-3.696
			c53.575-3.472,107.285-2.28,160.978-2.28c55.06,0,109.747,0.419,164.41,7.506c23.817,3.088,48.081,4.169,72.018,6.332
			c21.437,1.938,42.038-0.038,63.39-1.829c17.929-1.504,35.741-5.964,52.029-13.503c12.893-5.968,35.879-24.507,39.833-38.752
			c11.085-39.935-156.219-38.975-181.907-38.885c-28.736,0.101-57.701,1.016-86.414-0.045c-12.078-0.446-23.979-2.733-35.767-5.238
			c-11.742-2.495-23.572-1.861-35.479-2.91c-49.655-4.374-99.421-3.734-149.235-3.734
			C549.46,668.209,533.242,668.071,517.023,668.118z"/>
	</g>
</g>
<g id="Object">
	<g>
		<polygon style="fill:#FFD0BB;" points="970.59,156.374 973.294,133.396 948.327,122.731 943.684,133.344 955.441,150.623 
			958.289,161.135 		"/>
		<g>
			<g>
				<polygon style="fill:#353A85;" points="889.644,448.374 889.644,471.864 858.325,573.654 866.155,679.358 846.58,683.273 
					815.26,554.079 816.458,516.068 830.92,438.545 				"/>
				<polygon style="fill:#3C3C3C;" points="849.15,681.266 834.207,697.081 838.524,705.097 869.357,690.298 863.678,678.581 				
					"/>
				<polygon style="fill:#3C3C3C;" points="896.535,688.488 878.115,700.068 880.292,708.908 913.845,702.281 911.273,689.518 				
					"/>
				<path style="fill:#353A85;" d="M853.334,284.43l46.595-18.484c0,0,16.56,41.131,35.384,107.018
					c18.825,65.887-8.741,149.758-8.741,149.758s-106.747-25.37-128.063-29.553l26.737-120.436L853.334,284.43z"/>
				<polygon style="fill:#353A85;" points="864.8,476.187 896.27,691.511 910.575,691.511 919.609,574.062 939.184,456.612 				"/>
				<g>
					<path style="fill:#FFD0BB;" d="M851.791,219.789c12.687,0.933,24.55-9.485,37.036-6.899
						c8.119,1.682,14.528,8.883,17.006,16.999c1.155,3.783,1.564,7.906,0.434,11.667c-0.733,2.441-2.086,4.641-3.679,6.597
						c-2.13,2.614-4.733,4.785-7.624,6.453c1.588,2.559,4.124,7.841,6.147,10.072c-5.851,2.241-11.702,4.481-17.553,6.722
						c-1.293-3.362-3.302-9.59-4.595-12.953c-1.76-0.098-3.513-0.348-5.231-0.794c-10.388-2.695-19.001-11.794-21.317-22.52
						C851.33,230.108,851.538,224.912,851.791,219.789z"/>
					<polygon style="fill:#292949;" points="854.994,223.616 894.224,218.955 901.837,248.921 912.915,240.129 907.207,191.097 
						851.844,189.905 827.872,203.967 828.887,218.06 850.322,232.489 					"/>
				</g>
				<path style="fill:#FFFFFF;" d="M870.925,274.579l46.939-17.227c0,0,15.512,38.466,34.337,104.354
					c18.825,65.887-8.741,149.758-8.741,149.758s-95.489-47.182-116.805-51.366l15.479-98.623L870.925,274.579z"/>
				<path style="fill:#353A85;" d="M952.905,363.114c-18.825-65.887-35.128-107.088-35.128-107.088l-46.852,18.554l-0.076,0.238
					c1.033,2.692,2.111,5.369,3.046,8.098c3.69,10.772,6.418,21.859,8.094,33.123c2.945,19.798,3.254,40.152,2.622,60.131
					c-0.607,19.169-2.583,38.302-5.989,57.177c-4.502,24.953-11.681,49.267-20.931,72.801c43.339,8.806,94.343,19.218,94.343,19.218
					S971.73,429.001,952.905,363.114z"/>
			</g>
			<polygon style="fill:#353A85;" points="913.845,257.583 960.23,228.829 951.607,149.893 972.17,141.933 1006,232.146 
				999.367,246.739 935.786,308.097 			"/>
			<polygon style="fill:#353A85;" points="853.435,284.549 830.328,320.019 832.871,289.855 810.319,289.855 793.072,365.475 
				805.012,388.691 824.212,379.308 836.908,375.756 			"/>
			<polygon style="fill:#FFD0BB;" points="812.972,289.855 812.972,271.282 826.901,265.976 839.505,275.926 839.505,284.549 
				830.218,289.855 			"/>
		</g>
		<g>
			<path style="fill:#D67086;" d="M847.333,386.654c-0.237-1.663-0.157-3.352,0.259-4.98c1.862-7.283,19.484-97.692,19.484-97.692
				s0.57-4.631,0.571-8.64l9.497-1.965l-0.181,10.011l-3.941,4.494c0,0-4.854,97.487-4.725,99.163l-11.223,18.793L847.333,386.654z"
				/>
		</g>
	</g>
	<g>
		<polygon style="fill:#FCFCFC;" points="315.659,276.986 301.402,278.498 245.36,315.397 174.627,294.797 174.627,319.972 
			242.651,347.884 272.999,346.069 		"/>
		<polygon style="fill:#FFD0BB;" points="173.708,305.718 164.028,314.211 155.833,315.397 155.072,312.694 159.253,309.609 
			143.286,310.289 139.989,303.363 156.967,294.318 174.627,294.797 		"/>
		<g>
			<path style="fill:#333743;" d="M286.107,682.796l-14.518,10.284l-4.839,7.864c0,0,5.444,2.42,8.469,3.025
				c3.025,0.605,26.617-3.025,26.617-3.025v-13.914L286.107,682.796z"/>
			<path style="fill:#333743;" d="M350.749,689.451l7.864,7.864c0,0,6.654,10.889,3.63,10.889c-3.025,0-19.358,1.815-20.568,0
				c-1.21-1.815-10.284-7.864-11.494-9.074c-1.21-1.21-0.65-11.818-0.65-11.818L350.749,689.451z"/>
			<path style="fill:#292949;" d="M378.576,477.119l-10.284,103.444l-17.543,108.888h-21.173l-2.42-113.728
				c0,0-17.207-93.455-19.022-124.306L378.576,477.119z"/>
			<polygon style="fill:#292949;" points="262.514,478.934 280.662,687.031 302.44,687.031 309.094,580.563 321.596,486.301 
				274.008,430.539 			"/>
			<path style="fill:#F9F9F9;" d="M261.816,345.776c2.254-10.725,3.142-22.27,8.454-32.27c5.313-10.001,15.346-17.576,23.093-26.079
				c3.282-3.602,6.784-7.352,11.663-9.068c3.343-1.177,7.032-1.283,10.633-1.374c10.924-0.275,21.848-0.551,32.772-0.826
				c3.982-0.1,8.124-0.174,11.755,1.265c5.441,2.157,8.516,7.167,11.204,11.843c6.866,11.94,8.132,25.183,8.747,38.678
				c-0.021,0.127,8.522,169.501,1.746,166.321c-8.438-3.96-18.091-6.065-27.558-7.538c-13.349-2.139-26.977-3.499-40.582-3.834
				l-23.948,1.616h-14.452c-8.674,0.842-7.961,3.449-16.876,2.907C252.763,487.071,259.233,358.07,261.816,345.776z"/>
			<g>
				<path style="fill:#FFD0BB;" d="M324.566,282.464c5.421-0.235,10.843-0.471,16.264-0.706c0.292-4.318,0.238-8.659-0.16-12.968
					c4.582-1.331,9.906-3.412,10.95-8.068c0.329-1.466,0.157-2.993-0.017-4.486c-0.717-6.171-1.434-12.342-2.151-18.512
					c-0.248-2.134-0.516-4.332-1.565-6.207c-1.841-3.29-5.679-4.898-9.352-5.747c-9.374-2.168-19.802-0.69-27.484,5.102
					c-2.045,1.541-3.921,3.427-4.915,5.786c-1.534,3.638-0.768,7.787,0.022,11.656c0.729,3.571,1.458,7.141,2.187,10.712
					c0.838,4.107,2.118,8.794,5.934,10.528c2.026,0.921,4.484,0.821,6.293,2.117C323.76,273.956,323.041,278.848,324.566,282.464z"
					/>
				<path style="fill:#292949;" d="M294.529,204.04c1.204-0.215,2.432-0.469,3.676-1.01c3.927-1.709,6.68-5.138,10.85-6.742
					c8.435-3.245,19.016-2.774,27.302,0.711c7.93,3.335,18.752,4.618,25.849,9.1c2.963,1.871,5.256,4.666,6.995,7.709
					c6.025,10.543,5.283,24.578-1.82,34.427c-1.594,2.21-3.465,4.206-5.42,6.104c-4.046,3.927-8.895,8.787-14.231,10.029
					c0.135-4.704,5.235-19.276,1.842-23.326c-4.5-5.37-13.332-5.233-19.661-4.64c-7.541,0.706-13.75-1.715-21.271-1.339
					c-3.831,0.192-8.163,0.962-11.1-1.505c-3.396-2.852-10.574-11.909-12.277-15.884c-1.491-3.48-0.497-7.766,2.095-10.526
					C289.594,204.766,292.008,204.489,294.529,204.04z"/>
			</g>
		</g>
		<g>
			<polygon style="fill:#F9F9F9;" points="337.176,289.186 390.142,244.139 400.662,160.351 420.611,160.876 431.817,266.143 
				357.924,324.099 			"/>
			<polygon style="fill:#FFD0BB;" points="418.812,160.829 423.896,147.017 414.865,134.369 395.375,151.779 400.662,160.351 			"/>
		</g>
		<g>
			<path style="fill:#353A85;" d="M290.663,391.668c0-1.68,0.317-3.341,0.959-4.893c2.871-6.948,33.078-93.964,33.078-93.964
				s1.217-4.504,1.784-8.473l9.679-0.605l-1.592,9.885l-4.536,3.893c0,0-18.565,95.826-18.674,97.504l-13.763,17.021
				L290.663,391.668z"/>
		</g>
	</g>
	<g>
		<polygon style="fill:#FFD0BB;" points="475.081,391.6 457.28,404.12 456.713,423.626 469.274,422.403 477.106,409.015 
			486.655,403.87 		"/>
		<polygon style="fill:#5D66D3;" points="550.86,287.249 536.526,294.051 515.201,362.976 468.615,395.811 479.542,407.613 
			534.043,383.171 547.372,354.027 		"/>
		<polygon style="fill:#FFD0BB;" points="715.807,412.948 737.169,427.971 737.849,451.379 722.776,449.911 713.378,433.846 
			701.919,427.672 		"/>
		<polygon style="fill:#5D66D3;" points="629.52,285.066 644.002,295.958 667.664,378.599 723.568,418.001 710.455,432.164 
			645.054,402.833 629.058,367.86 		"/>
		<g>
			<g>
				<path style="fill:#19192D;" d="M542.972,693.25l15.124-13.97c4.388-2.22,9.03-3.771,12.792-3.724
					c2.732,0.034,4.998,0.911,6.365,2.984c1.313,1.991,1.58,4.612,0.685,6.737c-0.327,0.776-0.792,1.472-1.314,2.127l0.001,0
					c0,0-0.006,0.007-0.007,0.008c-0.451,0.564-0.943,1.099-1.434,1.626c-0.313,0.336-0.657,0.696-1.023,1.072
					c-3.13,3.393-8.374,8.917-10.456,10.166c-3.054,1.832-9.772,6.718-17.712,1.221c0.029-0.026,0.063-0.051,0.092-0.078
					C543.199,699.465,542.349,696.253,542.972,693.25z"/>
				<path style="fill:#FFD0BB;" d="M554.844,571.588l1.221,17.531l5.992,85.349l-5.992,9.929c0,0-1.221,7.94,7.94,7.329
					c2.725-0.182,12.377-12.454,12.377-12.454l-1.395-5.624l6.792-64.084l-0.063-18.613l3.249-20.667L554.844,571.588z"/>
			</g>
			<g>
				<path style="fill:#3C3C3C;" d="M650.72,671.578c2.815-0.885,5.438-0.75,7.54,0.917c2.019,1.601,3.177,4.202,2.974,6.684
					c-0.138,1.692-0.854,3.259-1.559,4.789c-3.652,7.916-13.896,25.815-25.649,22.534c-4.939-1.38-6.809-6.421-5.806-10.875
					C629.73,688.916,641.305,674.539,650.72,671.578z"/>
			</g>
			<path style="fill:#FFD0BB;" d="M591.479,561.35l2.047,25.243l49.553,89.219c0,0-7.123,12.444-2.605,13.525
				c4.518,1.081,17.765-2.688,17.793-16.739c-5.21-17.017-25.688-74.8-25.688-74.8l-9.589-14.911l0.141-28.021L591.479,561.35z"/>
			<path style="fill:#3B3387;" d="M647.465,476.85c0.391-7.442-1.989-26.857-4.434-33.815
				c-8.914-25.368-10.633-37.871-10.633-58.519c0-20.648,9.161-86.116,9.161-86.116l-36.81-18.933l-33.168,0.9l-21.215,7.523
				c0,0-4.456,81.832-5.729,108.379c-0.909,18.945-2.224,35.353-3.956,57.305c0,0-4.856,50.069,2.646,103.742
				c0,0,1.675,17.823,2.426,19.384c0.099,0.53,0.155,0.814,0.155,0.814s0.302,0,0.305,0.002l84.839-0.002l0-30.587
				c2.824-9.818,5.507-19.679,8.077-29.566C642.395,504.796,646.739,490.661,647.465,476.85z"/>
			<path style="fill:#5D66D3;" d="M629.52,285.066l14.482,10.891c0,0-11.017,75.401-11.604,88.559
				c-0.588,13.158,16.369,65.738,16.369,65.738l-70.236,9.161c0,0-10.331-56.153-13.303-84.049
				c-2.973-27.896,39.522-95.9,39.522-95.9L629.52,285.066z"/>
			<path style="fill:#5D66D3;" d="M559.107,283.743l-14.334,6.802c0,0,2.016,83.82-1.659,105.11
				c-2.24,12.977-10.963,55.001-10.963,55.001l22.682,7.762c0,0,13.964-52.566,16.739-80.462
				c2.775-27.896-0.248-97.267-0.248-97.267L559.107,283.743z"/>
			<g>
				<g>
					<path style="fill:#292949;" d="M561.888,253.037c-1.861,7.202,2.411,14.316,6.15,20.39c1.527,2.482,3.894,5.934,1.924,8.767
						c-2.206,3.171-7.686,2.536-10.097,0.165c-1.702-1.674-2.539-3.944-3.265-6.158c-3.254-9.918-7.798-23.812-6.909-34.238
						c0.713-8.36,10.965-23.206,21.526-17.895c1.917,0.964,3.147,2.776,4.198,4.557c0.628,1.063,1.234,2.178,1.359,3.392
						c0.498,4.84-4.17,6.086-7.237,8.688C565.755,243.913,563.077,248.438,561.888,253.037z"/>
					<path style="fill:#FFD0BB;" d="M579.512,278.908c-7.053-0.896-12.95-5.827-16.105-11.763
						c-3.155-5.936-3.908-12.766-3.785-19.426c0.411-22.164,29.801-23.395,41.228-7.467
						C610.809,254.133,600.021,281.513,579.512,278.908z"/>
					<path style="fill:#292949;" d="M599.575,250.714c0.242,2.684,1.608,5.53,1.984,8.287c0.693,5.076-0.444,11.662,1.414,16.3
						c5.154-0.706,11.421-3.93,15.239-7.466c3.9-3.612,3.198-8.983,4.07-14.303c0.806-4.921,1.834-9.867,1.553-14.846
						c-1.539-27.259-28.741-42.165-52.707-29.869c-9.067,4.652-13.032,16.475-6.363,24.244c7.173,8.356,21.748,4.733,30.338,10.932
						C597.01,245.369,598.476,247.84,599.575,250.714z"/>
				</g>
				<path style="fill:#FFD0BB;" d="M578.921,276.621c0.358,1.65,0.716,3.3,1.073,4.95c0.164,0.757,0.102,2.922,0.754,3.44
					c0.34,0.27,0.844,0.23,1.289,0.176c1.274-0.156,12.68-1.609,12.556-2.334c-0.333-1.945-0.706-3.85-1.313-5.708
					c-0.49-1.501-0.677-4.324-1.583-5.463c-1.937,1.325-3.94,2.144-6.222,2.791c-2.202,0.624-4.415,1.212-6.638,1.763
					C578.866,276.365,578.893,276.493,578.921,276.621z"/>
			</g>
		</g>
	</g>
	<g>
		<g>
			<g>
				<path style="fill:#E0E0E0;" d="M572.552,696.315c-0.01-5.978-4.163-10.969-9.735-12.293c0.26-1.099,0.363-2.263,0.283-3.497
					c-0.127-1.964-0.833-3.879-1.755-5.602c-2.393-4.472-6.952-7.275-11.229-10.002c-4.571-2.914-9.146-6.068-12.315-10.466
					c-6.033-8.373-1.055-17.733-4.498-26.671c-2.462-6.391-6.366-8.138-11.419-8.847l-0.559-5.035
					c14.326,0.34,25.121,0.245,26.193-0.754c0.929-0.866,1.823-7.461,2.102-17.7c0,0,18.377-4.201,18.391-4.204
					c5.849-1.402-3.651-65.73-4.954-71.573c-6.445-28.909-22.774-53.808-45.399-71.327c-10.45-8.092-22.244-14.61-35.027-19.221
					c-1.703-0.615-12.613-1.52-13.093-2.165l-18.727-25.133c-0.982-1.318-3.224-0.925-3.271,0.573l-0.904,28.561
					c-23.953,6.315-40.308,17.17-40.308,17.17s1.845,4.041,6.15,13.47c4.305,9.429-21.668,52.37-21.668,52.37l18.453,26.156
					c0,0,16.337,0.129,17.511-7.995c1.174-8.124,6.263-14.805,6.263-14.805l46.271-9.18l-1.345,7.75l-46.361,68.08
					c-0.672,0.986-0.789,2.249-0.309,3.341l9.227,21.045c0.524,1.194,1.671,1.993,2.973,2.068
					c3.908,0.223,12.874,0.727,23.989,1.291l-0.582,6.231c-4.922,0.885-9.051,3.22-11.212,8.877
					c-3.414,8.949,1.594,18.293-4.412,26.685c-3.155,4.408-7.719,7.577-12.281,10.506c-4.268,2.741-8.817,5.558-11.197,10.039
					c-2.017,3.797-2.38,7.166-1.511,10.152c-5.633,1.294-9.834,6.333-9.824,12.358l0,0.256c0.011,6.997,5.693,12.66,12.69,12.649
					l130.751-0.211c6.997-0.011,12.66-5.693,12.649-12.69L572.552,696.315z"/>
				<polygon style="opacity:0.16;fill:#8C8E90;" points="467.482,611.718 521.326,613.901 521.885,618.936 467.482,613.525 				"/>
				<path style="opacity:0.16;fill:#8C8E90;" d="M549.621,595.447c1.226-0.279-2.867-31.465-3.304-34.615
					c-1.637-11.806-3.938-23.544-7.394-34.961c-7.066-23.343-18.922-45.892-38.357-61.157
					c-13.474-10.583-30.471-19.913-48.187-19.726c13.302-0.141,27.27,1.542,39.924,5.656c22.572,7.34,37.713,28.862,48.302,48.946
					c9.88,18.738,16.21,39.343,18.54,60.398c0.264,2.387,4.054,32.132,2.499,32.71C561.643,592.699,549.623,595.446,549.621,595.447
					z"/>
			</g>
		</g>
	</g>
	<g>
		<g>
			<g>
				<path style="fill:#292949;" d="M314.949,671.152c0.4-1.687,0.56-3.474,0.437-5.369c-0.196-3.015-1.285-5.955-2.707-8.599
					c-3.692-6.864-10.724-11.167-17.321-15.353c-7.051-4.473-14.108-9.315-18.996-16.066c-9.306-12.853-1.627-27.221-6.939-40.94
					c-3.798-9.811-9.82-12.493-17.614-13.58L237.993,447.29l8.05-0.013c3.778-0.006,19.675-4.141,19.668-8.528l0-0.16
					c-0.007-4.387-3.076-7.939-6.853-7.932l-3.16,0.005c0.346-0.74,0.545-1.562,0.544-2.433l0-0.116
					c-0.005-3.177-2.597-5.748-5.789-5.743l-15.234,0.024l-2.179-19.544l16.424-0.026c3.192-0.005,5.776-2.584,5.771-5.761l0-0.116
					c-0.005-3.177-2.597-5.748-5.789-5.743l-5.305,0.009l40.111-66.879c2.672-5.918-0.788-12.785-7.151-14.194l-27.772-6.152
					c-4.313-0.955-8.654-1.739-13.009-2.386l-0.002-1.027c-0.01-6.049-4.945-10.945-11.024-10.935l-0.559,0.001l-3.243-13.428
					l25.622-0.041c3.438-0.005,6.221-2.784,6.215-6.205l-0.046-28.215c-0.005-3.421-2.797-6.19-6.235-6.185l-22.01,0.035
					l3.995-27.368c0.177-1.213-0.25-2.436-1.144-3.279l-16.51-15.566c-1.464-1.381-3.76-1.377-5.22,0.008l-16.46,15.619
					c-0.891,0.846-1.314,2.07-1.133,3.282l4.084,27.355l-22.01,0.035c-3.438,0.006-6.221,2.783-6.215,6.205l0.046,28.215
					c0.006,3.421,2.797,6.19,6.235,6.185l25.622-0.041l-3.199,13.439l-0.404,0.001c-6.078,0.01-10.998,4.921-10.988,10.97
					l0.001,0.834c-5.125,0.745-10.228,1.7-15.293,2.871l-25.676,5.935c-6.325,1.462-9.726,8.317-7.045,14.204l38.793,66.822
					l-5.486,0.009c-3.192,0.005-5.776,2.585-5.771,5.761l0,0.116c0.005,3.177,2.597,5.748,5.79,5.743l15.605-0.025l-1.835,19.55
					l-12.782,0.021c-3.192,0.005-5.776,2.584-5.771,5.761l0,0.116c0.001,0.871,0.203,1.692,0.552,2.431l-1.492,0.003
					c-3.778,0.006-6.834,3.567-6.827,7.954l0,0.16c0.007,4.387,15.478,8.472,19.256,8.466l4.726-0.008l-11.486,122.345
					c-7.592,1.358-13.962,4.943-17.295,13.626c-5.267,13.737,2.459,28.08-6.806,40.962c-4.867,6.767-11.907,11.631-18.944,16.127
					c-6.584,4.207-13.601,8.532-17.271,15.409c-3.11,5.829-3.672,11-2.331,15.583c-8.689,1.987-15.169,9.721-15.154,18.969
					l0.001,0.393c0.017,10.74,8.781,19.433,19.574,19.416l201.684-0.324c10.793-0.017,19.528-8.738,19.511-19.479l-0.001-0.393
					C329.951,680.845,323.544,673.184,314.949,671.152z"/>
			</g>
		</g>
	</g>
	<path style="fill:#E0E0E0;" d="M973.524,684.906c0.292-1.174,0.416-2.42,0.344-3.744c-0.115-2.106-0.854-4.166-1.827-6.021
		c-2.527-4.818-7.404-7.873-11.978-10.842c-4.888-3.173-9.778-6.603-13.141-11.35c-3.441-4.859-10.394-39.052-16.089-69.642
		l17.437,0.181c3.562,0.037,5.697-4.014,3.597-6.891c-4.866-6.668-10.478-12.302-16.641-16.7
		c10.883-8.791,17.902-22.195,18.058-37.277c0.278-26.809-21.229-48.768-48.037-49.046c-26.809-0.278-48.768,21.229-49.046,48.037
		c-0.156,15.082,6.582,28.629,17.28,37.644c-6.253,4.269-11.981,9.786-16.984,16.351c-2.159,2.833-0.109,6.928,3.453,6.965
		l16.386,0.17c-5.821,30.079-12.894,63.522-16.403,68.295c-3.446,4.687-8.395,8.031-13.339,11.118
		c-4.626,2.889-9.554,5.856-12.166,10.629c-2.213,4.045-2.642,7.651-1.74,10.86c-6.078,1.323-10.657,6.675-10.713,13.129
		l-0.003,0.275c-0.066,7.496,5.987,13.627,13.521,13.693l134.613,1.172c7.534,0.067,13.693-5.957,13.759-13.453l0.002-0.274
		C983.924,691.78,979.508,686.386,973.524,684.906z"/>
	<g>
		<path style="fill:#E0E0E0;" d="M783.337,682.203c0.321-1.292,0.458-2.663,0.379-4.119c-0.126-2.317-0.939-4.583-2.009-6.623
			c-2.78-5.3-8.144-8.661-13.176-11.927c-5.378-3.491-10.756-7.264-14.457-12.486c-3.297-4.656-14.205-88.863-16.565-131.47h20.841
			v-12.037h11.671l4.354-66.346h-29.068l-4.354,19.799h-15.957v-19.799h-38.654v19.799h-15.842l-4.355-19.799h-32.086l7.258,66.346
			h11.671v12.037h21.765c-3.367,42.995-13.029,124.816-16.373,129.366c-3.79,5.156-9.235,8.835-14.674,12.231
			c-5.088,3.178-10.51,6.443-13.383,11.693c-2.434,4.45-2.906,8.416-1.914,11.946c-6.687,1.456-11.724,7.343-11.785,14.443
			l-0.003,0.303c-0.072,8.246,6.586,14.991,14.873,15.063l148.084,1.289c8.287,0.073,15.063-6.553,15.136-14.8l0.002-0.302
			C794.778,689.765,789.92,683.832,783.337,682.203z"/>
		<g>
			<polygon style="opacity:0.16;fill:#8C8E90;" points="674.806,515.578 738.214,525.589 737.562,515.578 			"/>
		</g>
	</g>
</g>
</svg>
