<?xml version="1.0" standalone="no"?>
<!DOCTYPE svg PUBLIC "-//W3C//DTD SVG 20010904//EN"
 "http://www.w3.org/TR/2001/REC-SVG-20010904/DTD/svg10.dtd">
<svg version="1.0" xmlns="http://www.w3.org/2000/svg"
 width="100.000000pt" height="100.000000pt" viewBox="0 0 100.000000 100.000000"
 preserveAspectRatio="xMidYMid meet">
<metadata>
Created by potrace 1.16, written by Peter Selinger 2001-2019
</metadata>
<g transform="translate(0.000000,100.000000) scale(0.100000,-0.100000)"
fill="#000000" stroke="none">
<path d="M462 961 c-20 -29 -39 -43 -70 -52 -23 -6 -45 -16 -48 -21 -3 -5 6
-26 20 -47 20 -28 26 -49 26 -90 l0 -53 33 8 c17 4 50 8 72 8 22 0 55 -4 73
-8 l32 -8 0 51 c0 39 6 60 24 84 39 54 39 54 -14 72 -37 12 -57 27 -77 56 -16
21 -31 39 -36 39 -4 0 -20 -18 -35 -39z"/>
<path d="M123 845 c-24 -32 -42 -45 -77 -55 -25 -7 -46 -18 -46 -24 0 -6 14
-29 30 -50 24 -31 30 -50 30 -88 0 -48 0 -48 28 -42 15 4 37 11 49 15 14 5 38
3 64 -6 23 -8 45 -15 50 -15 5 0 9 24 9 53 1 42 6 59 30 91 16 21 27 42 25 46
-2 4 -25 13 -50 20 -33 9 -50 21 -65 45 -35 56 -42 57 -77 10z"/>
<path d="M809 847 c-24 -35 -41 -48 -76 -57 -24 -7 -46 -16 -48 -20 -2 -4 9
-25 25 -46 24 -32 29 -49 30 -91 0 -29 4 -53 9 -53 5 0 27 7 50 15 26 9 50 11
64 6 12 -4 34 -11 50 -15 27 -6 27 -6 27 42 0 38 6 57 30 88 16 21 30 44 30
50 0 6 -21 17 -46 24 -34 10 -53 24 -79 57 l-34 45 -32 -45z"/>
<path d="M393 630 c-40 -18 -43 -22 -43 -60 l0 -40 -105 0 -106 0 3 -87 3 -87
175 -32 175 -32 177 32 178 31 0 88 0 87 -99 0 -100 0 -3 41 c-3 39 -6 43 -48
60 -61 24 -153 24 -207 -1z"/>
<path d="M140 150 l0 -150 355 0 355 0 0 150 c0 135 -2 150 -17 150 -10 0 -84
-12 -165 -27 l-148 -26 0 -34 c0 -29 -3 -33 -25 -33 -22 0 -25 4 -25 33 l0 34
-148 26 c-81 15 -155 27 -165 27 -15 0 -17 -15 -17 -150z"/>
</g>
</svg>
