<?xml version="1.0" encoding="UTF-8"?>
<svg version="1.1" xmlns="http://www.w3.org/2000/svg" width="100" height="100">
<path d="M0 0 C7.98675379 0.66556282 15.46097496 1.48575173 23.25 3.0625 C24.19746094 3.24876953 25.14492188 3.43503906 26.12109375 3.62695312 C28.41528088 4.07883847 30.70812907 4.53653706 33 5 C33 7.31 33 9.62 33 12 C34.65 12 36.3 12 38 12 C38 9.69 38 7.38 38 5 C42.3733353 4.15776784 46.74890966 3.32778805 51.125 2.5 C52.3625 2.26152344 53.6 2.02304688 54.875 1.77734375 C56.07382813 1.55175781 57.27265625 1.32617188 58.5078125 1.09375 C59.60754395 0.88427734 60.70727539 0.67480469 61.84033203 0.45898438 C65 0 65 0 71 0 C71 9.9 71 19.8 71 30 C47.57 30 24.14 30 0 30 C0 20.1 0 10.2 0 0 Z " fill="#A460D7" transform="translate(14,70)"/>
<path d="M0 0 C1.24210545 0.64223765 2.4772869 1.2995149 3.6875 2 C3.6875 4.64 3.6875 7.28 3.6875 10 C10.2875 10 16.8875 10 23.6875 10 C23.6875 15.94 23.6875 21.88 23.6875 28 C19.10422805 28.91252996 14.52232369 29.80975325 9.93017578 30.67333984 C8.37523026 30.96996278 6.82175323 31.27441154 5.27001953 31.58740234 C-5.16475744 33.68515001 -13.7512553 34.20730333 -24.3125 32 C-26.35986373 31.65015425 -28.40801988 31.30490658 -30.45703125 30.96484375 C-32.34684526 30.62511642 -34.23618012 30.28271169 -36.125 29.9375 C-37.59163086 29.67743164 -37.59163086 29.67743164 -39.08789062 29.41210938 C-40.01408203 29.24388672 -40.94027344 29.07566406 -41.89453125 28.90234375 C-42.72186768 28.75273193 -43.5492041 28.60312012 -44.40161133 28.44897461 C-46.3125 28 -46.3125 28 -47.3125 27 C-47.38580331 24.13530675 -47.40467831 21.30106326 -47.375 18.4375 C-47.3440625 14.2609375 -47.3440625 14.2609375 -47.3125 10 C-40.3825 10 -33.4525 10 -26.3125 10 C-26.3125 7.36 -26.3125 4.72 -26.3125 2 C-18.05334028 -3.18221786 -9.04034603 -3.99258184 0 0 Z M-20.3125 6 C-20.3125 7.32 -20.3125 8.64 -20.3125 10 C-14.7025 10 -9.0925 10 -3.3125 10 C-3.3125 8.68 -3.3125 7.36 -3.3125 6 C-6.39756088 4.97164637 -8.5819272 4.86631566 -11.8125 4.875 C-12.7715625 4.87242188 -13.730625 4.86984375 -14.71875 4.8671875 C-17.42821152 4.89007028 -17.42821152 4.89007028 -20.3125 6 Z " fill="#A460D7" transform="translate(61.3125,37)"/>
<path d="M0 0 C0.66 1.0725 1.32 2.145 2 3.25 C5.20523848 8.02396547 9.68659968 9.33891757 15 11 C11.125 17.875 11.125 17.875 10 19 C9.76636119 20.84891946 9.58696365 22.70488031 9.4375 24.5625 C9.35371094 25.57441406 9.26992188 26.58632813 9.18359375 27.62890625 C9.09271484 28.80259766 9.09271484 28.80259766 9 30 C8.07058594 29.91621094 7.14117187 29.83242188 6.18359375 29.74609375 C-2.95417654 28.95821743 -2.95417654 28.95821743 -12 30 C-12.02578125 29.27554687 -12.0515625 28.55109375 -12.078125 27.8046875 C-12.44862915 21.48927581 -13.23338914 18.02214781 -17 13 C-16.67 12.01 -16.34 11.02 -16 10 C-14.00390625 9.4453125 -14.00390625 9.4453125 -11.5625 9.125 C-9.13071316 8.71897831 -9.13071316 8.71897831 -7 8 C-5.51953703 5.63276087 -5.51953703 5.63276087 -5 3 C-2.51724138 0 -2.51724138 0 0 0 Z " fill="#A460D7" transform="translate(51,0)"/>
<path d="M0 0 C3.82117647 3.68941176 3.82117647 3.68941176 5.1875 6.0625 C8.09400831 9.16945716 11.978301 9.887077 16 11 C15.40227785 13.92634801 14.88033073 15.15706592 13 17.625 C10.38015987 22.04598022 10.19982916 25.94432216 10 31 C9.31035156 30.83242188 8.62070313 30.66484375 7.91015625 30.4921875 C1.20153136 29.03819198 -3.41457384 29.05675949 -10 31 C-10.01417969 30.28714844 -10.02835937 29.57429688 -10.04296875 28.83984375 C-10.38675404 21.93626349 -11.46195768 18.23620268 -16 13 C-15.67 12.34 -15.34 11.68 -15 11 C-13.61845924 10.575358 -12.21860074 10.20944942 -10.8125 9.875 C-5.26631257 8.18279265 -2.92119036 4.822828 0 0 Z " fill="#A460D7" transform="translate(84,11)"/>
<path d="M0 0 C2.64752004 2.57784846 4.94432065 4.91648098 7 8 C9.4060889 9.22844823 9.4060889 9.22844823 12.125 10.1875 C13.03507812 10.53167969 13.94515625 10.87585937 14.8828125 11.23046875 C15.58148437 11.48441406 16.28015625 11.73835938 17 12 C13.125 18.875 13.125 18.875 12 20 C11.76636119 21.84891946 11.58696365 23.70488031 11.4375 25.5625 C11.35371094 26.57441406 11.26992188 27.58632813 11.18359375 28.62890625 C11.09271484 29.80259766 11.09271484 29.80259766 11 31 C10.31035156 30.83242188 9.62070312 30.66484375 8.91015625 30.4921875 C2.20153136 29.03819198 -2.41457384 29.05675949 -9 31 C-9.01417969 30.35933594 -9.02835938 29.71867187 -9.04296875 29.05859375 C-9.41129125 22.37901544 -10.86451444 19.19586647 -15 14 C-15 13.01 -15 12.02 -15 11 C-14.33613281 10.79246094 -13.67226562 10.58492187 -12.98828125 10.37109375 C-6.44226089 8.0871538 -3.47212296 6.01834647 0 0 Z " fill="#A460D7" transform="translate(15,11)"/>
</svg>
