<?xml version="1.0" encoding="UTF-8"?>
<svg version="1.1" xmlns="http://www.w3.org/2000/svg" width="100" height="100">
<path d="M0 0 C33 0 66 0 100 0 C100 33 100 66 100 100 C67 100 34 100 0 100 C0 67 0 34 0 0 Z " fill="#FDFCFE" transform="translate(0,0)"/>
<path d="M0 0 C10.14255983 1.12695109 10.14255983 1.12695109 14.62109375 1.9375 C15.57564453 2.11023438 16.53019531 2.28296875 17.51367188 2.4609375 C18.47853516 2.63882813 19.44339844 2.81671875 20.4375 3 C21.42943359 3.17789063 22.42136719 3.35578125 23.44335938 3.5390625 C24.38888672 3.71179688 25.33441406 3.88453125 26.30859375 4.0625 C27.16251709 4.21847656 28.01644043 4.37445313 28.89624023 4.53515625 C31 5 31 5 33 6 C33 7.98 33 9.96 33 12 C34.98 12 36.96 12 39 12 C39 9.69 39 7.38 39 5 C41.7079735 4.53946029 44.41635526 4.08156249 47.125 3.625 C47.86621094 3.49867187 48.60742188 3.37234375 49.37109375 3.2421875 C56.56907738 2.03244235 63.76618258 1.03340249 71 0 C71 9.9 71 19.8 71 30 C47.57 30 24.14 30 0 30 C0 20.1 0 10.2 0 0 Z " fill="#A765D8" transform="translate(14,70)"/>
<path d="M0 0 C0 2.64 0 5.28 0 8 C6.93 8 13.86 8 21 8 C21 13.61 21 19.22 21 25 C19.60007812 25.26554687 18.20015625 25.53109375 16.7578125 25.8046875 C14.88020356 26.1614332 13.00259966 26.51820546 11.125 26.875 C10.2071875 27.04902344 9.289375 27.22304687 8.34375 27.40234375 C7.42851563 27.57636719 6.51328125 27.75039062 5.5703125 27.9296875 C4.64250977 28.10467773 3.71470703 28.27966797 2.75878906 28.45996094 C0.96466143 28.81116539 -0.82556557 29.18315016 -2.61035156 29.57910156 C-13.42037546 31.95203364 -22.60297817 30.58873979 -33.4375 28.5625 C-34.71560547 28.33240234 -35.99371094 28.10230469 -37.31054688 27.86523438 C-46.70453477 26.14773261 -46.70453477 26.14773261 -49 25 C-49 19.39 -49 13.78 -49 8 C-42.4 8 -35.8 8 -29 8 C-29 5.36 -29 2.72 -29 0 C-18.51688362 -5.67202432 -10.63596437 -5.06905536 0 0 Z " fill="#A661D7" transform="translate(64,39)"/>
<path d="M0 0 C0.66 0 1.32 0 2 0 C2.66 1.0725 3.32 2.145 4 3.25 C7.20523848 8.02396547 11.68659968 9.33891757 17 11 C16.65066406 11.44988281 16.30132812 11.89976563 15.94140625 12.36328125 C11.88357762 18.09941861 11.14049435 23.05191569 11 30 C9.2675 29.4740625 9.2675 29.4740625 7.5 28.9375 C1.71457659 27.4808863 -3.28067067 28.51955413 -9 30 C-9.03867188 28.78763672 -9.03867188 28.78763672 -9.078125 27.55078125 C-9.47331292 19.49437715 -9.47331292 19.49437715 -14 13 C-13.67 12.01 -13.34 11.02 -13 10 C-11.00390625 9.4453125 -11.00390625 9.4453125 -8.5625 9.125 C-6.13348611 8.71835358 -6.13348611 8.71835358 -4 8 C-2.44150449 5.64653258 -2.44150449 5.64653258 -2 3 C-1.34 2.01 -0.68 1.02 0 0 Z " fill="#A764D8" transform="translate(83,12)"/>
<path d="M0 0 C2.64752004 2.57784846 4.94432065 4.91648098 7 8 C9.17897492 9.00805555 9.17897492 9.00805555 11.625 9.6875 C12.44226563 9.93886719 13.25953125 10.19023437 14.1015625 10.44921875 C14.72804688 10.63097656 15.35453125 10.81273437 16 11 C14.92598892 13.91517292 14.22189824 15.77810176 12 18 C11.53603307 20.89223503 11.53603307 20.89223503 11.375 24.125 C11.30023438 25.22070312 11.22546875 26.31640625 11.1484375 27.4453125 C11.09945312 28.28835937 11.05046875 29.13140625 11 30 C10.43152344 29.84402344 9.86304687 29.68804688 9.27734375 29.52734375 C2.6644871 27.8603298 -2.41272422 28.32817513 -9 30 C-9.01417969 29.28714844 -9.02835938 28.57429688 -9.04296875 27.83984375 C-9.38675404 20.93626349 -10.46195768 17.23620268 -15 12 C-12.85131191 9.85131191 -11.42737079 9.31136302 -8.625 8.25 C-4.03104705 6.29701517 -2.28931885 4.3795665 0 0 Z " fill="#A765D8" transform="translate(49,0)"/>
<path d="M0 0 C5 5 5 5 6.40625 6.5625 C8.25064777 8.22607446 9.84809829 8.8821322 12.1875 9.6875 C13.26064453 10.06455078 13.26064453 10.06455078 14.35546875 10.44921875 C14.89816406 10.63097656 15.44085937 10.81273437 16 11 C14.79618552 13.49361571 13.54571278 15.68143083 12 18 C11.54084493 20.96842658 11.54084493 20.96842658 11.375 24.1875 C11.30023437 25.27417969 11.22546875 26.36085938 11.1484375 27.48046875 C11.09945313 28.31191406 11.05046875 29.14335938 11 30 C9.9275 29.649375 8.855 29.29875 7.75 28.9375 C2.13457711 27.49324555 -3.31390298 28.2987147 -9 29 C-9.01417969 28.3709375 -9.02835938 27.741875 -9.04296875 27.09375 C-9.41160259 20.47826706 -11.00937787 16.27174436 -15 11 C-13.87851563 10.56300781 -13.87851563 10.56300781 -12.734375 10.1171875 C-6.71527939 7.61185713 -2.90736055 5.95316684 0 0 Z " fill="#A764D8" transform="translate(15,12)"/>
<path d="M0 0 C0.639375 0.33 1.27875 0.66 1.9375 1 C1.9375 2.32 1.9375 3.64 1.9375 5 C-4.0025 5 -9.9425 5 -16.0625 5 C-15.7325 3.35 -15.4025 1.7 -15.0625 0 C-10.06597926 -1.66550691 -5.00477317 -1.63421165 0 0 Z " fill="#F9F5FC" transform="translate(57.0625,42)"/>
</svg>
