<svg width="786" height="502" viewBox="0 0 786 502" fill="none" xmlns="http://www.w3.org/2000/svg">
<path opacity="0.3" d="M476.561 338.544C426.171 456.391 293.157 507.009 188.938 498.379C160.483 496.022 103.229 491.281 58.5244 448.982C-27.3272 367.75 -14.1052 197.952 68.0794 97.9838C78.6631 85.1101 151.922 -1.14311 266.082 0.0114853C349.663 0.856783 408.328 48.0971 415.462 53.9825C424.473 61.4172 444.349 79.0842 462.262 107.112C504.35 172.967 508.05 264.902 476.561 338.544Z" fill="url(#paint0_linear_676_690)"/>
<path d="M59.6978 264.904C59.6978 380.693 157.059 474.558 277.159 474.558C397.26 474.558 500 376.591 500 260.803C500 145.014 397.26 55.25 277.159 55.25C157.059 55.25 59.6978 149.116 59.6978 264.904Z" fill="url(#paint1_linear_676_690)"/>
<path d="M482.927 213.927C483.057 213.927 483.186 213.913 483.315 213.879C484.116 213.672 484.593 212.881 484.381 212.106C482.04 203.635 479.051 195.231 475.495 187.13C475.171 186.395 474.286 186.058 473.527 186.361C472.763 186.675 472.407 187.523 472.73 188.261C476.231 196.235 479.175 204.508 481.477 212.852C481.656 213.5 482.265 213.927 482.927 213.927Z" fill="white"/>
<path d="M449.696 148.409C450.009 148.409 450.327 148.313 450.599 148.118C451.26 147.637 451.392 146.727 450.894 146.09C410.603 94.58 345.704 63.8301 277.289 63.8301C248.07 63.8301 219.809 69.5421 193.293 80.8013C192.534 81.1238 192.19 81.9806 192.524 82.7101C192.857 83.4422 193.744 83.7733 194.504 83.4537C220.636 72.3529 248.49 66.7256 277.289 66.7256C344.767 66.7256 408.768 97.0458 448.495 147.832C448.791 148.211 449.239 148.409 449.696 148.409Z" fill="white"/>
<path d="M89.2842 264.904C89.2842 365.132 173.561 446.383 277.521 446.383C381.481 446.383 470.414 361.582 470.414 261.354C470.414 161.126 381.481 83.4253 277.521 83.4253C173.561 83.4253 89.2842 164.676 89.2842 264.904Z" fill="url(#paint2_linear_676_690)"/>
<path d="M89.2847 264.904C89.2847 164.676 173.561 83.4253 277.521 83.4253C333.815 83.4253 385.695 106.217 421.442 143.024L276.438 259.344L246.629 443.936C157.368 429.726 89.2847 354.987 89.2847 264.904Z" fill="url(#paint3_linear_676_690)"/>
<path d="M114.906 252.288C114.906 342.742 192.545 416.069 288.316 416.069C384.087 416.069 466.014 339.538 466.014 249.084C466.014 158.63 384.087 88.5068 288.316 88.5068C192.545 88.5068 114.906 161.834 114.906 252.288Z" fill="url(#paint4_linear_676_690)"/>
<path opacity="0.78" d="M422.311 255.492C422.776 263.195 429.63 269.077 437.621 268.628C445.611 268.18 451.712 261.571 451.246 253.868C450.781 246.165 443.927 240.283 435.936 240.732C427.946 241.18 421.846 247.788 422.311 255.492Z" fill="white"/>
<path opacity="0.78" d="M109.214 273.061C109.679 280.764 116.534 286.646 124.524 286.197C132.514 285.749 138.615 279.14 138.149 271.437C137.684 263.734 130.83 257.852 122.84 258.301C114.849 258.749 108.749 265.357 109.214 273.061Z" fill="white"/>
<path opacity="0.78" d="M305.801 398.442C297.927 399.829 292.71 407.107 294.149 414.697C295.587 422.288 303.136 427.318 311.009 425.932C318.883 424.545 324.099 417.267 322.661 409.677C321.223 402.085 313.675 397.056 305.801 398.442Z" fill="white"/>
<path opacity="0.78" d="M249.449 100.997C241.575 102.384 236.358 109.661 237.797 117.252C239.235 124.844 246.783 129.873 254.657 128.486C262.53 127.1 267.747 119.822 266.31 112.231C264.872 104.64 257.323 99.611 249.449 100.997Z" fill="white"/>
<path opacity="0.78" d="M202.77 406.428C201.297 410.01 201.665 413.365 203.592 413.92C205.518 414.475 208.275 412.022 209.747 408.44C211.22 404.858 210.852 401.503 208.925 400.947C206.999 400.392 204.242 402.846 202.77 406.428Z" fill="white"/>
<path opacity="0.78" d="M328.728 124.302C327.256 127.884 327.624 131.238 329.55 131.793C331.477 132.349 334.233 129.895 335.706 126.313C337.178 122.731 336.811 119.376 334.884 118.821C332.957 118.266 330.201 120.72 328.728 124.302Z" fill="white"/>
<path opacity="0.78" d="M137.002 352.796C133.815 355.121 132.322 358.172 133.67 359.611C135.018 361.051 138.694 360.333 141.882 358.009C145.07 355.684 146.562 352.633 145.215 351.194C143.867 349.755 140.19 350.472 137.002 352.796Z" fill="white"/>
<path opacity="0.78" d="M396.594 174.732C393.407 177.057 391.914 180.108 393.262 181.547C394.609 182.987 398.286 182.269 401.474 179.945C404.662 177.62 406.154 174.569 404.806 173.13C403.459 171.691 399.782 172.409 396.594 174.732Z" fill="white"/>
<path opacity="0.78" d="M128.742 193.053C125.134 191.396 121.638 191.526 120.934 193.342C120.23 195.158 122.584 197.973 126.193 199.63C129.802 201.286 133.298 201.157 134.002 199.341C134.706 197.525 132.351 194.709 128.742 193.053Z" fill="white"/>
<path opacity="0.78" d="M412.283 333.112C408.675 331.455 405.178 331.584 404.475 333.4C403.77 335.217 406.125 338.032 409.734 339.689C413.342 341.345 416.839 341.215 417.543 339.4C418.247 337.584 415.892 334.768 412.283 333.112Z" fill="white"/>
<path opacity="0.78" d="M188.651 133.381C186.459 130.158 183.402 128.519 181.822 129.719C180.242 130.919 180.739 134.504 182.93 137.726C185.122 140.948 188.18 142.588 189.759 141.388C191.339 140.188 190.843 136.603 188.651 133.381Z" fill="white"/>
<path opacity="0.78" d="M355.545 395.015C353.353 391.793 350.295 390.154 348.716 391.354C347.137 392.553 347.633 396.138 349.825 399.36C352.016 402.583 355.074 404.222 356.654 403.022C358.234 401.822 357.737 398.238 355.545 395.015Z" fill="white"/>
<path d="M283.383 259.28L399.802 315.259C402.058 316.343 404.698 314.714 404.621 312.286L404.164 297.837C404.075 295.027 407.509 293.47 409.698 295.329L493.873 366.781C496.448 368.967 494.33 373.026 490.975 372.335L382.561 350.017C379.967 349.483 379.028 346.382 380.917 344.587L393.609 332.52C395.178 331.029 394.841 328.507 392.931 327.447L280.233 264.941C278.664 264.071 278.102 262.151 278.969 260.618C279.827 259.1 281.778 258.509 283.383 259.28Z" fill="url(#paint5_linear_676_690)"/>
<path d="M480.785 366.447C481.867 366.447 482.847 365.864 483.341 364.883C483.932 363.709 483.628 362.367 482.586 361.535L464.166 346.854C463.527 346.345 462.579 346.433 462.052 347.049C461.523 347.666 461.614 348.576 462.253 349.088L480.673 363.769C456.13 358.365 398.647 346.288 397.454 346.173C396.649 346.083 395.892 346.668 395.807 347.465C395.726 348.251 396.309 348.953 397.116 349.049C398.839 349.314 442.891 358.544 480.148 366.379C480.363 366.424 480.575 366.447 480.785 366.447Z" fill="white"/>
<path d="M271.239 253.767L271.47 144.024C271.432 141.595 268.717 140.084 266.516 141.267L253.42 148.305C250.872 149.674 247.859 147.45 248.563 144.722L275.649 39.7957C276.477 36.5862 281.19 36.5316 282.097 39.7221L311.414 142.795C312.115 145.261 309.691 147.491 307.168 146.7L290.217 141.385C288.121 140.728 285.954 142.177 285.857 144.3L277.901 253.859C277.821 255.604 276.312 256.967 274.501 256.93C272.708 256.894 271.267 255.496 271.239 253.767Z" fill="url(#paint6_linear_676_690)"/>
<path d="M302.418 132.733C302.601 132.733 302.786 132.701 302.966 132.634C303.729 132.345 304.109 131.522 303.827 130.784C303.282 129.195 291.518 87.2366 281.593 51.7336C281.241 50.4782 280.134 49.6525 278.748 49.6837C277.396 49.7173 276.296 50.5966 276.01 51.8719L270.963 74.3936C270.788 75.1741 271.303 75.9462 272.114 76.113C272.916 76.2854 273.721 75.7879 273.899 75.0046L278.946 52.4829C285.26 75.9803 300.582 130.736 301.021 131.814C301.252 132.385 301.818 132.733 302.418 132.733Z" fill="white"/>
<path d="M278.494 274.574C287.042 274.574 293.972 267.893 293.972 259.651C293.972 251.41 287.042 244.729 278.494 244.729C269.946 244.729 263.016 251.41 263.016 259.651C263.016 267.893 269.946 274.574 278.494 274.574Z" fill="url(#paint7_linear_676_690)"/>
<path d="M120.824 55.9716C120.824 55.9716 54.5855 29.7303 53.4814 23.7979C57.4037 40.166 64.7286 54.8042 64.7286 54.8042C64.7286 54.8042 118.252 80.1837 134.885 76.3991C129.39 65.5565 120.824 55.9716 120.824 55.9716Z" fill="url(#paint8_linear_676_690)"/>
<path opacity="0.7" d="M149.599 39.1817L166.962 58.0093C166.962 58.0093 112.281 75.2258 90.5031 58.0093C73.7513 44.9073 72.8374 31.6494 72.8374 31.6494C72.8374 31.6494 112.132 61.3434 149.599 39.1817Z" fill="white"/>
<path d="M91.5503 470.027H98.0968V399.191H91.5503V470.027Z" fill="url(#paint9_linear_676_690)"/>
<path d="M100.296 398.054V417.614C100.296 418.938 99.1131 419.768 97.7897 419.768H92.178C90.8546 419.768 90.0479 418.938 90.0479 417.614V398.054H100.296Z" fill="url(#paint10_linear_676_690)"/>
<path d="M66.1548 471.392H123.492V467.811C123.492 467.434 123.187 467.129 122.81 467.129H66.8898C66.4839 467.129 66.1548 467.458 66.1548 467.864V471.392Z" fill="url(#paint11_linear_676_690)"/>
<path d="M72.2161 385.515L80.6498 382.086L69.6324 354.962L61.1987 358.391L72.2161 385.515Z" fill="url(#paint12_linear_676_690)"/>
<path d="M14.9189 302.194C30.9149 286.232 70.7075 276.223 85.0133 300.079C85.0133 300.079 103.4 329.114 99.7959 355.274C97.7764 362.505 92.7867 371.936 80.4753 371.909C60.52 371.865 49.8645 360.495 49.8645 360.495C40.7951 351.262 -1.07715 318.156 14.9189 302.194Z" fill="url(#paint13_linear_676_690)"/>
<path d="M103.313 371.748C106.823 372.006 110.13 372.349 110.936 372.393C117.542 372.751 124.691 373.364 130.759 376.231C132.258 376.94 133.89 378.085 135.464 379.505C142.481 385.833 148.346 397.612 136.167 400.446C123.796 403.325 110.212 402.007 97.6583 401.75C89.8259 401.59 82.0575 401.266 74.2767 400.313C68.8059 399.643 61.3339 401.394 56.719 398.409C17.44 373.004 103.313 371.748 103.313 371.748Z" fill="url(#paint14_linear_676_690)"/>
<path d="M20.8538 306.367C20.8538 306.367 24.8505 288.934 37.1579 280.518C28.2235 271.669 29.0058 276.223 29.0058 276.223C29.0058 276.223 4.76011 289.236 3.70312 296.609C12.1835 304.85 20.8538 306.367 20.8538 306.367Z" fill="url(#paint15_linear_676_690)"/>
<path d="M47.9875 305.126C47.9875 305.126 30.9804 316.993 22.0155 306.367L3.94698 295.742C3.94698 295.742 -12.9014 343.4 47.9875 333.153C46.8643 317.212 47.9875 305.126 47.9875 305.126Z" fill="url(#paint16_linear_676_690)"/>
<path d="M83.2428 271.384C83.2428 271.384 67.1121 263.677 52.8717 268.088C31.8514 267.223 54.5783 259.029 54.5783 259.029C54.5783 259.029 79.8395 248.121 86.2684 251.877C87.4464 263.647 83.2428 271.384 83.2428 271.384Z" fill="url(#paint17_linear_676_690)"/>
<path d="M65.3999 291.875C65.3999 291.875 89.635 282.292 81.8345 270.773L85.4379 251.529C85.4379 251.529 133.219 267.959 87.3379 309.302C75.5587 298.51 65.3999 291.875 65.3999 291.875Z" fill="url(#paint18_linear_676_690)"/>
<path d="M218.926 356.566C218.926 356.566 238.995 345.236 245.853 351.981C245.853 351.981 229.268 366.86 221.921 366.189C214.574 365.518 212.997 361.606 212.997 361.606L218.926 356.566Z" fill="url(#paint19_linear_676_690)"/>
<path d="M207.495 354.381L214.237 360.864C215.254 361.842 216.826 362.06 218.01 361.293C218.603 360.908 219.262 360.313 219.96 359.406C220.944 358.125 220.965 356.343 219.988 355.057L215.269 348.848L207.495 354.381Z" fill="url(#paint20_linear_676_690)"/>
<path d="M122.813 348.043C122.813 348.043 144.95 315.955 165.668 307.375C186.386 298.794 217.209 347.845 217.209 347.845C217.209 347.845 215.011 352.533 207.501 355.976C207.501 355.976 182.212 323.652 165.781 333.851C147.309 345.316 136.095 363.184 136.095 363.184L123.722 348.873L122.813 348.043Z" fill="url(#paint21_linear_676_690)"/>
<path d="M239.946 352.831C236.494 355.768 224.218 362.925 223.069 364.557C221.92 366.189 222.587 370.247 222.587 370.247C222.587 370.247 223.592 371.624 226.321 371.909C230.467 370.813 238.732 367.946 244.283 361.522C248.366 356.797 248.663 352.31 248.047 349.146C245.456 349.534 242.245 350.876 239.946 352.831Z" fill="url(#paint22_linear_676_690)"/>
<path d="M244.283 361.522C238.732 367.946 230.467 370.813 226.321 371.909C228.165 372.101 230.795 371.796 234.437 370.229C243.469 366.343 251.473 354.651 252.305 351.758C252.972 349.44 250.881 348.722 248.047 349.146C248.663 352.31 248.366 356.797 244.283 361.522Z" fill="url(#paint23_linear_676_690)"/>
<path d="M215.904 371.002C216.952 371.436 221.45 370.962 223.996 370.647C225.206 370.497 226.253 369.739 226.767 368.633C227.093 367.931 227.404 367.096 227.532 366.265C227.724 365.018 226.838 363.859 225.591 363.673L216.285 362.288L215.904 371.002Z" fill="url(#paint24_linear_676_690)"/>
<path d="M96.856 376.784C96.856 376.784 113.983 394.094 123.852 389.256C133.722 384.418 149.337 369.213 163.781 370.877C178.224 372.542 205.825 376.794 218.781 371.406C218.781 371.406 221.183 364.525 219.697 360.848C219.697 360.848 180.855 349.382 169.896 348.591C160.405 347.906 146.664 347.009 136.169 352.607C133.165 354.209 130.406 352.414 128.062 349.944L123.792 345.447L96.856 376.784Z" fill="url(#paint25_linear_676_690)"/>
<path d="M37.1577 324.668C37.1577 324.668 38.3156 302.279 83.558 280.518C83.558 280.518 85.5782 285.006 89.5082 290.709C93.4382 296.412 111.115 334.499 123.793 345.447C123.793 345.447 121.306 366.365 98.6185 378.705C98.6184 378.705 58.7105 358.256 37.1577 324.668Z" fill="url(#paint26_linear_676_690)"/>
<path d="M42.6382 286.863L51.7775 307.061C52.4702 308.501 53.933 309.424 55.5301 309.387C58.7582 309.311 64.0037 308.018 66.609 300.98C67.3839 298.886 66.9909 296.533 65.5744 294.808L55.1379 282.096L42.6382 286.863Z" fill="url(#paint27_linear_676_690)"/>
<path d="M42.7067 258.65C42.9927 258.761 57.7326 271.409 65.2396 277.859C67.5315 279.828 67.5933 283.352 65.3764 285.405L63.6777 286.978C61.3563 289.128 55.8165 292.209 52.8318 291.161L32.7295 280.932C32.7295 280.932 36.2773 256.143 42.7067 258.65Z" fill="url(#paint28_linear_676_690)"/>
<path d="M27.1143 278.187C24.9641 277.818 22.0836 276.545 22.478 272.34C22.8786 268.065 26.135 266.547 28.389 266.008C29.3004 265.79 29.8957 264.949 29.8501 264.013C29.8242 263.479 30.0289 262.927 30.7552 262.532C31.7337 261.998 32.0009 260.709 31.3693 259.791C30.156 258.026 29.3025 255.346 31.7615 252.332C36.1248 246.982 43.0646 250.025 46.0253 253.763C48.9863 257.502 43.9262 263.033 40.184 265.126C37.339 266.718 37.1043 270.739 37.1553 272.575C37.1715 273.156 37.4541 273.695 37.9183 274.046L44.7638 279.218C44.0889 281.191 43.584 283.202 43.1017 285.227C42.5491 284.938 42.0718 284.704 41.7095 284.551C39.1506 283.469 36.044 285.604 34.8036 286.593C34.3969 286.918 33.8798 287.06 33.3645 286.99C31.5427 286.742 27.6408 285.613 28.6836 280.479C28.9019 279.405 28.1944 278.373 27.1143 278.187Z" fill="url(#paint29_linear_676_690)"/>
<path d="M45.7466 287.538C45.7466 287.538 40.3081 281.245 37.2244 282.802C34.1406 284.359 32.9122 288.555 38.3106 290.534C45.0256 292.996 45.7466 287.538 45.7466 287.538Z" fill="url(#paint30_linear_676_690)"/>
<path d="M121.211 475.965C123.486 475.965 125.329 474.121 125.329 471.845C125.329 469.569 123.486 467.724 121.211 467.724C118.937 467.724 117.093 469.569 117.093 471.845C117.093 474.121 118.937 475.965 121.211 475.965Z" fill="url(#paint31_linear_676_690)"/>
<path d="M119.043 471.736C119.043 472.874 119.965 473.796 121.103 473.796C122.24 473.796 123.162 472.874 123.162 471.736C123.162 470.598 122.24 469.676 121.103 469.676C119.965 469.676 119.043 470.598 119.043 471.736Z" fill="url(#paint32_linear_676_690)"/>
<path d="M70.4909 475.965C72.7654 475.965 74.6092 474.121 74.6092 471.845C74.6092 469.569 72.7654 467.724 70.4909 467.724C68.2164 467.724 66.3726 469.569 66.3726 471.845C66.3726 474.121 68.2164 475.965 70.4909 475.965Z" fill="url(#paint33_linear_676_690)"/>
<path d="M68.3232 471.736C68.3232 472.874 69.245 473.796 70.3824 473.796C71.5196 473.796 72.4416 472.874 72.4416 471.736C72.4416 470.598 71.5196 469.676 70.3824 469.676C69.245 469.676 68.3232 470.598 68.3232 471.736Z" fill="url(#paint34_linear_676_690)"/>
<path d="M180.803 364.661C180.85 364.663 180.896 364.664 180.943 364.664L241.787 364.598C243.291 364.596 244.509 363.375 244.508 361.87C244.506 360.365 243.281 359.121 241.781 359.148L180.937 359.214C179.433 359.216 178.215 360.437 178.217 361.942C178.218 363.4 179.364 364.59 180.803 364.661Z" fill="url(#paint35_linear_676_690)"/>
<path d="M296.483 309.388H245.812C242.074 309.388 238.672 311.546 237.077 314.929L213.652 364.628H276.623C279.031 364.628 281.196 363.156 282.081 360.914L300.247 314.925C301.296 312.267 299.339 309.388 296.483 309.388Z" fill="url(#paint36_linear_676_690)"/>
<path d="M281.605 482.833C281.911 482.833 282.222 482.774 282.521 482.649C283.698 482.159 284.242 480.836 283.736 479.696L235.065 370.098C234.559 368.958 233.195 368.432 232.017 368.922C230.839 369.412 230.295 370.734 230.802 371.875L279.472 481.473C279.85 482.323 280.706 482.833 281.605 482.833Z" fill="url(#paint37_linear_676_690)"/>
<path d="M226.776 482.833C227.675 482.833 228.531 482.323 228.909 481.472L277.579 371.875C278.086 370.734 277.542 369.412 276.364 368.921C275.188 368.431 273.822 368.957 273.315 370.098L224.645 479.696C224.139 480.836 224.682 482.158 225.86 482.649C226.159 482.773 226.47 482.833 226.776 482.833Z" fill="url(#paint38_linear_676_690)"/>
<path d="M130.949 482.833C131.255 482.833 131.566 482.774 131.865 482.649C133.043 482.159 133.586 480.836 133.08 479.696L84.4096 370.098C83.9031 368.958 82.5397 368.432 81.3607 368.922C80.1835 369.412 79.6395 370.734 80.146 371.875L128.816 481.473C129.194 482.323 130.05 482.833 130.949 482.833Z" fill="url(#paint39_linear_676_690)"/>
<path d="M76.121 482.833C77.0205 482.833 77.8763 482.323 78.2539 481.472L126.924 371.875C127.431 370.734 126.887 369.412 125.71 368.921C124.533 368.431 123.167 368.957 122.661 370.098L73.9903 479.696C73.4838 480.836 74.0276 482.159 75.205 482.649C75.5037 482.773 75.8149 482.833 76.121 482.833Z" fill="url(#paint40_linear_676_690)"/>
<path d="M70.4125 366.714C70.2883 365.996 70.4573 365.252 70.8733 364.687C71.2892 364.123 71.9087 363.796 72.5625 363.796H293.977C294.837 363.796 295.637 364.286 296.1 365.098C296.563 365.909 296.625 366.928 296.265 367.802L293.865 373.619C293.316 374.952 292.125 375.805 290.816 375.805H74.0816C72.8629 375.805 71.8157 374.837 71.5843 373.496L70.4125 366.714Z" fill="url(#paint41_linear_676_690)"/>
<path d="M204.624 456.405L206.848 489.849C207.236 495.68 212.184 500.162 218.05 499.995L298.198 497.717C302.119 497.605 305.361 494.64 305.801 490.759C306.764 482.261 307.841 467.077 305.557 452.939L204.624 456.405Z" fill="url(#paint42_linear_676_690)"/>
<path d="M220.31 498.018C220.188 498.018 220.088 497.921 220.084 497.798C220.081 497.673 220.179 497.569 220.304 497.565L222.111 497.514C222.258 497.512 222.34 497.609 222.344 497.734C222.348 497.858 222.249 497.963 222.124 497.966L220.317 498.018C220.315 498.018 220.313 498.018 220.31 498.018ZM226.336 497.846C226.214 497.846 226.113 497.749 226.11 497.627C226.106 497.502 226.205 497.397 226.33 497.394L228.138 497.342C228.277 497.335 228.367 497.438 228.37 497.562C228.374 497.687 228.275 497.791 228.151 497.795L226.343 497.846C226.34 497.846 226.338 497.846 226.336 497.846ZM232.362 497.675C232.24 497.675 232.14 497.578 232.136 497.455C232.133 497.33 232.231 497.226 232.356 497.223L234.164 497.171C234.304 497.163 234.393 497.267 234.396 497.391C234.4 497.516 234.301 497.62 234.177 497.624L232.369 497.675C232.366 497.675 232.364 497.675 232.362 497.675ZM238.388 497.503C238.266 497.503 238.166 497.406 238.162 497.284C238.158 497.159 238.257 497.054 238.382 497.051L240.189 497C240.337 497.003 240.418 497.095 240.422 497.22C240.425 497.344 240.327 497.449 240.202 497.452L238.395 497.503C238.392 497.503 238.39 497.503 238.388 497.503ZM216.155 497.464C216.13 497.464 216.105 497.46 216.081 497.452C215.499 497.25 214.933 496.997 214.397 496.699C214.287 496.638 214.248 496.5 214.309 496.391C214.369 496.282 214.507 496.242 214.616 496.303C215.129 496.589 215.672 496.831 216.229 497.024C216.347 497.065 216.409 497.194 216.369 497.312C216.336 497.406 216.248 497.464 216.155 497.464ZM244.414 497.332C244.292 497.332 244.191 497.235 244.188 497.113C244.184 496.988 244.283 496.883 244.408 496.88L246.215 496.828C246.352 496.822 246.444 496.924 246.448 497.048C246.451 497.173 246.353 497.277 246.228 497.281L244.421 497.332C244.418 497.332 244.416 497.332 244.414 497.332ZM250.44 497.161C250.318 497.161 250.217 497.064 250.214 496.941C250.21 496.816 250.309 496.712 250.433 496.709L252.241 496.657C252.389 496.662 252.47 496.752 252.474 496.877C252.477 497.002 252.379 497.106 252.254 497.11L250.446 497.161C250.444 497.161 250.442 497.161 250.44 497.161ZM256.466 496.99C256.344 496.99 256.243 496.892 256.24 496.77C256.236 496.645 256.335 496.541 256.459 496.537L258.267 496.486C258.408 496.485 258.496 496.581 258.5 496.706C258.503 496.83 258.405 496.935 258.28 496.938L256.472 496.99C256.47 496.99 256.468 496.99 256.466 496.99ZM262.492 496.818C262.37 496.818 262.269 496.721 262.266 496.599C262.262 496.474 262.361 496.37 262.485 496.366L264.293 496.315C264.427 496.308 264.522 496.41 264.525 496.534C264.529 496.659 264.431 496.763 264.306 496.767L262.498 496.818C262.496 496.818 262.494 496.818 262.492 496.818ZM268.517 496.647C268.396 496.647 268.295 496.55 268.291 496.427C268.288 496.302 268.386 496.198 268.511 496.195L270.319 496.143C270.464 496.148 270.548 496.238 270.551 496.363C270.555 496.487 270.457 496.592 270.332 496.595L268.524 496.647C268.522 496.647 268.519 496.647 268.517 496.647ZM274.543 496.476C274.421 496.476 274.321 496.378 274.317 496.256C274.314 496.131 274.412 496.027 274.537 496.023L276.345 495.972C276.483 495.972 276.574 496.067 276.577 496.192C276.581 496.317 276.483 496.421 276.358 496.424L274.55 496.476C274.548 496.476 274.546 496.476 274.543 496.476ZM280.569 496.304C280.448 496.304 280.347 496.207 280.343 496.085C280.34 495.96 280.438 495.856 280.563 495.852L282.371 495.801C282.502 495.794 282.599 495.896 282.603 496.02C282.607 496.145 282.508 496.249 282.384 496.253L280.576 496.304C280.573 496.304 280.571 496.304 280.569 496.304ZM286.595 496.133C286.474 496.133 286.373 496.036 286.369 495.913C286.366 495.789 286.464 495.684 286.589 495.681L288.397 495.629C288.539 495.635 288.626 495.724 288.629 495.849C288.633 495.974 288.534 496.078 288.41 496.082L286.602 496.133C286.6 496.133 286.598 496.133 286.595 496.133ZM292.621 495.962C292.499 495.962 292.399 495.864 292.395 495.742C292.391 495.617 292.49 495.513 292.615 495.509L294.423 495.458C294.567 495.458 294.652 495.553 294.655 495.678C294.659 495.803 294.56 495.907 294.436 495.91L292.628 495.962C292.625 495.962 292.623 495.962 292.621 495.962ZM298.589 495.378C298.498 495.378 298.412 495.322 298.378 495.232C298.334 495.115 298.392 494.984 298.509 494.94C299.055 494.733 299.577 494.459 300.059 494.127C300.162 494.056 300.302 494.082 300.373 494.185C300.444 494.288 300.418 494.429 300.315 494.499C299.803 494.852 299.25 495.143 298.669 495.363C298.643 495.373 298.616 495.378 298.589 495.378ZM211.329 493.996C211.261 493.996 211.194 493.966 211.15 493.908C210.773 493.421 210.437 492.898 210.152 492.354C210.094 492.243 210.137 492.107 210.247 492.049C210.359 491.991 210.495 492.034 210.553 492.144C210.825 492.665 211.146 493.165 211.507 493.631C211.584 493.73 211.565 493.872 211.467 493.949C211.426 493.981 211.377 493.996 211.329 493.996ZM302.824 491.317C302.794 491.317 302.764 491.311 302.735 491.298C302.62 491.249 302.567 491.116 302.616 491.002C302.844 490.465 303.007 489.899 303.1 489.321C303.119 489.197 303.235 489.111 303.359 489.133C303.482 489.153 303.566 489.269 303.546 489.392C303.448 490.007 303.275 490.608 303.032 491.179C302.995 491.265 302.911 491.317 302.824 491.317ZM209.204 488.444C209.087 488.444 208.988 488.354 208.979 488.235L208.859 486.427C208.85 486.303 208.945 486.195 209.069 486.187C209.192 486.182 209.301 486.273 209.31 486.397L209.43 488.201C209.439 488.326 209.346 488.434 209.222 488.444C209.216 488.444 209.21 488.444 209.204 488.444ZM303.762 485.383C303.755 485.383 303.748 485.383 303.741 485.382C303.617 485.371 303.525 485.261 303.537 485.136C303.589 484.554 303.64 483.953 303.689 483.335C303.7 483.211 303.813 483.124 303.933 483.128C304.057 483.138 304.15 483.247 304.14 483.371C304.091 483.991 304.039 484.593 303.987 485.177C303.976 485.295 303.878 485.383 303.762 485.383ZM208.804 482.426C208.686 482.426 208.586 482.334 208.578 482.214L208.458 480.409C208.45 480.284 208.544 480.177 208.669 480.168C208.794 480.164 208.901 480.254 208.909 480.379L209.029 482.184C209.038 482.309 208.944 482.417 208.819 482.425C208.814 482.425 208.809 482.426 208.804 482.426ZM304.197 479.367C304.193 479.367 304.189 479.367 304.184 479.366C304.06 479.36 303.964 479.253 303.971 479.128C304.003 478.536 304.033 477.934 304.059 477.323C304.064 477.198 304.178 477.098 304.294 477.107C304.419 477.112 304.516 477.218 304.511 477.342C304.484 477.956 304.455 478.559 304.423 479.153C304.416 479.273 304.316 479.367 304.197 479.367ZM208.403 476.407C208.285 476.407 208.186 476.316 208.178 476.196L208.058 474.39C208.05 474.266 208.144 474.158 208.269 474.15C208.389 474.139 208.501 474.235 208.509 474.36L208.629 476.166C208.637 476.291 208.543 476.398 208.419 476.406C208.414 476.407 208.408 476.407 208.403 476.407ZM304.411 473.338C304.41 473.338 304.409 473.338 304.407 473.338C304.282 473.336 304.183 473.234 304.185 473.109C304.195 472.512 304.201 471.91 304.203 471.302C304.204 471.177 304.305 471.076 304.429 471.076C304.429 471.076 304.43 471.076 304.43 471.076C304.555 471.077 304.656 471.179 304.655 471.303C304.653 471.913 304.647 472.517 304.637 473.116C304.635 473.239 304.535 473.338 304.411 473.338ZM208.003 470.389C207.885 470.389 207.786 470.297 207.778 470.178L207.658 468.372C207.65 468.248 207.744 468.14 207.869 468.132C207.99 468.121 208.101 468.218 208.109 468.342L208.229 470.148C208.237 470.272 208.143 470.38 208.018 470.388C208.013 470.389 208.008 470.389 208.003 470.389ZM304.383 467.308C304.261 467.308 304.16 467.21 304.157 467.087C304.141 466.489 304.121 465.887 304.097 465.283C304.091 465.158 304.189 465.053 304.313 465.048C304.421 465.033 304.543 465.139 304.548 465.264C304.573 465.871 304.593 466.475 304.609 467.076C304.612 467.2 304.514 467.304 304.389 467.308C304.387 467.307 304.385 467.308 304.383 467.308ZM207.603 464.37C207.485 464.37 207.386 464.279 207.378 464.159L207.258 462.354C207.25 462.229 207.344 462.122 207.468 462.113C207.592 462.104 207.7 462.199 207.709 462.324L207.829 464.129C207.837 464.254 207.743 464.361 207.618 464.37C207.613 464.37 207.608 464.37 207.603 464.37ZM304.077 461.285C303.96 461.285 303.861 461.195 303.852 461.076C303.806 460.477 303.755 459.877 303.699 459.277C303.687 459.153 303.778 459.042 303.903 459.031C304.028 459.016 304.137 459.11 304.149 459.235C304.206 459.838 304.256 460.44 304.303 461.041C304.312 461.166 304.219 461.274 304.095 461.284C304.088 461.284 304.083 461.285 304.077 461.285ZM207.203 458.352C207.085 458.352 206.985 458.26 206.978 458.141L206.842 456.102L208.792 456.035C208.934 456.042 209.021 456.129 209.026 456.254C209.03 456.379 208.932 456.483 208.807 456.488L207.324 456.538L207.429 458.111C207.437 458.236 207.343 458.343 207.218 458.352C207.213 458.352 207.208 458.352 207.203 458.352ZM213.017 456.343C212.896 456.343 212.795 456.246 212.791 456.124C212.787 455.999 212.884 455.895 213.009 455.89L214.817 455.828C214.952 455.82 215.046 455.922 215.051 456.047C215.055 456.172 214.957 456.276 214.832 456.281L213.025 456.343C213.022 456.343 213.019 456.343 213.017 456.343ZM219.041 456.136C218.92 456.136 218.82 456.04 218.816 455.917C218.812 455.793 218.909 455.688 219.034 455.683L220.842 455.621C220.979 455.619 221.071 455.715 221.075 455.84C221.079 455.965 220.982 456.069 220.857 456.074L219.05 456.136C219.047 456.136 219.044 456.136 219.041 456.136ZM225.067 455.929C224.945 455.929 224.845 455.833 224.841 455.71C224.836 455.586 224.934 455.481 225.059 455.476L226.866 455.415C227.012 455.422 227.095 455.509 227.1 455.633C227.104 455.758 227.007 455.863 226.882 455.867L225.074 455.929C225.072 455.929 225.069 455.929 225.067 455.929ZM231.091 455.722C230.97 455.722 230.87 455.626 230.865 455.504C230.861 455.379 230.959 455.274 231.084 455.27L232.891 455.208C233.014 455.212 233.121 455.301 233.125 455.426C233.129 455.551 233.031 455.656 232.907 455.66L231.099 455.722C231.096 455.722 231.094 455.722 231.091 455.722ZM237.116 455.516C236.995 455.516 236.895 455.419 236.89 455.297C236.886 455.172 236.984 455.068 237.109 455.063L238.916 455.001C239.06 455.001 239.145 455.095 239.15 455.22C239.154 455.344 239.056 455.449 238.931 455.453L237.124 455.516C237.121 455.516 237.119 455.516 237.116 455.516ZM243.141 455.308C243.019 455.308 242.919 455.212 242.915 455.09C242.911 454.965 243.008 454.861 243.133 454.856L244.941 454.794C245.073 454.802 245.17 454.888 245.175 455.013C245.179 455.138 245.081 455.242 244.956 455.247L243.149 455.308C243.146 455.308 243.143 455.308 243.141 455.308ZM303.442 455.287C303.33 455.287 303.233 455.205 303.218 455.092C303.136 454.495 303.048 453.9 302.954 453.306C302.934 453.183 303.018 453.067 303.142 453.047C303.262 453.03 303.38 453.111 303.4 453.235C303.495 453.832 303.583 454.43 303.666 455.03C303.683 455.154 303.596 455.268 303.472 455.285C303.462 455.286 303.452 455.287 303.442 455.287ZM249.166 455.102C249.044 455.102 248.944 455.005 248.94 454.883C248.936 454.758 249.033 454.654 249.158 454.649L250.966 454.587C251.091 454.594 251.195 454.681 251.199 454.806C251.203 454.93 251.106 455.035 250.981 455.04L249.173 455.102C249.171 455.102 249.168 455.102 249.166 455.102ZM255.191 454.895C255.069 454.895 254.969 454.799 254.965 454.676C254.96 454.552 255.058 454.447 255.183 454.442L256.99 454.38C257.122 454.388 257.22 454.474 257.224 454.599C257.228 454.724 257.131 454.828 257.006 454.833L255.198 454.895C255.196 454.895 255.193 454.895 255.191 454.895ZM261.215 454.688C261.094 454.688 260.994 454.592 260.989 454.469C260.985 454.345 261.083 454.24 261.208 454.235L263.015 454.174C263.15 454.182 263.244 454.268 263.249 454.392C263.253 454.517 263.155 454.622 263.031 454.626L261.223 454.688C261.22 454.688 261.218 454.688 261.215 454.688ZM267.24 454.481C267.119 454.481 267.019 454.385 267.014 454.262C267.01 454.138 267.108 454.033 267.233 454.029L269.04 453.966C269.179 453.965 269.269 454.06 269.274 454.185C269.278 454.31 269.18 454.414 269.055 454.419L267.248 454.481C267.245 454.481 267.243 454.481 267.24 454.481ZM273.265 454.274C273.144 454.274 273.043 454.178 273.039 454.056C273.035 453.931 273.133 453.826 273.257 453.822L275.065 453.76C275.185 453.769 275.294 453.853 275.299 453.978C275.303 454.103 275.205 454.208 275.08 454.212L273.273 454.274C273.27 454.274 273.267 454.274 273.265 454.274ZM279.29 454.067C279.169 454.067 279.068 453.971 279.064 453.849C279.06 453.724 279.157 453.619 279.282 453.615L281.09 453.553C281.232 453.548 281.319 453.647 281.323 453.771C281.328 453.896 281.23 454.001 281.105 454.005L279.298 454.067C279.295 454.067 279.292 454.067 279.29 454.067ZM285.314 453.86C285.193 453.86 285.093 453.764 285.088 453.642C285.084 453.517 285.182 453.412 285.307 453.408L287.114 453.346C287.259 453.346 287.343 453.44 287.348 453.564C287.352 453.689 287.255 453.794 287.13 453.798L285.322 453.86C285.319 453.86 285.317 453.86 285.314 453.86ZM291.339 453.654C291.218 453.654 291.118 453.557 291.113 453.435C291.109 453.31 291.207 453.206 291.332 453.201L293.139 453.139C293.279 453.143 293.369 453.233 293.373 453.358C293.377 453.483 293.279 453.587 293.155 453.592L291.347 453.654C291.344 453.654 291.342 453.654 291.339 453.654ZM297.364 453.447C297.243 453.447 297.142 453.35 297.138 453.228C297.134 453.103 297.232 452.999 297.356 452.994L299.164 452.932C299.298 452.929 299.393 453.026 299.398 453.151C299.402 453.276 299.304 453.38 299.18 453.385L297.372 453.447C297.369 453.447 297.366 453.447 297.364 453.447Z" fill="white"/>
<path d="M227.274 431.293L227.427 428.703C227.678 428.077 228.228 427.621 228.892 427.492C231.375 427.008 237.542 426.097 240.6 428.224L241.148 431.209L227.274 431.293Z" fill="url(#paint43_linear_676_690)"/>
<path d="M234.988 428.541C234.418 428.701 233.842 428.72 233.26 428.598C232.556 428.451 232.042 427.843 232.018 427.127L231.741 419.041L235.853 418.9L236.13 426.979C236.155 427.698 235.683 428.345 234.988 428.541Z" fill="url(#paint44_linear_676_690)"/>
<path d="M267.106 429.925L267.259 427.335C267.51 426.709 268.06 426.253 268.724 426.124C271.207 425.641 277.374 424.729 280.432 426.856L280.98 429.841L267.106 429.925Z" fill="url(#paint45_linear_676_690)"/>
<path d="M274.82 427.173C274.25 427.333 273.674 427.352 273.093 427.23C272.389 427.083 271.875 426.475 271.85 425.759L271.544 416.822L275.656 416.68L275.963 425.612C275.987 426.331 275.516 426.978 274.82 427.173Z" fill="url(#paint46_linear_676_690)"/>
<path d="M231.391 421.037L275.567 418.054C276.574 417.986 277.405 417.229 277.544 416.233C277.739 414.839 277.881 412.758 277.489 410.619C277.043 408.187 274.879 406.443 272.396 406.469C264.139 406.556 243.136 407.283 231.716 412.262C230.509 412.789 229.636 413.867 229.37 415.153C229.116 416.379 228.975 418.01 229.418 419.65C229.654 420.521 230.487 421.098 231.391 421.037Z" fill="url(#paint47_linear_676_690)"/>
<path d="M230.539 419.172C230.242 419.172 229.983 418.953 229.942 418.65C229.932 418.577 229.705 416.847 230.1 415.158C230.419 413.793 231.451 412.668 232.793 412.224C235.25 411.41 239.954 410.008 243.843 409.765C244.177 409.746 244.462 409.997 244.483 410.329C244.504 410.662 244.251 410.948 243.919 410.969C240.024 411.212 235.106 412.729 233.172 413.369C232.226 413.683 231.498 414.473 231.274 415.433C230.931 416.9 231.135 418.473 231.137 418.489C231.181 418.819 230.95 419.122 230.62 419.167C230.593 419.17 230.566 419.172 230.539 419.172Z" fill="white"/>
<path d="M206.72 430.991C221.002 430.318 282.79 427.546 300.819 429.097C302.371 429.231 303.671 430.319 304.058 431.822C305.283 436.584 307.8 447.659 307.926 458.718C307.943 460.223 306.885 461.53 305.41 461.862L264.693 471.027L250.134 471.527L206.167 464.341C204.618 464.088 203.438 462.822 203.305 461.264C202.831 455.714 201.939 442.684 203.154 434.236C203.412 432.441 204.902 431.077 206.72 430.991Z" fill="url(#paint48_linear_676_690)"/>
<path d="M250.361 468.208C250.349 468.208 250.337 468.207 250.324 468.205L248.539 467.913C248.416 467.893 248.333 467.777 248.353 467.653C248.373 467.53 248.487 467.445 248.612 467.467L250.397 467.758C250.52 467.778 250.604 467.895 250.584 468.018C250.566 468.129 250.47 468.208 250.361 468.208ZM252.96 468.118C252.838 468.118 252.738 468.022 252.734 467.9C252.73 467.775 252.827 467.67 252.952 467.666L254.76 467.604C254.899 467.602 254.989 467.698 254.993 467.822C254.997 467.947 254.9 468.052 254.775 468.056L252.968 468.118C252.965 468.118 252.962 468.118 252.96 468.118ZM258.985 467.912C258.863 467.912 258.763 467.815 258.759 467.693C258.754 467.568 258.852 467.464 258.977 467.459L260.784 467.397C260.913 467.403 261.014 467.491 261.018 467.616C261.022 467.741 260.925 467.845 260.8 467.85L258.992 467.912C258.99 467.912 258.987 467.912 258.985 467.912ZM264.991 467.562C264.887 467.562 264.794 467.491 264.77 467.385C264.743 467.263 264.819 467.142 264.941 467.115L266.706 466.718C266.825 466.69 266.949 466.767 266.976 466.889C267.003 467.011 266.927 467.132 266.805 467.159L265.04 467.556C265.024 467.56 265.007 467.562 264.991 467.562ZM244.411 467.235C244.399 467.235 244.387 467.234 244.375 467.232L242.59 466.941C242.467 466.921 242.383 466.804 242.403 466.681C242.423 466.558 242.538 466.473 242.663 466.494L244.448 466.786C244.571 466.806 244.654 466.922 244.634 467.046C244.616 467.156 244.52 467.235 244.411 467.235ZM238.462 466.263C238.45 466.263 238.438 466.262 238.425 466.26L236.64 465.968C236.517 465.948 236.434 465.832 236.454 465.709C236.474 465.585 236.59 465.499 236.713 465.522L238.498 465.814C238.621 465.834 238.705 465.95 238.685 466.073C238.667 466.184 238.571 466.263 238.462 466.263ZM270.872 466.238C270.769 466.238 270.675 466.167 270.652 466.062C270.624 465.94 270.701 465.819 270.822 465.791L272.587 465.395C272.709 465.367 272.83 465.443 272.857 465.566C272.884 465.687 272.808 465.808 272.686 465.836L270.922 466.233C270.905 466.236 270.888 466.238 270.872 466.238ZM232.513 465.29C232.501 465.29 232.488 465.29 232.476 465.288L230.691 464.996C230.568 464.976 230.484 464.86 230.504 464.736C230.524 464.613 230.638 464.528 230.764 464.55L232.549 464.841C232.672 464.861 232.755 464.978 232.735 465.101C232.717 465.211 232.622 465.29 232.513 465.29ZM276.754 464.915C276.65 464.915 276.557 464.843 276.533 464.738C276.506 464.616 276.583 464.495 276.704 464.468L278.468 464.071C278.59 464.042 278.711 464.119 278.739 464.241C278.766 464.363 278.689 464.484 278.568 464.512L276.804 464.909C276.787 464.913 276.77 464.915 276.754 464.915ZM226.563 464.318C226.551 464.318 226.539 464.317 226.526 464.315L224.741 464.023C224.618 464.003 224.535 463.887 224.555 463.764C224.575 463.64 224.69 463.556 224.814 463.577L226.599 463.869C226.723 463.889 226.806 464.005 226.786 464.128C226.768 464.239 226.672 464.318 226.563 464.318ZM282.635 463.591C282.531 463.591 282.438 463.52 282.414 463.415C282.387 463.293 282.464 463.172 282.585 463.144L284.35 462.747C284.473 462.719 284.593 462.796 284.62 462.918C284.647 463.04 284.571 463.161 284.449 463.188L282.685 463.585C282.668 463.589 282.651 463.591 282.635 463.591ZM220.613 463.346C220.601 463.346 220.589 463.345 220.577 463.343L218.792 463.051C218.669 463.031 218.585 462.915 218.605 462.791C218.626 462.668 218.741 462.582 218.865 462.605L220.65 462.897C220.773 462.917 220.856 463.033 220.836 463.156C220.818 463.267 220.722 463.346 220.613 463.346ZM214.664 462.373C214.652 462.373 214.639 462.372 214.627 462.37L212.842 462.079C212.719 462.059 212.636 461.942 212.656 461.819C212.676 461.696 212.789 461.611 212.915 461.632L214.7 461.924C214.823 461.944 214.907 462.06 214.887 462.184C214.868 462.294 214.773 462.373 214.664 462.373ZM288.516 462.267C288.413 462.267 288.319 462.196 288.296 462.091C288.269 461.969 288.345 461.848 288.467 461.82L290.231 461.423C290.354 461.394 290.474 461.472 290.501 461.594C290.529 461.716 290.452 461.837 290.33 461.864L288.566 462.261C288.549 462.265 288.533 462.267 288.516 462.267ZM208.715 461.401C208.702 461.401 208.69 461.4 208.678 461.398L206.893 461.106C206.77 461.086 206.687 460.97 206.707 460.847C206.727 460.723 206.841 460.639 206.966 460.66L208.751 460.951C208.874 460.971 208.957 461.088 208.937 461.211C208.919 461.322 208.823 461.401 208.715 461.401ZM294.398 460.943C294.294 460.943 294.201 460.872 294.178 460.767C294.15 460.645 294.227 460.524 294.348 460.496L296.112 460.099C296.235 460.071 296.355 460.148 296.383 460.27C296.41 460.392 296.333 460.513 296.212 460.54L294.448 460.937C294.431 460.941 294.414 460.943 294.398 460.943ZM300.279 459.619C300.175 459.619 300.082 459.548 300.059 459.442C300.031 459.321 300.108 459.2 300.23 459.173L301.994 458.776C302.114 458.748 302.237 458.824 302.264 458.947C302.292 459.068 302.215 459.189 302.093 459.217L300.329 459.614C300.312 459.617 300.295 459.619 300.279 459.619ZM206.507 456.992C206.389 456.992 206.29 456.9 206.282 456.781C206.244 456.203 206.206 455.599 206.169 454.972C206.162 454.847 206.257 454.74 206.382 454.733C206.515 454.726 206.613 454.821 206.621 454.946C206.657 455.571 206.695 456.175 206.733 456.751C206.742 456.875 206.647 456.983 206.523 456.991C206.518 456.992 206.512 456.992 206.507 456.992ZM304.339 456.878C304.219 456.878 304.118 456.782 304.114 456.66C304.09 456.058 304.06 455.457 304.023 454.857C304.016 454.733 304.111 454.625 304.235 454.618C304.352 454.61 304.467 454.705 304.475 454.83C304.511 455.432 304.542 456.037 304.565 456.643C304.57 456.767 304.473 456.872 304.348 456.877C304.345 456.878 304.342 456.878 304.339 456.878ZM206.192 450.967C206.071 450.967 205.971 450.871 205.966 450.749C205.943 450.153 205.924 449.548 205.907 448.937C205.904 448.812 206.002 448.708 206.127 448.705C206.248 448.709 206.356 448.8 206.359 448.925C206.376 449.534 206.396 450.138 206.418 450.732C206.422 450.857 206.325 450.962 206.2 450.966C206.198 450.967 206.194 450.967 206.192 450.967ZM303.898 450.861C303.784 450.861 303.686 450.775 303.673 450.659C303.61 450.055 303.542 449.456 303.47 448.864C303.454 448.74 303.543 448.627 303.667 448.612C303.791 448.598 303.904 448.685 303.918 448.809C303.991 449.404 304.059 450.005 304.123 450.611C304.136 450.736 304.046 450.847 303.922 450.86C303.914 450.861 303.906 450.861 303.898 450.861ZM206.075 444.934H206.075C205.95 444.934 205.849 444.833 205.849 444.708C205.85 444.101 205.855 443.495 205.865 442.894C205.867 442.77 205.962 442.67 206.095 442.672C206.22 442.674 206.319 442.777 206.317 442.902C206.307 443.501 206.302 444.104 206.301 444.708C206.301 444.833 206.2 444.934 206.075 444.934ZM303.105 444.881C302.995 444.881 302.899 444.801 302.882 444.69C302.786 444.083 302.687 443.488 302.586 442.907C302.565 442.784 302.647 442.667 302.77 442.645C302.891 442.628 303.01 442.706 303.031 442.83C303.132 443.413 303.232 444.01 303.328 444.619C303.348 444.742 303.264 444.858 303.14 444.878C303.128 444.88 303.117 444.881 303.105 444.881ZM302.022 438.944C301.917 438.944 301.823 438.871 301.801 438.764C301.674 438.146 301.547 437.555 301.424 436.996C301.397 436.874 301.475 436.753 301.596 436.726C301.716 436.7 301.839 436.776 301.866 436.898C301.989 437.459 302.116 438.052 302.244 438.673C302.269 438.795 302.19 438.914 302.068 438.94C302.053 438.943 302.037 438.944 302.022 438.944ZM206.257 438.905C206.252 438.905 206.247 438.905 206.242 438.905C206.117 438.897 206.023 438.789 206.031 438.664C206.071 438.047 206.119 437.442 206.175 436.853C206.187 436.729 206.296 436.638 206.422 436.65C206.546 436.662 206.637 436.772 206.625 436.896C206.57 437.48 206.522 438.081 206.482 438.694C206.474 438.813 206.375 438.905 206.257 438.905ZM208.61 434.668C208.49 434.668 208.39 434.574 208.384 434.453C208.378 434.328 208.475 434.222 208.599 434.216L210.407 434.133C210.527 434.122 210.638 434.224 210.643 434.349C210.649 434.474 210.553 434.58 210.428 434.585L208.621 434.668C208.617 434.668 208.613 434.668 208.61 434.668ZM214.635 434.396C214.515 434.396 214.415 434.301 214.41 434.18C214.404 434.055 214.501 433.949 214.625 433.944L216.433 433.864C216.554 433.854 216.664 433.955 216.669 434.08C216.674 434.205 216.578 434.311 216.453 434.316L214.645 434.396C214.642 434.396 214.639 434.396 214.635 434.396ZM220.661 434.135C220.54 434.135 220.44 434.04 220.435 433.918C220.43 433.794 220.527 433.688 220.651 433.683L222.459 433.607C222.579 433.592 222.689 433.698 222.694 433.823C222.699 433.948 222.603 434.054 222.478 434.059L220.67 434.135C220.667 434.135 220.664 434.135 220.661 434.135ZM226.686 433.886C226.565 433.886 226.465 433.791 226.46 433.669C226.455 433.544 226.552 433.439 226.677 433.434L228.485 433.362C228.605 433.354 228.715 433.454 228.72 433.579C228.725 433.703 228.628 433.809 228.503 433.814L226.695 433.886C226.692 433.886 226.689 433.886 226.686 433.886ZM232.711 433.649C232.591 433.649 232.49 433.554 232.486 433.432C232.481 433.307 232.578 433.202 232.703 433.197L234.511 433.129C234.643 433.116 234.741 433.221 234.745 433.346C234.75 433.471 234.653 433.576 234.528 433.58L232.72 433.649C232.717 433.649 232.715 433.649 232.711 433.649ZM238.738 433.425C238.617 433.425 238.517 433.329 238.512 433.207C238.508 433.082 238.605 432.978 238.73 432.973L240.538 432.908C240.663 432.907 240.768 433.002 240.772 433.127C240.777 433.251 240.679 433.356 240.554 433.361L238.746 433.425C238.744 433.425 238.741 433.425 238.738 433.425ZM244.764 433.216C244.643 433.216 244.542 433.119 244.538 432.997C244.534 432.872 244.632 432.768 244.757 432.763L246.565 432.703C246.699 432.7 246.794 432.797 246.798 432.922C246.802 433.047 246.704 433.151 246.579 433.156L244.772 433.215C244.769 433.216 244.767 433.216 244.764 433.216ZM300.67 433.062C300.569 433.062 300.477 432.994 300.451 432.892L300.437 432.84C299.988 432.802 299.505 432.766 298.989 432.732C298.864 432.724 298.77 432.617 298.778 432.492C298.786 432.367 298.894 432.275 299.018 432.281C299.559 432.316 300.066 432.354 300.535 432.394C300.692 432.408 300.819 432.51 300.855 432.647L300.889 432.78C300.92 432.901 300.847 433.024 300.726 433.055C300.707 433.06 300.688 433.062 300.67 433.062ZM250.789 433.021C250.667 433.021 250.567 432.925 250.563 432.802C250.559 432.677 250.658 432.573 250.783 432.569L252.59 432.514C252.725 432.505 252.819 432.609 252.823 432.734C252.827 432.858 252.729 432.963 252.604 432.967L250.796 433.021C250.794 433.021 250.791 433.021 250.789 433.021ZM256.815 432.845C256.693 432.845 256.593 432.748 256.589 432.625C256.586 432.501 256.684 432.397 256.809 432.393L258.617 432.344C258.756 432.349 258.846 432.44 258.849 432.564C258.853 432.689 258.754 432.793 258.629 432.797L256.822 432.845C256.819 432.845 256.817 432.845 256.815 432.845ZM262.842 432.69C262.719 432.69 262.619 432.592 262.616 432.469C262.613 432.344 262.712 432.241 262.837 432.238L264.645 432.196C264.766 432.197 264.873 432.292 264.876 432.417C264.879 432.542 264.78 432.645 264.655 432.648L262.847 432.69C262.845 432.69 262.844 432.69 262.842 432.69ZM268.868 432.56C268.745 432.56 268.645 432.462 268.642 432.339C268.64 432.214 268.739 432.11 268.864 432.108L270.673 432.075C270.801 432.072 270.901 432.172 270.903 432.297C270.905 432.422 270.805 432.525 270.68 432.527L268.873 432.56C268.871 432.56 268.87 432.56 268.868 432.56ZM294.788 432.537C294.786 432.537 294.784 432.537 294.781 432.537C294.203 432.518 293.601 432.502 292.975 432.487C292.851 432.483 292.752 432.38 292.755 432.255C292.758 432.13 292.857 432.048 292.986 432.034C293.613 432.049 294.216 432.066 294.796 432.085C294.92 432.089 295.018 432.193 295.014 432.318C295.01 432.441 294.91 432.537 294.788 432.537ZM274.896 432.463C274.773 432.463 274.672 432.363 274.67 432.239C274.669 432.114 274.769 432.012 274.894 432.01L276.702 431.988C276.816 431.974 276.929 432.086 276.931 432.211C276.933 432.336 276.833 432.439 276.708 432.44L274.899 432.463C274.898 432.463 274.897 432.463 274.896 432.463ZM288.762 432.416C288.761 432.416 288.76 432.416 288.76 432.416C288.172 432.411 287.57 432.406 286.952 432.402C286.827 432.402 286.727 432.3 286.727 432.175C286.728 432.05 286.829 431.95 286.953 431.95C286.954 431.95 286.954 431.95 286.954 431.95C287.572 431.954 288.176 431.958 288.764 431.964C288.888 431.965 288.989 432.067 288.988 432.192C288.987 432.316 288.886 432.416 288.762 432.416ZM280.925 432.404C280.801 432.404 280.699 432.304 280.699 432.179C280.698 432.055 280.799 431.953 280.924 431.952L282.733 431.945C282.733 431.945 282.733 431.945 282.733 431.945C282.858 431.945 282.959 432.045 282.959 432.17C282.96 432.295 282.859 432.397 282.734 432.397L280.926 432.404C280.926 432.404 280.925 432.404 280.925 432.404Z" fill="white"/>
<path d="M263.532 477.19L250.778 477.628C249.106 477.685 247.656 476.489 247.401 474.843L245.507 462.614C245.205 460.666 246.68 458.893 248.658 458.825L263.98 458.299C265.918 458.232 267.495 459.835 267.39 461.763L266.717 474.08C266.624 475.782 265.242 477.131 263.532 477.19Z" fill="url(#paint49_linear_676_690)"/>
<path opacity="0.32" d="M261.885 474.985L252.178 475.318C250.906 475.362 249.802 474.452 249.608 473.199L248.166 463.891C247.936 462.409 249.059 461.059 250.565 461.007L262.226 460.607C263.701 460.556 264.902 461.776 264.822 463.244L264.31 472.619C264.239 473.913 263.187 474.94 261.885 474.985Z" fill="url(#paint50_linear_676_690)"/>
<path d="M485.983 440.276L482.414 446.018L481.65 471.641H476.048L481.146 478.24L481.382 495.422C481.337 495.376 481.283 495.33 481.237 495.292L429.432 498.095L417.557 492.45L416.188 446.602L427.651 437.044L484.319 432.907L481.891 434.879V436.657H474.52L476.3 440.276L485.983 440.276Z" fill="url(#paint51_linear_676_690)"/>
<path d="M429.444 485.857V498.091L392.054 481.652L391.989 477.186L386.638 469.288L390.459 466.741L390.206 442.778L386.637 437.426L389.694 431.821L389.479 428.38L428.239 436.921V456.289L418.389 452.718L418.817 455.272L427.946 459.86L429.212 481.774L417.99 476.934V479.228L429.444 485.857Z" fill="url(#paint52_linear_676_690)"/>
<path d="M389.4 428.38L436.119 423.601L484.455 432.904L428.08 437.278L389.4 428.38Z" fill="url(#paint53_linear_676_690)"/>
<g opacity="0.5">
<path d="M437.457 454.76L482.246 451.709L482.177 454.001L437.457 454.76Z" fill="url(#paint54_linear_676_690)"/>
<path d="M444.717 483.21C445.481 482.669 481.182 480.948 481.182 480.948L481.236 484.776L444.717 483.21Z" fill="url(#paint55_linear_676_690)"/>
</g>
<path d="M386.637 425.13L429.432 434.433C429.432 434.433 480.124 433.095 484.454 423.41C477.067 425.704 435.545 418.312 435.545 418.312L386.637 425.13Z" fill="url(#paint56_linear_676_690)"/>
<path d="M382.307 420.607C382.307 420.607 418.479 434.625 430.196 434.625C441.914 434.625 475.886 419.332 475.886 419.332C475.886 419.332 427.394 418.158 421.79 411.991C409.308 416.019 382.307 420.607 382.307 420.607Z" fill="url(#paint57_linear_676_690)"/>
<path d="M659.328 261.817C658.72 261.641 658.098 261.512 657.469 261.431L632.341 211.926L640.013 200.776L624.171 187.352L604.256 210.981L644.817 268.215C643.817 270.38 643.52 272.789 643.967 275.122C644.414 277.455 645.582 279.6 647.317 281.273C649.052 282.945 651.272 284.066 653.68 284.486C656.088 284.906 658.571 284.605 660.798 283.623C663.025 282.641 664.892 281.024 666.148 278.989C667.405 276.953 667.993 274.595 667.833 272.228C667.674 269.86 666.774 267.596 665.255 265.737C663.736 263.877 661.669 262.51 659.328 261.817Z" fill="#FFB8B8"/>
<path d="M616.437 194.199C616.779 194.548 617.172 194.848 617.602 195.089L643.31 209.539C644.495 210.205 645.904 210.387 647.227 210.045C648.551 209.704 649.68 208.867 650.366 207.718C650.438 207.598 650.505 207.475 650.566 207.35L663.072 181.737C663.604 180.659 663.719 179.432 663.395 178.279C663.072 177.126 662.331 176.125 661.309 175.457L645.373 164.946C644.378 164.29 643.178 163.992 641.98 164.102C640.782 164.213 639.662 164.725 638.813 165.552L616.539 187.224C615.59 188.145 615.049 189.389 615.031 190.691C615.012 191.993 615.518 193.251 616.44 194.198L616.437 194.199Z" fill="#CCCCCC"/>
<path d="M580.34 477.848L593.913 481.429L614.617 432.369L594.584 427.083L580.34 477.848Z" fill="#FFB8B8"/>
<path d="M604.659 480.22L578.483 473.314L574 489.291L616.657 500.544C617.846 496.306 617.251 491.783 615.001 487.971C612.751 484.158 609.031 481.369 604.66 480.216L604.659 480.22Z" fill="#2F2E41"/>
<path d="M696.374 442.89H710.442L717.134 390.283H696.374V442.89Z" fill="#FFB8B8"/>
<path d="M720.488 454.992H693.36V471.555H737.569C737.569 469.38 737.127 467.226 736.269 465.217C735.411 463.207 734.153 461.382 732.567 459.844C730.981 458.306 729.098 457.086 727.026 456.253C724.953 455.421 722.731 454.992 720.488 454.992Z" fill="#2F2E41"/>
<path d="M681.554 145.484C665.99 145.484 653.373 133.251 653.373 118.16C653.373 103.07 665.99 90.8369 681.554 90.8369C697.117 90.8369 709.734 103.07 709.734 118.16C709.734 133.251 697.117 145.484 681.554 145.484Z" fill="#FFB8B8"/>
<path d="M697.235 450.382H716.457C717.772 450.381 719.038 449.895 719.996 449.022C720.955 448.15 721.536 446.956 721.62 445.684C727.348 357.397 723.998 294.066 711.076 246.381C711.02 246.172 710.95 245.967 710.867 245.767L709.835 243.271C709.454 242.34 708.793 241.542 707.938 240.981C707.083 240.419 706.073 240.121 705.04 240.124H665.511C664.766 240.123 664.03 240.279 663.353 240.581C662.676 240.883 662.075 241.323 661.59 241.872L656.222 247.946C656.117 248.064 656.019 248.185 655.925 248.312C631.715 281.048 610.017 345.046 584.889 431.067C584.518 432.317 584.665 433.658 585.299 434.805C585.933 435.951 587.004 436.813 588.283 437.205L608.935 443.615C610.121 443.977 611.402 443.914 612.544 443.438C613.687 442.962 614.615 442.104 615.16 441.02L668.768 333.214C669.143 332.46 669.758 331.844 670.522 331.456C671.287 331.068 672.16 330.929 673.012 331.06C673.864 331.19 674.65 331.583 675.254 332.181C675.858 332.778 676.247 333.549 676.364 334.377L692.119 446.053C692.292 447.251 692.905 448.348 693.844 449.143C694.784 449.938 695.988 450.378 697.235 450.382Z" fill="#2F2E41"/>
<path d="M658.388 248.391H658.55L706.568 246.918C707.803 246.885 708.984 246.422 709.896 245.615C710.807 244.807 711.389 243.708 711.535 242.519C717.616 194.749 700.929 181.951 693.469 178.663C692.845 178.39 692.305 177.966 691.901 177.432C691.497 176.897 691.241 176.27 691.16 175.612L690.514 170.606C690.404 169.721 690.052 168.881 689.494 168.174C677.798 153.483 661.828 148.779 653.352 147.284C652.007 147.049 650.62 147.343 649.498 148.099C648.375 148.856 647.609 150.015 647.367 151.319C647.352 151.401 647.339 151.484 647.328 151.567L646.36 158.757C646.262 159.442 645.98 160.091 645.542 160.638C621.15 191.556 648.323 237.206 654.019 246.044C654.484 246.761 655.128 247.352 655.892 247.763C656.656 248.173 657.515 248.389 658.388 248.391Z" fill="#CCCCCC"/>
<path d="M673.497 263.1L709.775 269.878L711.153 262.941L683.385 257.751L715.659 175.259L708.846 172.754L673.497 263.1Z" fill="#9747FF"/>
<path d="M624.698 123.236C630.985 114.654 638.523 107.002 647.077 100.52C654.191 95.1341 662.108 90.5318 670.838 88.3313C679.569 86.1308 689.218 86.5046 697.185 90.6108C705.152 94.7169 713.392 102.876 713.442 111.624C713.458 114.436 712.72 118.238 709.866 117.752L709.04 117.863L688.379 113.817L679.58 143.427C678.962 145.507 678.132 147.833 676.095 148.72C674.177 149.555 671.965 148.768 670.014 147.982C669.695 147.853 666.953 141.884 666.953 141.884C666.885 141.697 666.766 141.532 666.609 141.404C666.452 141.277 666.263 141.193 666.062 141.16C665.86 141.128 665.653 141.148 665.463 141.219C665.272 141.29 665.104 141.408 664.976 141.563L663.347 143.538C663.036 143.916 662.607 144.185 662.124 144.306C661.642 144.426 661.132 144.391 660.671 144.205L626.978 130.568C625.426 129.939 623.691 129.121 623.241 127.547C622.817 126.033 623.766 124.511 624.698 123.236Z" fill="#2F2E41"/>
<path d="M662.867 271.291C661.392 270.287 660.161 268.983 659.263 267.468C658.364 265.954 657.818 264.268 657.664 262.527C657.511 260.786 657.752 259.034 658.372 257.394C658.993 255.753 659.976 254.265 661.254 253.033L652.335 148.604L678.89 152.146L679.395 253.603C681.39 255.821 682.478 258.671 682.45 261.614C682.422 264.557 681.281 267.388 679.243 269.569C677.206 271.75 674.413 273.131 671.396 273.448C668.378 273.766 665.345 272.998 662.872 271.292L662.867 271.291Z" fill="#FFB8B8"/>
<path d="M650.599 208.641C651.096 208.641 651.591 208.572 652.068 208.435L680.575 200.305C681.225 200.12 681.832 199.812 682.36 199.399C682.887 198.986 683.326 198.477 683.651 197.9C683.976 197.322 684.18 196.689 684.252 196.035C684.324 195.382 684.263 194.721 684.071 194.09C684.031 193.957 683.985 193.825 683.933 193.696L673.383 167.27C672.944 166.154 672.104 165.228 671.019 164.662C669.933 164.096 668.674 163.927 667.471 164.186L648.637 168.156C647.461 168.404 646.412 169.042 645.67 169.96C644.928 170.878 644.54 172.019 644.573 173.185L645.45 203.769C645.486 205.071 646.044 206.308 647.006 207.217C647.967 208.127 649.256 208.637 650.599 208.64V208.641Z" fill="#CCCCCC"/>
<path d="M784.235 501.792H536.956C536.833 501.8 536.71 501.783 536.595 501.742C536.479 501.701 536.373 501.636 536.284 501.552C536.194 501.468 536.123 501.367 536.074 501.254C536.025 501.141 536 501.02 536 500.897C536 500.774 536.025 500.653 536.074 500.54C536.123 500.428 536.194 500.326 536.284 500.242C536.373 500.158 536.479 500.094 536.595 500.052C536.71 500.011 536.833 499.994 536.956 500.002H784.235C784.358 499.994 784.481 500.011 784.596 500.052C784.712 500.094 784.818 500.158 784.907 500.242C784.997 500.326 785.068 500.428 785.117 500.54C785.166 500.653 785.191 500.774 785.191 500.897C785.191 501.02 785.166 501.141 785.117 501.254C785.068 501.367 784.997 501.468 784.907 501.552C784.818 501.636 784.712 501.701 784.596 501.742C784.481 501.783 784.358 501.8 784.235 501.792Z" fill="#3F3D56"/>
<defs>
<linearGradient id="paint0_linear_676_690" x1="527.666" y1="564.237" x2="160.725" y2="168.393" gradientUnits="userSpaceOnUse">
<stop stop-color="#F08143"/>
<stop offset="0.934" stop-color="#9747FF"/>
<stop offset="0.9999" stop-color="#9747FF"/>
</linearGradient>
<linearGradient id="paint1_linear_676_690" x1="130.051" y1="94.0779" x2="689.557" y2="731.472" gradientUnits="userSpaceOnUse">
<stop stop-color="#2B3582"/>
<stop offset="1" stop-color="#150E42"/>
</linearGradient>
<linearGradient id="paint2_linear_676_690" x1="270.529" y1="253.596" x2="505.001" y2="536.575" gradientUnits="userSpaceOnUse">
<stop stop-color="#52F0C0"/>
<stop offset="1" stop-color="#9F71FB"/>
</linearGradient>
<linearGradient id="paint3_linear_676_690" x1="25.9346" y1="70.9762" x2="915.915" y2="751.173" gradientUnits="userSpaceOnUse">
<stop stop-color="#53D8FF"/>
<stop offset="1" stop-color="#3840F7"/>
</linearGradient>
<linearGradient id="paint4_linear_676_690" x1="-37.9183" y1="462.756" x2="747.294" y2="-43.4245" gradientUnits="userSpaceOnUse">
<stop stop-color="#53D8FF"/>
<stop offset="1" stop-color="#3840F7"/>
</linearGradient>
<linearGradient id="paint5_linear_676_690" x1="388.617" y1="375.562" x2="384.96" y2="255.794" gradientUnits="userSpaceOnUse">
<stop stop-color="#A737D5"/>
<stop offset="1" stop-color="#EF497A"/>
</linearGradient>
<linearGradient id="paint6_linear_676_690" x1="283.415" y1="256.663" x2="276.722" y2="37.423" gradientUnits="userSpaceOnUse">
<stop stop-color="#A737D5"/>
<stop offset="1" stop-color="#EF497A"/>
</linearGradient>
<linearGradient id="paint7_linear_676_690" x1="293.972" y1="259.651" x2="263.016" y2="259.651" gradientUnits="userSpaceOnUse">
<stop stop-color="#A737D5"/>
<stop offset="1" stop-color="#EF497A"/>
</linearGradient>
<linearGradient id="paint8_linear_676_690" x1="61.8652" y1="28.5097" x2="163.19" y2="116.517" gradientUnits="userSpaceOnUse">
<stop stop-color="#FDF53F"/>
<stop offset="1" stop-color="#D93C65"/>
</linearGradient>
<linearGradient id="paint9_linear_676_690" x1="99.9337" y1="466.773" x2="85.7692" y2="377.722" gradientUnits="userSpaceOnUse">
<stop stop-color="#2B3582"/>
<stop offset="0.2305" stop-color="#252A70"/>
<stop offset="0.7285" stop-color="#19164F"/>
<stop offset="1" stop-color="#150E42"/>
</linearGradient>
<linearGradient id="paint10_linear_676_690" x1="96.9266" y1="418.998" x2="92.397" y2="390.521" gradientUnits="userSpaceOnUse">
<stop stop-color="#2B3582"/>
<stop offset="0.2305" stop-color="#252A70"/>
<stop offset="0.7285" stop-color="#19164F"/>
<stop offset="1" stop-color="#150E42"/>
</linearGradient>
<linearGradient id="paint11_linear_676_690" x1="94.4629" y1="467.305" x2="79.7251" y2="374.651" gradientUnits="userSpaceOnUse">
<stop stop-color="#2B3582"/>
<stop offset="0.2305" stop-color="#252A70"/>
<stop offset="0.7285" stop-color="#19164F"/>
<stop offset="1" stop-color="#150E42"/>
</linearGradient>
<linearGradient id="paint12_linear_676_690" x1="58.5947" y1="362.598" x2="83.2614" y2="377.866" gradientUnits="userSpaceOnUse">
<stop stop-color="#2B3582"/>
<stop offset="0.2305" stop-color="#252A70"/>
<stop offset="0.7285" stop-color="#19164F"/>
<stop offset="1" stop-color="#150E42"/>
</linearGradient>
<linearGradient id="paint13_linear_676_690" x1="33.0609" y1="288.354" x2="91.5597" y2="368.496" gradientUnits="userSpaceOnUse">
<stop stop-color="#CB236D"/>
<stop offset="1" stop-color="#4C246D"/>
</linearGradient>
<linearGradient id="paint14_linear_676_690" x1="75.5245" y1="362.416" x2="115.344" y2="416.968" gradientUnits="userSpaceOnUse">
<stop stop-color="#CB236D"/>
<stop offset="1" stop-color="#4C246D"/>
</linearGradient>
<linearGradient id="paint15_linear_676_690" x1="37.2824" y1="258.307" x2="3.77931" y2="317.726" gradientUnits="userSpaceOnUse">
<stop stop-color="#F9B776"/>
<stop offset="1" stop-color="#F47960"/>
</linearGradient>
<linearGradient id="paint16_linear_676_690" x1="-6.86582" y1="268.206" x2="126.535" y2="450.962" gradientUnits="userSpaceOnUse">
<stop stop-color="#FDF53F"/>
<stop offset="1" stop-color="#D93C65"/>
</linearGradient>
<linearGradient id="paint17_linear_676_690" x1="23.4916" y1="252.649" x2="106.667" y2="265.88" gradientUnits="userSpaceOnUse">
<stop stop-color="#F9B776"/>
<stop offset="1" stop-color="#F47960"/>
</linearGradient>
<linearGradient id="paint18_linear_676_690" x1="70.6079" y1="225.935" x2="130.891" y2="444.057" gradientUnits="userSpaceOnUse">
<stop stop-color="#FDF53F"/>
<stop offset="1" stop-color="#D93C65"/>
</linearGradient>
<linearGradient id="paint19_linear_676_690" x1="213.275" y1="336.395" x2="229.075" y2="356.417" gradientUnits="userSpaceOnUse">
<stop stop-color="#2B3582"/>
<stop offset="1" stop-color="#150E42"/>
</linearGradient>
<linearGradient id="paint20_linear_676_690" x1="212.274" y1="360.151" x2="217.104" y2="349.696" gradientUnits="userSpaceOnUse">
<stop stop-color="#F9B776"/>
<stop offset="1" stop-color="#F47960"/>
</linearGradient>
<linearGradient id="paint21_linear_676_690" x1="177.939" y1="361.847" x2="136.16" y2="288.667" gradientUnits="userSpaceOnUse">
<stop stop-color="#3F2BF3"/>
<stop offset="1" stop-color="#3522CB"/>
</linearGradient>
<linearGradient id="paint22_linear_676_690" x1="231.325" y1="352.125" x2="262.122" y2="410.478" gradientUnits="userSpaceOnUse">
<stop stop-color="#2B3582"/>
<stop offset="1" stop-color="#150E42"/>
</linearGradient>
<linearGradient id="paint23_linear_676_690" x1="233.222" y1="375.097" x2="246.211" y2="346.982" gradientUnits="userSpaceOnUse">
<stop stop-color="#53D8FF"/>
<stop offset="1" stop-color="#3840F7"/>
</linearGradient>
<linearGradient id="paint24_linear_676_690" x1="218.43" y1="372.169" x2="222.964" y2="362.356" gradientUnits="userSpaceOnUse">
<stop stop-color="#F9B776"/>
<stop offset="1" stop-color="#F47960"/>
</linearGradient>
<linearGradient id="paint25_linear_676_690" x1="201.569" y1="392.197" x2="119.445" y2="351.33" gradientUnits="userSpaceOnUse">
<stop stop-color="#3F2BF3"/>
<stop offset="1" stop-color="#3522CB"/>
</linearGradient>
<linearGradient id="paint26_linear_676_690" x1="20.5656" y1="248.183" x2="153.967" y2="430.939" gradientUnits="userSpaceOnUse">
<stop stop-color="#FDF53F"/>
<stop offset="1" stop-color="#D93C65"/>
</linearGradient>
<linearGradient id="paint27_linear_676_690" x1="48.7543" y1="306.706" x2="59.2466" y2="283.994" gradientUnits="userSpaceOnUse">
<stop stop-color="#F9B776"/>
<stop offset="1" stop-color="#F47960"/>
</linearGradient>
<linearGradient id="paint28_linear_676_690" x1="40.6972" y1="265.699" x2="71.5716" y2="315.809" gradientUnits="userSpaceOnUse">
<stop stop-color="#F9B776"/>
<stop offset="1" stop-color="#F47960"/>
</linearGradient>
<linearGradient id="paint29_linear_676_690" x1="29.8663" y1="285.87" x2="43.4381" y2="251.061" gradientUnits="userSpaceOnUse">
<stop stop-color="#2B3582"/>
<stop offset="1" stop-color="#150E42"/>
</linearGradient>
<linearGradient id="paint30_linear_676_690" x1="54.541" y1="319.019" x2="39.6612" y2="286.303" gradientUnits="userSpaceOnUse">
<stop stop-color="#F9B776"/>
<stop offset="1" stop-color="#F47960"/>
</linearGradient>
<linearGradient id="paint31_linear_676_690" x1="121.805" y1="475.579" x2="120.16" y2="465.239" gradientUnits="userSpaceOnUse">
<stop stop-color="#53D8FF"/>
<stop offset="1" stop-color="#3840F7"/>
</linearGradient>
<linearGradient id="paint32_linear_676_690" x1="121.399" y1="473.604" x2="120.577" y2="468.433" gradientUnits="userSpaceOnUse">
<stop stop-color="#2B3582"/>
<stop offset="0.2305" stop-color="#252A70"/>
<stop offset="0.7285" stop-color="#19164F"/>
<stop offset="1" stop-color="#150E42"/>
</linearGradient>
<linearGradient id="paint33_linear_676_690" x1="71.0843" y1="475.579" x2="69.4395" y2="465.239" gradientUnits="userSpaceOnUse">
<stop stop-color="#53D8FF"/>
<stop offset="1" stop-color="#3840F7"/>
</linearGradient>
<linearGradient id="paint34_linear_676_690" x1="70.6791" y1="473.604" x2="69.8567" y2="468.433" gradientUnits="userSpaceOnUse">
<stop stop-color="#2B3582"/>
<stop offset="0.2305" stop-color="#252A70"/>
<stop offset="0.7285" stop-color="#19164F"/>
<stop offset="1" stop-color="#150E42"/>
</linearGradient>
<linearGradient id="paint35_linear_676_690" x1="170.48" y1="348.486" x2="218.785" y2="364.32" gradientUnits="userSpaceOnUse">
<stop stop-color="#2B3582"/>
<stop offset="1" stop-color="#150E42"/>
</linearGradient>
<linearGradient id="paint36_linear_676_690" x1="236.83" y1="316.799" x2="271.633" y2="353.564" gradientUnits="userSpaceOnUse">
<stop stop-color="#2B3582"/>
<stop offset="1" stop-color="#150E42"/>
</linearGradient>
<linearGradient id="paint37_linear_676_690" x1="283.925" y1="425.786" x2="230.612" y2="425.786" gradientUnits="userSpaceOnUse">
<stop stop-color="#9CFFFB"/>
<stop offset="1" stop-color="#9BFFFA"/>
</linearGradient>
<linearGradient id="paint38_linear_676_690" x1="277.769" y1="425.785" x2="224.456" y2="425.785" gradientUnits="userSpaceOnUse">
<stop stop-color="#9CFFFB"/>
<stop offset="1" stop-color="#9BFFFA"/>
</linearGradient>
<linearGradient id="paint39_linear_676_690" x1="133.269" y1="425.786" x2="79.9566" y2="425.786" gradientUnits="userSpaceOnUse">
<stop stop-color="#9CFFFB"/>
<stop offset="1" stop-color="#9BFFFA"/>
</linearGradient>
<linearGradient id="paint40_linear_676_690" x1="127.114" y1="425.785" x2="73.8008" y2="425.785" gradientUnits="userSpaceOnUse">
<stop stop-color="#9CFFFB"/>
<stop offset="1" stop-color="#9BFFFA"/>
</linearGradient>
<linearGradient id="paint41_linear_676_690" x1="296.497" y1="369.8" x2="70.3725" y2="369.8" gradientUnits="userSpaceOnUse">
<stop stop-color="#9CFFFB"/>
<stop offset="1" stop-color="#9BFFFA"/>
</linearGradient>
<linearGradient id="paint42_linear_676_690" x1="259.727" y1="550.018" x2="254.2" y2="427.719" gradientUnits="userSpaceOnUse">
<stop stop-color="#CB236D"/>
<stop offset="1" stop-color="#4C246D"/>
</linearGradient>
<linearGradient id="paint43_linear_676_690" x1="234.702" y1="437.741" x2="233.622" y2="423.481" gradientUnits="userSpaceOnUse">
<stop stop-color="#CB236D"/>
<stop offset="1" stop-color="#4C246D"/>
</linearGradient>
<linearGradient id="paint44_linear_676_690" x1="233.222" y1="416.326" x2="237.573" y2="457.153" gradientUnits="userSpaceOnUse">
<stop stop-color="#CB236D"/>
<stop offset="1" stop-color="#4C246D"/>
</linearGradient>
<linearGradient id="paint45_linear_676_690" x1="274.41" y1="434.735" x2="273.331" y2="420.475" gradientUnits="userSpaceOnUse">
<stop stop-color="#CB236D"/>
<stop offset="1" stop-color="#4C246D"/>
</linearGradient>
<linearGradient id="paint46_linear_676_690" x1="272.782" y1="412.11" x2="277.133" y2="452.937" gradientUnits="userSpaceOnUse">
<stop stop-color="#CB236D"/>
<stop offset="1" stop-color="#4C246D"/>
</linearGradient>
<linearGradient id="paint47_linear_676_690" x1="255.763" y1="392.74" x2="252.787" y2="422.026" gradientUnits="userSpaceOnUse">
<stop stop-color="#CB236D"/>
<stop offset="1" stop-color="#4C246D"/>
</linearGradient>
<linearGradient id="paint48_linear_676_690" x1="257.74" y1="415.401" x2="247.828" y2="551.936" gradientUnits="userSpaceOnUse">
<stop stop-color="#CB236D"/>
<stop offset="1" stop-color="#4C246D"/>
</linearGradient>
<linearGradient id="paint49_linear_676_690" x1="259.373" y1="432.153" x2="255.19" y2="477.842" gradientUnits="userSpaceOnUse">
<stop stop-color="#A737D5"/>
<stop offset="1" stop-color="#EF497A"/>
</linearGradient>
<linearGradient id="paint50_linear_676_690" x1="248.298" y1="468.268" x2="264.984" y2="467.696" gradientUnits="userSpaceOnUse">
<stop stop-color="white"/>
<stop offset="1" stop-color="white"/>
</linearGradient>
<linearGradient id="paint51_linear_676_690" x1="453.385" y1="462.118" x2="412.125" y2="541.806" gradientUnits="userSpaceOnUse">
<stop stop-color="#FDF53F"/>
<stop offset="1" stop-color="#D93C65"/>
</linearGradient>
<linearGradient id="paint52_linear_676_690" x1="259.884" y1="560.11" x2="593.057" y2="344.571" gradientUnits="userSpaceOnUse">
<stop stop-color="#FDF53F"/>
<stop offset="1" stop-color="#D93C65"/>
</linearGradient>
<linearGradient id="paint53_linear_676_690" x1="452.977" y1="392.325" x2="397.301" y2="525.098" gradientUnits="userSpaceOnUse">
<stop stop-color="#FDF53F"/>
<stop offset="1" stop-color="#D93C65"/>
</linearGradient>
<linearGradient id="paint54_linear_676_690" x1="518.044" y1="336.601" x2="369.086" y2="637.578" gradientUnits="userSpaceOnUse">
<stop stop-color="#FDF53F"/>
<stop offset="1" stop-color="#D93C65"/>
</linearGradient>
<linearGradient id="paint55_linear_676_690" x1="522.742" y1="377.78" x2="387.332" y2="618.162" gradientUnits="userSpaceOnUse">
<stop stop-color="#FDF53F"/>
<stop offset="1" stop-color="#D93C65"/>
</linearGradient>
<linearGradient id="paint56_linear_676_690" x1="475.607" y1="328.114" x2="399.08" y2="511.59" gradientUnits="userSpaceOnUse">
<stop stop-color="#FDF53F"/>
<stop offset="1" stop-color="#D93C65"/>
</linearGradient>
<linearGradient id="paint57_linear_676_690" x1="396.061" y1="446.173" x2="297.692" y2="524.111" gradientUnits="userSpaceOnUse">
<stop stop-color="#FDF53F"/>
<stop offset="1" stop-color="#D93C65"/>
</linearGradient>
</defs>
</svg>
