<?xml version="1.0" encoding="utf-8"?>
<!-- Generator: Adobe Illustrator 27.5.0, SVG Export Plug-In . SVG Version: 6.00 Build 0)  -->
<svg version="1.1" id="Layer_1" xmlns="http://www.w3.org/2000/svg" xmlns:xlink="http://www.w3.org/1999/xlink" x="0px" y="0px"
	 viewBox="0 0 9000 6000" style="enable-background:new 0 0 9000 6000;" xml:space="preserve">
<g id="Layer_x5F_1">
	<g id="_2196393568480">
		<rect style="fill-rule:evenodd;clip-rule:evenodd;" width="9000" height="6000"/>
		<g>
			<g>
				<polygon style="fill-rule:evenodd;clip-rule:evenodd;fill:#FFFFFF;" points="1581.34,1056.37 264.59,1056.37 264.59,2105.13 
									"/>
				<polygon style="fill-rule:evenodd;clip-rule:evenodd;fill:#FFFFFF;" points="365,2602.8 365,5237.11 1297.44,5237.11 				"/>
				<polygon style="fill-rule:evenodd;clip-rule:evenodd;fill:#FFFFFF;" points="1626.69,2876.37 1457.46,4500.26 956.77,2827.63 
									"/>
				<polygon style="fill-rule:evenodd;clip-rule:evenodd;fill:#FFFFFF;" points="586.34,2405.12 2379.28,838.31 1556.64,2378.31 
									"/>
				<polygon style="fill-rule:evenodd;clip-rule:evenodd;fill:#FFFFFF;" points="198.47,160.43 2467.16,163 910.75,750.35 				"/>
				<polygon style="fill-rule:evenodd;clip-rule:evenodd;fill:#FFFFFF;" points="273.4,5435.71 1826.55,5437.48 761.03,5839.57 				
					"/>
			</g>
			<g>
				<polygon style="fill-rule:evenodd;clip-rule:evenodd;fill:#FFFFFF;" points="7418.66,1056.37 8735.41,1056.37 8735.41,2105.13 
									"/>
				<polygon style="fill-rule:evenodd;clip-rule:evenodd;fill:#FFFFFF;" points="8635,2602.8 8635,5237.11 7702.56,5237.11 				"/>
				<polygon style="fill-rule:evenodd;clip-rule:evenodd;fill:#FFFFFF;" points="7373.31,2876.37 7542.54,4500.26 8043.23,2827.63 
									"/>
				<polygon style="fill-rule:evenodd;clip-rule:evenodd;fill:#FFFFFF;" points="8413.66,2405.12 6620.72,838.31 7443.36,2378.31 
									"/>
				<polygon style="fill-rule:evenodd;clip-rule:evenodd;fill:#FFFFFF;" points="8801.53,160.43 6532.84,163 8089.25,750.35 				"/>
				<polygon style="fill-rule:evenodd;clip-rule:evenodd;fill:#FFFFFF;" points="8726.6,5435.71 7173.45,5437.48 8238.97,5839.57 
									"/>
			</g>
		</g>
	</g>
</g>
</svg>
