<?xml version="1.0" encoding="utf-8"?>
<!-- Generator: Adobe Illustrator 27.5.0, SVG Export Plug-In . SVG Version: 6.00 Build 0)  -->
<svg version="1.1" xmlns="http://www.w3.org/2000/svg" xmlns:xlink="http://www.w3.org/1999/xlink" x="0px" y="0px"
	 viewBox="0 0 857 1200" style="enable-background:new 0 0 857 1200;" xml:space="preserve">
<g id="Background">
	
		<rect x="-171.5" y="171.5" transform="matrix(6.123234e-17 -1 1 6.123234e-17 -171.5 1028.5)" style="fill:#FAFDFF;" width="1200" height="857"/>
</g>
<g id="Graphic_elements">
	<g>
		<defs>
			
				<rect id="SVGID_1_" x="-171.5" y="171.5" transform="matrix(-1.836970e-16 1 -1 -1.836970e-16 1028.5 171.5)" width="1200" height="857"/>
		</defs>
		<clipPath id="SVGID_00000087380841569963170530000006289288162523984042_">
			<use xlink:href="#SVGID_1_"  style="overflow:visible;"/>
		</clipPath>
		<g style="clip-path:url(#SVGID_00000087380841569963170530000006289288162523984042_);">
			<path style="fill:#B3DCF0;" d="M163.517,1106.633l-127.15-127.15c-3.849-3.849-3.849-10.089,0-13.937l127.15-127.15
				c3.849-3.849,10.089-3.849,13.937,0l127.15,127.15c3.849,3.849,3.849,10.089,0,13.937l-127.15,127.15
				C173.605,1110.481,167.365,1110.481,163.517,1106.633z"/>
			
				<rect x="223.891" y="1025.92" transform="matrix(0.7071 0.7071 -0.7071 0.7071 890.7751 100.8469)" style="fill:none;stroke:#B3DCF0;stroke-width:0.8748;stroke-linecap:round;stroke-linejoin:round;stroke-miterlimit:10;" width="199.527" height="199.527"/>
			<path style="fill:#F2F9FF;" d="M163.611,485.409l-127.15-127.15c-3.849-3.849-3.849-10.089,0-13.937l127.15-127.15
				c3.849-3.849,10.089-3.849,13.937,0l127.15,127.15c3.849,3.849,3.849,10.089,0,13.937l-127.15,127.15
				C173.7,489.257,167.46,489.257,163.611,485.409z"/>
			<path style="fill:#B3DCF0;" d="M6.121,642.899l-127.15-127.15c-3.849-3.849-3.849-10.089,0-13.937l127.15-127.15
				c3.849-3.849,10.089-3.849,13.937,0l127.15,127.15c3.849,3.849,3.849,10.089,0,13.937l-127.15,127.15
				C16.21,646.747,9.97,646.747,6.121,642.899z"/>
			
				<rect x="226.099" y="406.809" transform="matrix(0.7071 0.7071 -0.7071 0.7071 453.644 -82.0475)" style="opacity:0.5;fill:none;stroke:#62ACD9;stroke-width:0.8748;stroke-linecap:round;stroke-linejoin:round;stroke-miterlimit:10;" width="199.527" height="199.527"/>
			<path style="fill:#F2F9FF;" d="M474.176,795.974l-127.15-127.15c-3.849-3.849-3.849-10.089,0-13.937l127.15-127.15
				c3.849-3.849,10.089-3.849,13.937,0l127.15,127.15c3.849,3.849,3.849,10.089,0,13.937l-127.15,127.15
				C484.264,799.822,478.025,799.822,474.176,795.974z"/>
			<path style="fill:#E7F6FF;" d="M8.234,951.35l-127.15-127.15c-3.849-3.849-3.849-10.089,0-13.937l280.319-280.319
				c3.849-3.849,10.089-3.849,13.937,0l127.15,127.15c3.849,3.849,3.849,10.089,0,13.937L22.172,951.35
				C18.323,955.199,12.083,955.199,8.234,951.35z"/>
			<path style="fill:#77BAD5;" d="M316.686,953.464l-127.15-127.149c-3.849-3.849-3.849-10.089,0-13.937l127.15-127.15
				c3.849-3.849,10.089-3.849,13.937,0l127.15,127.15c3.849,3.849,3.849,10.089,0,13.937l-127.15,127.149
				C326.775,957.312,320.535,957.312,316.686,953.464z"/>
		</g>
	</g>
</g>
</svg>
