<svg width="1017" height="172" viewBox="0 0 1017 172" fill="none" xmlns="http://www.w3.org/2000/svg">
<g filter="url(#filter0_d_697_580)">
<path d="M4 0H1012.5L876.25 164H4V0Z" fill="white"/>
</g>
<path d="M675.4 109V54.6H697.56C700.547 54.6 703.133 55.2667 705.32 56.6C707.56 57.88 709.267 59.5867 710.44 61.72C711.667 63.8 712.28 66.0667 712.28 68.52C712.28 71.4 711.667 73.8 710.44 75.72C709.267 77.64 707.693 79.0533 705.72 79.96C707.693 80.3867 709.533 81.1867 711.24 82.36C712.947 83.48 714.333 84.9733 715.4 86.84C716.467 88.6533 717 90.7867 717 93.24C717 96.3867 716.387 99.16 715.16 101.56C713.987 103.907 712.227 105.747 709.88 107.08C707.587 108.36 704.733 109 701.32 109H675.4ZM689.56 98.28H697.56C698.787 98.28 699.907 97.7733 700.92 96.76C701.987 95.6933 702.52 94.4933 702.52 93.16C702.52 92.2533 702.28 91.4 701.8 90.6C701.32 89.8 700.68 89.16 699.88 88.68C699.133 88.1467 698.28 87.88 697.32 87.88H689.56V98.28ZM689.56 76.6H693.64C695.027 76.6 696.227 75.9867 697.24 74.76C698.307 73.5333 698.84 72.3067 698.84 71.08C698.84 69.64 698.333 68.3333 697.32 67.16C696.307 65.9867 695.267 65.4 694.2 65.4H689.56V76.6ZM722.978 109V49H737.138V109H722.978ZM766.027 109.8C761.814 109.8 758.054 109.08 754.747 107.64C751.44 106.2 748.854 104.12 746.987 101.4C745.12 98.6267 744.187 95.32 744.187 91.48C744.187 87.6933 745.147 84.44 747.067 81.72C748.987 78.9467 751.6 76.8133 754.907 75.32C758.214 73.8267 761.92 73.08 766.027 73.08C770.134 73.08 773.814 73.8267 777.067 75.32C780.32 76.8133 782.907 78.9467 784.827 81.72C786.747 84.44 787.707 87.6933 787.707 91.48C787.707 95.32 786.774 98.6267 784.907 101.4C783.04 104.12 780.48 106.2 777.227 107.64C773.974 109.08 770.24 109.8 766.027 109.8ZM766.027 99.4C768.107 99.4 769.6 99 770.507 98.2C771.467 97.3467 772.054 96.3067 772.267 95.08C772.534 93.8 772.667 92.5467 772.667 91.32C772.667 90.1467 772.507 88.9733 772.187 87.8C771.92 86.5733 771.307 85.56 770.347 84.76C769.44 83.9067 768 83.48 766.027 83.48C764 83.48 762.507 83.9067 761.547 84.76C760.587 85.56 759.974 86.5733 759.707 87.8C759.44 88.9733 759.307 90.1467 759.307 91.32C759.307 92.5467 759.414 93.8 759.627 95.08C759.894 96.3067 760.507 97.3467 761.467 98.2C762.427 99 763.947 99.4 766.027 99.4ZM814.628 129C812.175 129 809.668 128.707 807.108 128.12C804.601 127.587 802.255 126.707 800.068 125.48C797.935 124.253 796.175 122.627 794.788 120.6C793.455 118.627 792.735 116.173 792.628 113.24H806.788C807.161 115.053 807.988 116.467 809.268 117.48C810.548 118.493 812.041 119 813.748 119C815.348 119 816.735 118.547 817.908 117.64C819.081 116.787 819.988 115.667 820.628 114.28C821.321 112.947 821.668 111.56 821.668 110.12V105.24C820.868 106.52 819.801 107.507 818.468 108.2C817.135 108.84 815.695 109.267 814.148 109.48C812.655 109.693 811.268 109.8 809.988 109.8C806.681 109.8 803.695 108.947 801.028 107.24C798.361 105.48 796.255 103.213 794.708 100.44C793.161 97.6133 792.388 94.5733 792.388 91.32C792.388 88.0667 793.161 85.0533 794.708 82.28C796.255 79.4533 798.361 77.1867 801.028 75.48C803.695 73.7733 806.681 72.92 809.988 72.92C811.268 72.92 812.548 73 813.828 73.16C815.161 73.32 816.468 73.72 817.748 74.36C819.081 74.9467 820.388 75.9867 821.668 77.48V73.72H835.828V108.28C835.828 112.333 834.868 115.907 832.948 119C831.028 122.147 828.468 124.6 825.268 126.36C822.068 128.12 818.521 129 814.628 129ZM814.628 98.84C815.961 98.84 817.161 98.4933 818.228 97.8C819.295 97.1067 820.121 96.2 820.708 95.08C821.348 93.9067 821.668 92.6533 821.668 91.32C821.668 89.9867 821.348 88.76 820.708 87.64C820.121 86.52 819.295 85.6133 818.228 84.92C817.161 84.1733 815.961 83.8 814.628 83.8C813.295 83.8 812.095 84.1733 811.028 84.92C809.961 85.6133 809.108 86.52 808.468 87.64C807.881 88.76 807.588 89.9867 807.588 91.32C807.588 92.6 807.881 93.8267 808.468 95C809.108 96.12 809.961 97.0533 811.028 97.8C812.095 98.4933 813.295 98.84 814.628 98.84Z" fill="#0C0C0C"/>
<defs>
<filter id="filter0_d_697_580" x="0" y="0" width="1016.5" height="172" filterUnits="userSpaceOnUse" color-interpolation-filters="sRGB">
<feFlood flood-opacity="0" result="BackgroundImageFix"/>
<feColorMatrix in="SourceAlpha" type="matrix" values="0 0 0 0 0 0 0 0 0 0 0 0 0 0 0 0 0 0 127 0" result="hardAlpha"/>
<feOffset dy="4"/>
<feGaussianBlur stdDeviation="2"/>
<feComposite in2="hardAlpha" operator="out"/>
<feColorMatrix type="matrix" values="0 0 0 0 0 0 0 0 0 0 0 0 0 0 0 0 0 0 0.25 0"/>
<feBlend mode="normal" in2="BackgroundImageFix" result="effect1_dropShadow_697_580"/>
<feBlend mode="normal" in="SourceGraphic" in2="effect1_dropShadow_697_580" result="shape"/>
</filter>
</defs>
</svg>
