<svg width="797" height="454" viewBox="0 0 797 454" fill="none" xmlns="http://www.w3.org/2000/svg">
<path d="M686.14 87.5653C670.563 73.4333 649.896 64.2646 625.397 62.8617C598.372 61.3144 570.981 65.2029 544.345 60.268C504.2 52.8304 469.518 26.0785 429.555 17.6753C390.058 9.37006 348.962 19.7822 311.641 35.421C274.321 51.0598 239.164 71.9254 201.253 85.9917C179.761 93.9656 156.76 100.119 139.5 115.473C123.812 129.428 113 150.773 93.147 157.047C72.9159 163.441 49.4762 151.679 30.4381 161.169C9.84876 171.433 6.53108 199.598 6.4796 223.058C6.37867 268.615 8.17729 314.223 13.4904 359.454C15.0216 372.491 17.018 385.981 24.0803 396.939C35.8835 415.254 58.6944 422.072 79.8389 425.584C125.763 433.211 172.665 431.62 219.052 427.982C364.109 416.605 512.108 383.369 630.737 297.084C662.502 273.979 692.673 246.111 708.429 209.608C728.106 164.019 717.318 115.85 686.14 87.5653Z" fill="#A560D8" fill-opacity="0.45"/>
<path d="M540.497 129.449H564.71V288.7H540.497V129.449Z" fill="white"/>
<path d="M506.554 150.683H530.767V309.934H506.554V150.683Z" fill="white"/>
<path d="M472.418 178.642H496.631V337.893H472.418V178.642Z" fill="white"/>
<path d="M440.991 243.674H465.204V402.925H440.991V243.674Z" fill="white"/>
<path d="M375.775 224.663H399.988V383.913H375.775V224.663Z" fill="white"/>
<path d="M342.782 122.802H366.995V383.093H342.782V122.802Z" fill="white"/>
<path d="M245.188 125.81H269.401V407.36H245.188V125.81Z" fill="white"/>
<path d="M210.954 154.87H235.167V436.419H210.954V154.87Z" fill="white"/>
<path d="M176.826 201.195H201.039V433.012H176.826V201.195Z" fill="white"/>
<path d="M309.046 160.975H333.259V386.1H309.046V160.975Z" fill="white"/>
<path d="M276.97 97.4663H301.183V384.515H276.97V97.4663Z" fill="white"/>
<path d="M598.482 263.569C599.054 263.569 599.519 263.105 599.519 262.532V178.412C599.519 177.839 599.054 177.375 598.482 177.375C597.91 177.375 597.445 177.839 597.445 178.412V262.532C597.445 263.105 597.91 263.569 598.482 263.569Z" fill="#42A147"/>
<path d="M598.607 207.186C592.31 197.403 581.756 190.472 570.282 188.585C568.823 188.345 567.352 188.183 565.881 188.021C567.423 193.813 571.124 198.954 576.026 202.4C580.927 205.846 587.059 207.501 593.027 206.987C594.923 206.823 596.904 206.336 598.607 207.186Z" fill="#42A147"/>
<path d="M598.039 223.605C604.336 213.822 614.89 206.892 626.364 205.005C627.823 204.765 629.294 204.603 630.764 204.44C629.223 210.233 625.522 215.374 620.62 218.82C615.718 222.266 609.587 223.92 603.618 223.406C601.723 223.244 599.742 222.756 598.039 223.605Z" fill="#42A147"/>
<path d="M598.123 184.363C584.539 184.363 573.528 173.344 573.528 159.752C573.528 146.16 584.539 135.141 598.123 135.141C611.706 135.141 622.717 146.16 622.717 159.752C622.717 173.344 611.706 184.363 598.123 184.363Z" fill="#F08143"/>
<path d="M598.123 180.326C609.459 180.326 618.682 171.096 618.682 159.753C618.682 148.409 609.458 139.18 598.123 139.18C586.787 139.18 577.563 148.41 577.563 159.753C577.563 171.096 586.787 180.326 598.123 180.326Z" fill="white"/>
<path d="M596.941 175.576L596.986 173.39C596.829 173.401 596.67 173.412 596.513 173.423C596.356 173.435 596.197 173.433 596.037 173.416C593.893 173.382 592.267 172.908 591.158 171.993C590.049 171.079 589.446 169.899 589.343 168.45C589.278 167.529 589.477 166.695 589.94 165.948C590.404 165.201 591.095 164.795 592.016 164.73C592.254 164.714 592.378 164.785 592.388 164.942C592.396 165.049 592.336 165.158 592.212 165.272C592.114 165.385 592.004 165.611 591.883 165.949C591.761 166.29 591.694 166.566 591.683 166.778C591.664 166.885 591.658 166.985 591.664 167.077C591.671 167.169 591.677 167.254 591.682 167.333C591.778 168.703 592.355 169.752 593.41 170.485C594.467 171.218 595.674 171.656 597.032 171.798L597.42 160.938C596.54 160.472 595.687 159.976 594.857 159.451C594.027 158.928 593.298 158.358 592.675 157.74C592.048 157.097 591.562 156.404 591.22 155.661C590.877 154.917 590.678 154.152 590.623 153.361C590.531 152.045 590.816 150.762 591.482 149.511C592.149 148.26 593.139 147.218 594.456 146.386C595.546 145.726 596.719 145.288 597.971 145.067L598.028 143.04C598.039 142.827 598.107 142.663 598.231 142.549C598.355 142.435 598.496 142.371 598.654 142.36C598.811 142.349 598.967 142.392 599.118 142.487C599.269 142.582 599.34 142.736 599.329 142.949L599.233 144.979C600.764 144.952 602.054 145.323 603.099 146.097C604.145 146.87 604.731 148.164 604.858 149.98C604.908 150.691 604.769 151.251 604.44 151.657C604.111 152.064 603.763 152.28 603.395 152.305C603.131 152.324 602.895 152.241 602.683 152.057C602.472 151.874 602.352 151.572 602.322 151.151C602.316 151.072 602.311 150.986 602.304 150.894C602.296 150.802 602.304 150.702 602.323 150.595C602.375 150.221 602.389 149.849 602.363 149.481C602.301 148.587 602.014 147.814 601.506 147.16C600.997 146.509 600.227 146.166 599.194 146.132L598.809 158.184L600.95 159.303C602.349 160.025 603.484 160.672 604.358 161.246C605.231 161.82 605.882 162.428 606.31 163.073C606.738 163.717 606.986 164.501 607.049 165.422C607.056 165.526 607.056 165.626 607.05 165.719C607.043 165.812 607.044 165.911 607.051 166.016C607.019 167.818 606.257 169.392 604.765 170.741C603.274 172.089 601.125 172.926 598.32 173.257L598.238 175.486C598.227 175.698 598.158 175.861 598.035 175.977C597.91 176.091 597.77 176.154 597.612 176.166C597.454 176.177 597.298 176.127 597.146 176.019C596.997 175.909 596.928 175.762 596.941 175.576ZM597.532 157.439L597.904 146.342C597.048 146.589 596.313 147.029 595.696 147.667C595.08 148.307 594.609 149.048 594.286 149.89C593.962 150.733 593.831 151.603 593.895 152.497C593.935 153.076 594.068 153.649 594.292 154.215C594.517 154.781 594.857 155.286 595.311 155.731C595.624 156.053 595.969 156.353 596.345 156.631C596.722 156.908 597.118 157.178 597.532 157.439ZM598.347 171.867L598.82 171.834C599.32 171.798 599.81 171.732 600.293 171.631C600.775 171.531 601.221 171.386 601.631 171.199C602.479 170.849 603.126 170.367 603.572 169.754C604.018 169.141 604.277 168.579 604.346 168.072C604.403 167.751 604.421 167.446 604.401 167.156C604.343 166.34 604.042 165.62 603.497 164.998C602.951 164.375 602.255 163.789 601.41 163.239C600.565 162.69 599.662 162.158 598.701 161.644L598.347 171.867Z" fill="#F08143"/>
<path d="M712.977 170.911C713.549 170.911 714.013 170.447 714.013 169.874V85.7543C714.013 85.1816 713.549 84.717 712.977 84.717C712.405 84.717 711.94 85.1816 711.94 85.7543V169.874C711.94 170.448 712.405 170.911 712.977 170.911Z" fill="#42A147"/>
<path d="M713.103 114.528C706.806 104.745 696.252 97.8147 684.778 95.928C683.318 95.6876 681.848 95.526 680.377 95.3634C681.918 101.156 685.62 106.297 690.522 109.743C695.424 113.189 701.555 114.843 707.523 114.329C709.418 114.166 711.4 113.679 713.103 114.528Z" fill="#42A147"/>
<path d="M712.535 130.948C718.832 121.165 729.385 114.234 740.86 112.348C742.319 112.107 743.79 111.946 745.26 111.783C743.719 117.575 740.018 122.716 735.115 126.162C730.213 129.608 724.082 131.263 718.114 130.749C716.219 130.586 714.236 130.098 712.535 130.948Z" fill="#42A147"/>
<path d="M712.618 91.7052C726.201 91.7052 737.213 80.6866 737.213 67.0946C737.213 53.5025 726.201 42.4839 712.618 42.4839C699.035 42.4839 688.024 53.5025 688.024 67.0946C688.024 80.6866 699.035 91.7052 712.618 91.7052Z" fill="#F08143"/>
<path d="M712.618 87.6682C701.282 87.6682 692.059 78.4388 692.059 67.0955C692.059 55.7522 701.283 46.5228 712.618 46.5228C723.954 46.5228 733.178 55.7522 733.178 67.0955C733.178 78.4388 723.955 87.6682 712.618 87.6682Z" fill="white"/>
<path d="M711.297 82.9182L711.343 80.7326C711.185 80.7437 711.027 80.7548 710.869 80.7659C710.712 80.7771 710.553 80.775 710.393 80.7589C708.249 80.7245 706.623 80.2508 705.515 79.3358C704.405 78.4217 703.802 77.241 703.699 75.7927C703.634 74.8716 703.833 74.0373 704.296 73.2909C704.76 72.5435 705.451 72.1375 706.373 72.0729C706.61 72.0567 706.734 72.1274 706.744 72.285C706.751 72.391 706.693 72.5001 706.568 72.6142C706.471 72.7274 706.361 72.9536 706.239 73.2919C706.117 73.6323 706.051 73.908 706.04 74.1201C706.02 74.2272 706.014 74.3272 706.02 74.4191C706.027 74.512 706.033 74.5969 706.039 74.6756C706.134 76.0452 706.711 77.0946 707.767 77.8279C708.823 78.5601 710.03 78.9984 711.388 79.1409L711.777 68.2803C710.896 67.8147 710.044 67.3188 709.213 66.7936C708.383 66.2704 707.654 65.7008 707.031 65.0827C706.404 64.4393 705.918 63.7464 705.576 63.0031C705.233 62.2597 705.034 61.4941 704.979 60.7033C704.887 59.3873 705.173 58.1046 705.839 56.8532C706.505 55.6028 707.495 54.5605 708.812 53.7282C709.902 53.0687 711.075 52.6304 712.328 52.4092L712.384 50.3821C712.395 50.17 712.463 50.0054 712.587 49.8913C712.711 49.7771 712.853 49.7135 713.01 49.7024C713.167 49.6913 713.323 49.7347 713.474 49.8296C713.626 49.9246 713.696 50.0781 713.685 50.2912L713.589 52.3213C715.121 52.294 716.41 52.6657 717.455 53.4394C718.501 54.212 719.087 55.5069 719.214 57.3228C719.264 58.0339 719.126 58.5934 718.796 58.9994C718.467 59.4065 718.119 59.6226 717.751 59.6479C717.487 59.666 717.251 59.5832 717.039 59.3994C716.828 59.2166 716.708 58.9146 716.678 58.4934C716.672 58.4146 716.667 58.3288 716.66 58.2369C716.653 58.145 716.66 58.045 716.679 57.9379C716.731 57.5632 716.746 57.1915 716.719 56.8239C716.657 55.929 716.37 55.1564 715.862 54.5029C715.354 53.8515 714.584 53.5081 713.55 53.4747L713.165 65.5261L715.306 66.6451C716.705 67.3673 717.841 68.0147 718.714 68.5884C719.587 69.1621 720.238 69.7701 720.666 70.4155C721.094 71.0598 721.342 71.8436 721.406 72.7647C721.413 72.8688 721.413 72.9687 721.407 73.0617C721.4 73.1546 721.401 73.2536 721.408 73.3586C721.375 75.1604 720.613 76.734 719.122 78.0834C717.63 79.4317 715.481 80.269 712.676 80.5993L712.594 82.8284C712.583 83.0405 712.514 83.2031 712.391 83.3192C712.266 83.4333 712.126 83.497 711.968 83.5081C711.81 83.5192 711.654 83.4697 711.502 83.3616C711.354 83.2516 711.284 83.1041 711.297 82.9182ZM711.889 64.7817L712.26 53.6848C711.404 53.9312 710.669 54.3716 710.053 55.0099C709.436 55.6493 708.966 56.3906 708.643 57.2329C708.319 58.0753 708.187 58.9459 708.251 59.8397C708.291 60.4185 708.425 60.9912 708.649 61.5578C708.873 62.1234 709.213 62.6284 709.667 63.0738C709.98 63.396 710.325 63.6959 710.702 63.9737C711.078 64.2504 711.474 64.5201 711.889 64.7817ZM712.702 79.2095L713.176 79.1762C713.675 79.1408 714.166 79.0742 714.648 78.9732C715.131 78.8732 715.576 78.7288 715.987 78.5419C716.834 78.1915 717.481 77.7097 717.927 77.0966C718.374 76.4835 718.632 75.922 718.702 75.415C718.758 75.0938 718.776 74.7888 718.756 74.4989C718.699 73.6828 718.397 72.9627 717.852 72.3405C717.306 71.7174 716.61 71.1316 715.765 70.5811C714.921 70.0327 714.017 69.5004 713.056 68.9863L712.702 79.2095Z" fill="#F08143"/>
<path d="M541.466 294.729C541.865 294.729 542.19 294.405 542.19 294.004V235.159C542.19 234.758 541.865 234.433 541.466 234.433C541.066 234.433 540.741 234.758 540.741 235.159V294.004C540.741 294.405 541.066 294.729 541.466 294.729Z" fill="#42A147"/>
<path d="M541.553 255.286C537.149 248.442 529.765 243.594 521.738 242.274C520.718 242.106 519.688 241.992 518.66 241.879C519.738 245.931 522.328 249.528 525.756 251.939C529.185 254.35 533.475 255.506 537.649 255.147C538.977 255.033 540.362 254.692 541.553 255.286Z" fill="#42A147"/>
<path d="M541.156 266.773C545.561 259.929 552.944 255.081 560.971 253.761C561.992 253.593 563.021 253.479 564.05 253.366C562.972 257.418 560.382 261.015 556.953 263.425C553.524 265.836 549.235 266.993 545.06 266.634C543.734 266.519 542.347 266.179 541.156 266.773Z" fill="#42A147"/>
<path d="M541.215 239.321C550.717 239.321 558.42 231.613 558.42 222.104C558.42 212.596 550.717 204.888 541.215 204.888C531.713 204.888 524.01 212.596 524.01 222.104C524.01 231.613 531.713 239.321 541.215 239.321Z" fill="#F08143"/>
<path d="M541.215 236.496C533.285 236.496 526.833 230.04 526.833 222.104C526.833 214.169 533.285 207.713 541.215 207.713C549.146 207.713 555.597 214.169 555.597 222.104C555.598 230.04 549.146 236.496 541.215 236.496Z" fill="white"/>
<path d="M540.291 233.174L540.322 231.645C540.212 231.653 540.101 231.66 539.991 231.668C539.881 231.676 539.77 231.674 539.658 231.663C538.158 231.639 537.021 231.307 536.245 230.668C535.469 230.029 535.047 229.203 534.976 228.19C534.93 227.545 535.07 226.961 535.394 226.439C535.718 225.916 536.202 225.632 536.846 225.587C537.011 225.576 537.098 225.625 537.106 225.735C537.111 225.809 537.071 225.886 536.983 225.966C536.915 226.044 536.838 226.203 536.753 226.439C536.667 226.678 536.621 226.87 536.614 227.019C536.601 227.094 536.596 227.163 536.601 227.228C536.606 227.293 536.61 227.352 536.614 227.408C536.681 228.365 537.084 229.101 537.823 229.613C538.562 230.125 539.407 230.432 540.356 230.531L540.628 222.934C540.012 222.607 539.416 222.261 538.834 221.893C538.254 221.528 537.744 221.129 537.308 220.696C536.87 220.246 536.53 219.761 536.291 219.241C536.051 218.721 535.911 218.186 535.873 217.632C535.808 216.712 536.008 215.814 536.475 214.938C536.94 214.064 537.633 213.335 538.555 212.753C539.318 212.291 540.137 211.984 541.015 211.83L541.054 210.412C541.062 210.263 541.109 210.148 541.196 210.068C541.283 209.988 541.382 209.944 541.492 209.936C541.602 209.928 541.711 209.958 541.817 210.025C541.923 210.09 541.972 210.198 541.964 210.347L541.897 211.767C542.968 211.748 543.87 212.007 544.602 212.549C545.333 213.089 545.743 213.995 545.832 215.266C545.867 215.764 545.769 216.154 545.54 216.438C545.31 216.723 545.067 216.874 544.809 216.892C544.624 216.905 544.458 216.847 544.311 216.718C544.164 216.59 544.079 216.379 544.059 216.084C544.055 216.028 544.051 215.969 544.047 215.904C544.043 215.839 544.047 215.77 544.06 215.695C544.096 215.432 544.106 215.173 544.088 214.915C544.044 214.289 543.844 213.749 543.488 213.292C543.132 212.836 542.594 212.596 541.87 212.573L541.602 221.003L543.1 221.786C544.078 222.291 544.873 222.745 545.484 223.146C546.094 223.547 546.55 223.973 546.849 224.423C547.149 224.875 547.322 225.422 547.367 226.067C547.372 226.139 547.372 226.209 547.368 226.275C547.363 226.339 547.364 226.409 547.369 226.483C547.347 227.743 546.813 228.844 545.77 229.787C544.727 230.731 543.224 231.317 541.261 231.547L541.203 233.106C541.195 233.255 541.148 233.369 541.061 233.45C540.974 233.529 540.875 233.574 540.765 233.582C540.654 233.59 540.545 233.555 540.439 233.479C540.331 233.407 540.282 233.303 540.291 233.174ZM540.705 220.486L540.964 212.723C540.366 212.895 539.851 213.204 539.42 213.651C538.989 214.098 538.66 214.616 538.433 215.206C538.206 215.795 538.115 216.404 538.158 217.03C538.186 217.435 538.279 217.835 538.437 218.232C538.593 218.628 538.831 218.981 539.149 219.292C539.368 219.518 539.61 219.728 539.873 219.922C540.138 220.115 540.415 220.303 540.705 220.486ZM541.275 230.579L541.606 230.556C541.955 230.532 542.299 230.484 542.636 230.414C542.974 230.344 543.286 230.242 543.572 230.112C544.166 229.866 544.618 229.529 544.93 229.101C545.242 228.672 545.422 228.278 545.472 227.924C545.511 227.699 545.524 227.486 545.51 227.284C545.47 226.712 545.259 226.209 544.877 225.774C544.495 225.338 544.008 224.928 543.418 224.543C542.826 224.16 542.194 223.787 541.522 223.427L541.275 230.579Z" fill="#F08143"/>
<path d="M659.719 214.058C660.204 214.058 660.596 213.665 660.596 213.18V141.973C660.596 141.488 660.204 141.095 659.719 141.095C659.235 141.095 658.842 141.488 658.842 141.973V213.18C658.842 213.665 659.236 214.058 659.719 214.058Z" fill="#42A147"/>
<path d="M659.826 166.329C654.496 158.048 645.562 152.181 635.848 150.584C634.613 150.381 633.368 150.244 632.123 150.106C633.427 155.01 636.561 159.362 640.71 162.279C644.86 165.196 650.05 166.596 655.102 166.161C656.707 166.022 658.385 165.61 659.826 166.329Z" fill="#42A147"/>
<path d="M659.345 180.228C664.675 171.947 673.609 166.08 683.322 164.483C684.558 164.28 685.803 164.142 687.048 164.005C685.744 168.909 682.61 173.261 678.46 176.178C674.311 179.094 669.121 180.494 664.068 180.06C662.464 179.922 660.786 179.51 659.345 180.228Z" fill="#42A147"/>
<path d="M659.416 147.011C670.915 147.011 680.236 137.683 680.236 126.178C680.236 114.672 670.915 105.344 659.416 105.344C647.918 105.344 638.597 114.672 638.597 126.178C638.597 137.683 647.918 147.011 659.416 147.011Z" fill="#F08143"/>
<path d="M659.416 143.592C649.82 143.592 642.013 135.78 642.013 126.177C642.013 116.574 649.821 108.763 659.416 108.763C669.012 108.763 676.819 116.575 676.819 126.177C676.82 135.78 669.013 143.592 659.416 143.592Z" fill="white"/>
<path d="M658.298 139.572L658.337 137.722C658.203 137.731 658.069 137.741 657.936 137.75C657.803 137.759 657.668 137.757 657.532 137.744C655.717 137.715 654.341 137.314 653.403 136.54C652.464 135.766 651.952 134.768 651.867 133.54C651.812 132.761 651.981 132.055 652.372 131.422C652.765 130.79 653.35 130.447 654.13 130.391C654.33 130.377 654.435 130.438 654.445 130.571C654.451 130.661 654.401 130.753 654.296 130.85C654.213 130.946 654.121 131.137 654.018 131.423C653.915 131.711 653.858 131.945 653.849 132.124C653.833 132.215 653.828 132.299 653.833 132.377C653.839 132.456 653.844 132.527 653.848 132.594C653.93 133.754 654.416 134.642 655.311 135.262C656.205 135.883 657.226 136.253 658.376 136.373L658.705 127.179C657.96 126.785 657.237 126.365 656.535 125.921C655.832 125.479 655.216 124.996 654.688 124.473C654.157 123.928 653.746 123.341 653.456 122.712C653.166 122.083 652.997 121.435 652.951 120.766C652.873 119.652 653.115 118.566 653.678 117.507C654.242 116.448 655.08 115.565 656.196 114.861C657.118 114.303 658.111 113.932 659.172 113.744L659.22 112.028C659.229 111.849 659.286 111.71 659.391 111.613C659.496 111.516 659.616 111.463 659.75 111.454C659.883 111.445 660.014 111.481 660.143 111.561C660.271 111.641 660.331 111.772 660.322 111.952L660.24 113.671C661.536 113.647 662.628 113.962 663.512 114.617C664.398 115.272 664.894 116.367 665.002 117.905C665.045 118.507 664.926 118.98 664.649 119.324C664.37 119.668 664.076 119.851 663.764 119.873C663.541 119.888 663.341 119.819 663.162 119.663C662.983 119.508 662.882 119.252 662.856 118.895C662.851 118.829 662.846 118.756 662.841 118.678C662.836 118.6 662.841 118.516 662.857 118.426C662.902 118.109 662.914 117.795 662.892 117.482C662.838 116.725 662.596 116.07 662.166 115.518C661.735 114.967 661.083 114.676 660.209 114.647L659.884 124.848L661.696 125.796C662.88 126.407 663.841 126.955 664.58 127.44C665.319 127.926 665.87 128.441 666.233 128.986C666.595 129.532 666.805 130.195 666.859 130.975C666.865 131.064 666.865 131.148 666.86 131.227C666.854 131.305 666.855 131.389 666.861 131.478C666.834 133.003 666.189 134.335 664.926 135.477C663.664 136.618 661.845 137.327 659.47 137.606L659.4 139.492C659.391 139.672 659.334 139.81 659.229 139.907C659.123 140.004 659.005 140.058 658.87 140.067C658.736 140.076 658.605 140.035 658.476 139.943C658.346 139.854 658.287 139.729 658.298 139.572ZM658.799 124.219L659.113 114.825C658.389 115.033 657.766 115.407 657.244 115.946C656.723 116.488 656.324 117.115 656.05 117.828C655.776 118.541 655.665 119.277 655.718 120.035C655.753 120.525 655.865 121.009 656.055 121.489C656.245 121.968 656.533 122.396 656.917 122.772C657.183 123.045 657.475 123.298 657.793 123.533C658.112 123.77 658.448 123.998 658.799 124.219ZM659.488 136.432L659.889 136.404C660.312 136.375 660.728 136.317 661.135 136.232C661.543 136.147 661.921 136.025 662.268 135.866C662.985 135.57 663.533 135.161 663.911 134.642C664.289 134.123 664.507 133.649 664.567 133.218C664.615 132.947 664.631 132.688 664.614 132.443C664.565 131.752 664.309 131.143 663.847 130.615C663.385 130.088 662.796 129.592 662.081 129.127C661.366 128.662 660.601 128.212 659.788 127.776L659.488 136.432Z" fill="#F08143"/>
<path d="M492.209 110.739C495.219 109.485 498.132 108.767 500.944 107.117C507.13 103.486 516.327 97.4623 523.902 94.8747C524.71 94.5989 525.433 93.996 526.284 94.0596C527.135 94.1232 527.975 94.9534 527.709 95.7635C527.564 96.2038 527.157 96.4947 526.775 96.7553C525.241 97.7996 519.307 100.195 517.773 101.24C516.886 101.844 515.903 102.618 515.896 103.691C515.89 104.608 516.631 105.503 516.321 106.366C515.938 107.436 514.293 107.507 513.776 108.518C513.143 109.754 514.66 110.982 515.967 111.449C517.274 111.915 518.926 112.666 518.802 114.049C518.72 114.97 517.777 115.612 516.857 115.712C515.939 115.812 515.03 115.513 514.134 115.286C507.238 113.536 500.044 115.935 493.336 118.305C492.481 116.139 493.066 112.905 492.209 110.739Z" fill="#FCBA9D"/>
<path d="M423.78 128.413C423.78 128.413 435.073 132.968 443.374 131.412C451.674 129.857 468.703 123.287 468.703 123.287C468.703 123.287 467.892 119.86 471.947 122.289L500.261 104.273L505.733 116.088C505.733 116.088 479.514 131.026 473.027 135.445C466.54 139.865 441.672 149.061 441.672 149.061L431.029 133.881L427.195 131.412L423.78 128.413Z" fill="#1E3D44"/>
<path d="M472.846 127.951C472.186 126.7 471.301 125.593 470.229 124.671C470.07 124.533 470.089 124.262 470.229 124.121C470.386 123.964 470.619 123.984 470.778 124.121C471.895 125.082 472.829 126.255 473.517 127.559C473.751 128.001 473.08 128.394 472.846 127.951Z" fill="#375A60"/>
<path d="M468.112 128.288C467.572 127.207 467.032 126.124 466.491 125.042C466.397 124.854 466.44 124.621 466.63 124.51C466.802 124.409 467.067 124.461 467.162 124.649C467.702 125.731 468.242 126.814 468.783 127.896C468.877 128.083 468.833 128.317 468.643 128.428C468.471 128.529 468.205 128.477 468.112 128.288Z" fill="#375A60"/>
<path d="M410.384 343.524C410.384 343.524 407.639 352.904 415.664 352.336C423.689 351.767 429.938 351.128 430.969 347.61C431.998 344.092 422.317 343.706 422.317 343.706L410.384 343.524Z" fill="#1E3D44"/>
<path d="M409.393 210.005L410.962 270.252C410.962 270.252 407.135 274.962 411.605 276.492L408.894 343.488L424.03 343.845L432.704 268.837L436.763 190.748L409.393 210.005Z" fill="#92CEE0"/>
<path d="M419.853 214.935C419.278 219.815 415.691 224.084 410.959 225.437C410.477 225.576 410.271 224.825 410.752 224.688C415.122 223.437 418.541 219.464 419.076 214.935C419.133 214.444 419.912 214.438 419.853 214.935Z" fill="#1E3D44"/>
<path d="M412.738 223.917C413.509 231.866 414.283 239.816 415.051 247.764C415.812 255.635 416.486 263.515 416.253 271.431C415.787 287.226 413.644 302.926 413.235 318.729C413 327.796 413.289 336.888 414.593 345.873C414.664 346.363 413.916 346.574 413.844 346.08C411.575 330.449 412.373 314.636 413.574 298.949C414.184 290.984 414.923 283.024 415.329 275.045C415.741 266.945 415.32 258.911 414.568 250.845C413.731 241.866 412.833 232.893 411.962 223.918C411.913 223.419 412.69 223.422 412.738 223.917Z" fill="#1E3D44"/>
<path d="M425.393 290.59C424.597 291.999 423.412 293.178 421.998 293.966C421.561 294.209 421.168 293.538 421.605 293.294C422.908 292.568 423.987 291.497 424.722 290.198C424.968 289.762 425.64 290.154 425.393 290.59Z" fill="#1E3D44"/>
<path d="M422.968 288.565C422.06 290.21 420.935 291.731 419.631 293.083C419.283 293.444 418.734 292.893 419.082 292.534C420.342 291.227 421.42 289.762 422.297 288.174C422.538 287.735 423.21 288.127 422.968 288.565Z" fill="#1E3D44"/>
<path d="M486.862 295.968C486.862 295.968 484.653 303.435 492.699 303.427C500.744 303.419 507.022 303.216 508.295 299.778C509.567 296.341 499.936 295.281 499.936 295.281L486.862 295.968Z" fill="#1E3D44"/>
<path d="M450.711 194.785L487.841 226.419C490.549 228.727 492.264 231.989 492.629 235.53L498.867 296.027L485.738 297.383L474.603 243.6C474.603 243.6 469.485 244.295 472.739 240.473L423.739 207.196L429.707 191.477L450.711 194.785Z" fill="#92CEE0"/>
<path d="M488.495 241.428C487.469 243.617 486.445 245.808 485.419 247.998C485.207 248.45 484.537 248.056 484.748 247.605C485.774 245.415 486.798 243.225 487.824 241.035C488.036 240.582 488.706 240.976 488.495 241.428Z" fill="#1E3D44"/>
<path d="M487.065 238.678C485.595 241.796 484.125 244.915 482.656 248.033C482.443 248.486 481.773 248.091 481.985 247.64C483.454 244.521 484.924 241.403 486.392 238.285C486.606 237.832 487.277 238.227 487.065 238.678Z" fill="#1E3D44"/>
<path d="M420.257 104.768C419.552 102.039 417.339 99.7509 414.636 98.9591C411.933 98.1673 408.836 98.8985 406.771 100.816C405.771 101.747 404.987 102.999 404.943 104.365C404.934 104.637 404.95 104.928 404.809 105.162C404.608 105.492 404.177 105.579 403.798 105.651C402.838 105.834 401.871 106.139 401.124 106.768C400.377 107.398 399.889 108.408 400.099 109.362C400.399 110.724 401.956 111.582 402.116 112.967C402.188 113.585 401.96 114.205 402.004 114.825C402.117 116.393 403.78 117.269 404.987 118.276C406.74 119.74 408.233 122.148 410.507 121.938C412.698 121.736 413.796 119.185 414.101 117.004C414.406 114.822 414.517 112.326 416.214 110.925C416.716 110.51 417.313 110.241 417.85 109.877C418.346 109.541 418.672 109.087 419.081 108.66C419.647 108.067 420.089 107.633 420.289 106.805C420.45 106.132 420.429 105.436 420.257 104.768Z" fill="#1E3D44"/>
<path d="M421.353 111.942C422.637 116.338 421.856 122.535 416.747 122.794C413.349 122.967 409.674 120.13 408.39 115.733C407.106 111.337 407.682 106.548 412.278 104.957C418.103 102.94 420.068 107.545 421.353 111.942Z" fill="#FCBA9D"/>
<path d="M409.579 115.151C410.411 116.327 411.05 118.506 410.088 119.186C409.127 119.867 406.929 118.792 406.098 117.617C405.266 116.441 405.371 114.936 406.333 114.256C407.294 113.575 408.747 113.976 409.579 115.151Z" fill="#FCBA9D"/>
<path d="M410.973 126.241C410.752 127.057 410.372 127.885 410.548 128.713C410.661 129.246 410.995 129.703 411.339 130.126C412.177 131.153 413.154 132.101 414.351 132.669C415.548 133.236 416.996 133.38 418.194 132.816C419.392 132.252 420.24 130.891 419.99 129.59C419.622 127.669 417.328 126.783 416.391 125.066C415.85 124.076 415.81 122.89 415.415 121.831C414.835 120.278 413.206 118.725 411.476 118.614C410.572 118.555 409.961 118.388 410.061 119.081C410.201 120.034 411.027 122.085 411.145 123.048C411.278 124.111 411.255 125.201 410.973 126.241Z" fill="#FCBA9D"/>
<path d="M408.854 126.747L423.722 152.264L419.682 126.42L436.385 134.546C439.896 136.254 442.432 139.478 443.266 143.295L458.102 195.017C458.102 195.017 447.922 207.27 436.228 200.014C436.228 200.014 433.147 219.998 407.17 214.963L392.515 154.254C391.532 150.652 392.357 146.798 394.729 143.915L408.854 126.747Z" fill="#1E3D44"/>
<path d="M435.524 198.94C433.396 189.372 431.369 179.776 429.129 170.234C428.055 165.658 426.509 161.432 423.648 157.658C420.792 153.89 417.374 150.504 414.124 147.08C410.316 143.069 406.443 139.119 402.513 135.227C402.157 134.875 402.707 134.325 403.062 134.678C406.635 138.216 410.161 141.801 413.634 145.438C416.908 148.867 420.274 152.273 423.278 155.944C426.113 159.411 428.057 163.181 429.242 167.499C430.534 172.206 431.447 177.035 432.507 181.799C433.763 187.444 435.018 193.088 436.274 198.733C436.382 199.221 435.633 199.43 435.524 198.94Z" fill="#375A60"/>
<path d="M428.35 133.367C427.996 142.578 427.486 151.782 426.818 160.975C426.781 161.471 426.004 161.475 426.04 160.975C426.709 151.782 427.22 142.578 427.573 133.367C427.592 132.868 428.369 132.866 428.35 133.367Z" fill="#375A60"/>
<path d="M424.372 168.622C422.872 168.622 422.869 166.289 424.372 166.289C425.872 166.289 425.875 168.622 424.372 168.622Z" fill="#375A60"/>
<path d="M427.088 176.664C426.998 176.754 426.907 176.845 426.818 176.935C426.712 177.049 426.586 177.129 426.442 177.176C426.303 177.249 426.153 177.283 425.993 177.276C425.832 177.283 425.683 177.249 425.544 177.176C425.399 177.129 425.274 177.049 425.168 176.935C425.108 176.856 425.047 176.778 424.986 176.699C424.881 176.517 424.827 176.321 424.826 176.11C424.84 176.007 424.854 175.903 424.868 175.8C424.923 175.602 425.023 175.43 425.167 175.285C425.257 175.195 425.348 175.104 425.438 175.014C425.544 174.9 425.668 174.82 425.813 174.773C425.953 174.7 426.102 174.667 426.262 174.673C426.423 174.667 426.572 174.7 426.712 174.773C426.856 174.82 426.981 174.9 427.087 175.014C427.148 175.093 427.208 175.172 427.27 175.25C427.375 175.432 427.428 175.628 427.429 175.839C427.415 175.942 427.402 176.046 427.388 176.149C427.333 176.347 427.233 176.519 427.088 176.664Z" fill="#375A60"/>
<path d="M428.156 187.285C426.656 187.285 426.653 184.951 428.156 184.951C429.657 184.951 429.659 187.285 428.156 187.285Z" fill="#375A60"/>
<path d="M419.891 196.653C416.48 194.889 412.97 193.325 409.375 191.973C408.911 191.798 409.113 191.047 409.582 191.223C413.239 192.6 416.813 194.188 420.284 195.983C420.728 196.212 420.336 196.883 419.891 196.653Z" fill="#375A60"/>
<path d="M449.226 182.313C447.154 184.067 445.287 186.056 443.685 188.248C443.392 188.648 442.718 188.26 443.013 187.855C444.656 185.609 446.552 183.561 448.677 181.763C449.056 181.443 449.608 181.99 449.226 182.313Z" fill="#375A60"/>
<path d="M419.753 126.875L417.75 130.636L409.479 127.819L423.723 152.264L419.753 126.875Z" fill="white"/>
<path d="M419.878 132.867L418.02 131.413L415.744 134.457H417.75L418.803 143.821L423.723 152.264L422.286 142.732L419.077 134.057L419.878 132.867Z" fill="#FE6083"/>
<path d="M443.774 147.257C442.791 144.294 441.808 141.332 440.826 138.368C440.669 137.893 441.419 137.689 441.575 138.161C442.558 141.125 443.54 144.087 444.523 147.05C444.682 147.527 443.932 147.731 443.774 147.257Z" fill="#375A60"/>
<path d="M393.027 204.997C394.759 205.432 402.724 209.854 404.468 210.238C406.651 210.718 409.085 209.311 409.759 207.178C409.982 206.472 409.773 205.411 409.033 205.43C409.774 205.144 410.419 204.428 410.333 203.64C410.247 202.85 409.153 202.292 408.594 202.855C409.285 202.544 409.861 201.985 410.192 201.304C410.349 200.981 410.451 200.597 410.309 200.268C409.967 199.474 408.78 199.77 408.027 200.194C408.616 199.987 409.23 199.766 409.663 199.316C410.096 198.864 410.283 198.111 409.91 197.609C409.494 197.047 408.615 197.079 407.996 197.404C407.376 197.729 406.895 198.27 406.295 198.629C405.693 198.986 404.847 199.116 404.346 198.627C404.18 198.466 404.073 198.255 403.99 198.04C403.488 196.744 403.877 195.155 404.918 194.236C405.219 193.972 405.569 193.757 405.813 193.439C406.058 193.121 406.17 192.65 405.936 192.325C405.748 192.063 405.401 191.975 405.08 191.949C403.169 191.792 401.291 193.396 401.145 195.309C401.075 196.235 401.358 197.15 401.408 198.077C401.457 199.005 401.185 200.062 400.364 200.496C399.263 200.316 396.54 197.896 395.588 197.312C395.403 200.141 391.907 202.393 393.027 204.997Z" fill="#FCBA9D"/>
<path d="M394.728 143.916C394.728 143.916 369.771 173.947 369.771 175.84C369.771 177.734 394.728 207.216 394.728 207.216L399.774 196.937L385.719 180.032C385.719 180.032 386.8 178.95 384.097 177.868L402.787 165.156L394.728 143.916Z" fill="#1E3D44"/>
<path d="M396.31 147.862C397.512 154.463 397.756 161.188 397.017 167.856C396.962 168.348 396.184 168.354 396.24 167.856C396.971 161.26 396.75 154.599 395.561 148.068C395.472 147.579 396.221 147.369 396.31 147.862Z" fill="#375A60"/>
<path d="M381.086 177.084C380.406 176.686 379.724 176.289 379.044 175.891C378.868 175.788 378.791 175.535 378.905 175.358C379.019 175.182 379.249 175.109 379.437 175.219C380.117 175.617 380.798 176.014 381.478 176.412C381.654 176.515 381.732 176.767 381.618 176.944C381.503 177.121 381.274 177.193 381.086 177.084Z" fill="#375A60"/>
<path d="M379.928 179.269C378.981 179.136 378.036 179.003 377.089 178.869C376.881 178.84 376.767 178.574 376.817 178.391C376.879 178.166 377.087 178.09 377.296 178.119C378.243 178.252 379.188 178.386 380.135 178.519C380.343 178.548 380.457 178.814 380.407 178.998C380.345 179.222 380.137 179.3 379.928 179.269Z" fill="#375A60"/>
<path d="M297.043 208.379C298.996 207.455 300.779 206.176 302.279 204.62C303.414 203.444 304.442 201.905 304.176 200.291C303.876 198.461 301.977 197.033 302.175 195.189C302.323 193.807 303.59 192.865 304.364 191.71C306.563 188.432 304.168 183.558 300.469 182.183C299.081 181.667 297.266 181.204 297.047 179.739C296.96 179.162 297.176 178.59 297.29 178.019C297.729 175.823 296.487 173.405 294.449 172.484C292.41 171.562 289.776 172.227 288.419 174.008C287.043 169.734 278.9 168.404 276.693 172.313C275.467 174.486 275.675 177.352 274.073 179.264C271.683 182.117 266.179 181.76 265.079 185.316C264.242 188.021 266.838 191.106 265.539 193.621C264.69 195.264 262.631 195.743 260.976 196.564C256.801 198.634 254.663 204.075 256.309 208.436C257.552 211.731 260.663 214.683 259.917 218.125C259.143 221.696 254.378 224.036 255.077 227.624C255.752 231.082 261.07 232.079 261.633 235.558C262.033 238.03 259.704 240.288 259.953 242.78C260.263 245.906 264.091 247.14 267.189 247.646C272.224 248.468 277.674 249.23 282.192 246.858C285.096 245.334 287.248 242.67 288.887 239.828C292.038 234.367 293.573 227.985 293.249 221.687C293.157 219.875 292.917 218.02 293.414 216.275C293.954 214.376 295.304 212.821 296.121 211.024C296.935 209.226 298.609 209.579 297.043 208.379Z" fill="#1E3D44"/>
<path d="M301.734 251.501C312.738 263.377 323.742 275.251 334.746 287.127C336.569 289.095 338.45 291.163 339.185 293.744C339.786 295.852 339.558 298.098 339.324 300.278C337.161 320.509 334.998 340.738 332.836 360.968C332.723 362.025 332.569 363.171 331.811 363.915C331.05 364.664 329.894 364.794 328.831 364.885C325.45 365.173 323.726 365.319 320.345 365.607C319.073 345.545 318.179 325.239 320.825 305.312C319.757 306.191 318.142 304.818 317.348 303.684C316.554 302.55 316.937 300.772 318.128 300.067C306.384 287.496 292.326 276.678 281.965 262.942C281.115 261.815 282.771 256.914 282.347 255.568C280.996 251.28 284.888 246.669 289.32 245.94C293.752 245.211 298.68 248.206 301.734 251.501Z" fill="#1E3D44"/>
<path d="M273.881 246.308C265.927 269.317 277.377 294.736 268.755 317.504C267.633 320.464 265.76 319.566 266.578 322.625C263.404 328.123 261.328 339.694 260.211 345.943C257.775 359.568 253.888 372.933 248.637 385.736C252.563 386.757 257.294 388.076 261.329 387.657C276.725 355.292 288.905 320.698 292.92 285.08C293.469 280.208 293.908 275.298 293.57 270.408C293.106 263.685 291.111 256.981 287.214 251.484C284.299 247.371 278.782 245.129 273.881 246.308Z" fill="#1E3D44"/>
<path d="M282.785 255.274C280.66 259.179 276.449 261.739 272.009 261.847C271.508 261.859 271.509 261.081 272.009 261.069C276.183 260.968 280.119 258.547 282.113 254.881C282.353 254.441 283.024 254.833 282.785 255.274Z" fill="#375A60"/>
<path d="M274.769 261.701C275.592 271.89 276.005 282.109 275.986 292.332C275.977 297.12 276.083 302.002 275.622 306.773C275.317 309.938 274.458 313.272 271.586 315.04C271.586 314.816 271.586 314.593 271.586 314.369C273.001 315.056 273.623 316.644 273.231 318.148C272.983 319.104 272.372 319.933 271.858 320.757C271.145 321.898 270.468 323.063 269.829 324.248C267.366 328.82 265.467 333.673 263.927 338.628C260.888 348.405 259.294 358.517 257.196 368.516C255.997 374.23 254.468 379.898 251.745 385.093C251.512 385.536 250.841 385.144 251.073 384.7C255.642 375.987 256.878 365.968 258.792 356.44C260.631 347.282 262.747 338.105 266.445 329.493C267.503 327.027 268.691 324.616 270.03 322.29C271.119 320.398 274.389 316.591 271.193 315.04C270.921 314.908 270.961 314.512 271.193 314.369C274.47 312.352 274.845 308.08 274.98 304.594C275.166 299.829 275.224 295.056 275.207 290.287C275.172 280.747 274.76 271.21 273.992 261.701C273.952 261.202 274.73 261.205 274.769 261.701Z" fill="#375A60"/>
<path d="M293.463 275.033C292.835 270.612 293.449 266.136 295.251 262.05C295.453 261.593 296.122 261.988 295.922 262.443C294.214 266.316 293.617 270.635 294.213 274.827C294.282 275.315 293.533 275.527 293.463 275.033Z" fill="#375A60"/>
<path d="M295.52 266.404C296.561 265.412 297.601 264.42 298.641 263.429C299.004 263.084 299.554 263.633 299.19 263.979C298.15 264.971 297.11 265.963 296.07 266.953C295.708 267.299 295.158 266.75 295.52 266.404Z" fill="#375A60"/>
<path d="M296.48 268.823C296.865 268.397 297.249 267.971 297.634 267.546C297.77 267.395 298.047 267.397 298.183 267.546C298.331 267.708 298.328 267.935 298.183 268.096C297.799 268.521 297.414 268.947 297.029 269.372C296.893 269.524 296.617 269.522 296.48 269.372C296.332 269.211 296.335 268.984 296.48 268.823Z" fill="#375A60"/>
<path d="M335.865 305.662C334.801 306.626 333.736 307.591 332.672 308.555C332.517 308.697 332.276 308.709 332.123 308.555C331.98 308.412 331.967 308.147 332.123 308.006C333.187 307.041 334.252 306.077 335.315 305.112C335.471 304.971 335.711 304.959 335.865 305.112C336.008 305.255 336.021 305.519 335.865 305.662Z" fill="#375A60"/>
<path d="M332.961 304.563C332.081 305.7 331.203 306.837 330.325 307.974C330.197 308.141 329.91 308.11 329.776 307.974C329.612 307.811 329.647 307.592 329.776 307.425C330.654 306.288 331.533 305.151 332.411 304.013C332.54 303.847 332.826 303.878 332.961 304.013C333.124 304.177 333.089 304.396 332.961 304.563Z" fill="#375A60"/>
<path d="M272.147 234.769C272.316 230.955 271.988 227.067 271.924 223.239C271.82 216.959 272.672 210.151 276.998 205.602C280.836 201.566 286.974 200.11 292.388 201.41C305.179 204.486 309.304 217.717 307.849 229.392C307.084 235.523 305.565 241.654 306.179 247.802C306.301 249.03 306.434 250.469 305.52 251.297C305.104 251.674 304.544 251.839 304.002 251.984C293.99 254.664 283.15 254.145 273.44 250.521C272.49 250.166 271.51 249.754 270.855 248.978C269.276 247.106 270.302 244.307 271.015 241.963C271.73 239.62 272.04 237.21 272.147 234.769Z" fill="#92CEE0"/>
<path d="M294.839 186.374C296.071 190.785 295.215 196.972 290.104 197.17C286.704 197.302 283.062 194.421 281.831 190.01C280.6 185.598 281.234 180.818 285.847 179.281C291.698 177.333 293.608 181.962 294.839 186.374Z" fill="#FCBA9D"/>
<path d="M283.028 189.441C283.846 190.627 284.458 192.812 283.488 193.481C282.518 194.151 280.334 193.05 279.518 191.864C278.701 190.678 278.823 189.174 279.793 188.506C280.763 187.837 282.211 188.255 283.028 189.441Z" fill="#FCBA9D"/>
<path d="M284.289 200.547C284.058 201.36 283.668 202.184 283.835 203.013C283.942 203.548 284.27 204.009 284.61 204.435C285.434 205.473 286.4 206.433 287.59 207.015C288.78 207.597 290.226 207.758 291.431 207.208C292.636 206.657 293.5 205.308 293.266 204.003C292.921 202.078 290.636 201.164 289.721 199.437C289.192 198.439 289.166 197.253 288.783 196.191C288.222 194.63 286.611 193.058 284.882 192.925C283.979 192.856 283.37 192.682 283.463 193.376C283.591 194.33 284.393 196.391 284.5 197.355C284.62 198.421 284.583 199.51 284.289 200.547Z" fill="#FCBA9D"/>
<path d="M302.091 232.962C301.187 233.82 300.284 234.678 299.379 235.536C299.227 235.681 298.981 235.688 298.83 235.536C298.685 235.391 298.678 235.131 298.83 234.987C299.735 234.128 300.638 233.271 301.542 232.412C301.695 232.268 301.941 232.261 302.091 232.412C302.238 232.558 302.244 232.817 302.091 232.962Z" fill="#1E3D44"/>
<path d="M300.83 230.412C300.234 232.086 299.131 233.526 297.67 234.537C297.498 234.657 297.239 234.57 297.139 234.398C297.025 234.205 297.105 233.986 297.278 233.866C298.562 232.976 299.557 231.676 300.08 230.204C300.15 230.007 300.345 229.874 300.558 229.933C300.75 229.986 300.9 230.213 300.83 230.412Z" fill="#1E3D44"/>
<path d="M243.357 278.943L245.977 271.092C246.115 270.676 246.084 270.23 245.888 269.837C245.692 269.443 245.354 269.15 244.937 269.013L234.375 265.484C233.96 265.345 233.514 265.376 233.121 265.573C232.727 265.769 232.434 266.107 232.297 266.524L229.678 274.372L243.357 278.943ZM233.845 267.041L244.419 270.564L242.324 276.874L231.745 273.34L233.845 267.041Z" fill="#DD436B"/>
<path d="M212.027 295.632L244.709 306.548C246.152 307.03 247.712 306.25 248.193 304.807L255.849 281.856C256.33 280.412 255.551 278.851 254.108 278.368L221.426 267.452C219.982 266.971 218.423 267.75 217.94 269.195L210.285 292.146C209.804 293.589 210.583 295.151 212.027 295.632Z" fill="#FE6083"/>
<path d="M249.426 294.233L249.672 294.168C249.785 294.11 249.868 294.009 249.908 293.885L254.336 280.613C254.407 280.397 254.291 280.167 254.077 280.095C253.858 280.026 253.631 280.14 253.561 280.354L249.237 293.313C234.052 288.424 218.552 283.331 216.329 282.39C217.017 280.335 220.673 269.37 220.673 269.37L219.898 269.111C219.898 269.111 215.555 282.131 215.447 282.453L215.394 282.614L215.471 282.774C215.581 282.994 215.788 283.403 249.265 294.181L249.426 294.233Z" fill="#DD436B"/>
<path d="M240.891 288.812L244.885 290.145L243.552 294.142L239.559 292.808L240.891 288.812Z" fill="#FCD936"/>
<path d="M221.709 282.404L225.703 283.738L224.37 287.734L220.376 286.4L221.709 282.404Z" fill="#FCD936"/>
<path d="M216.648 291.739C216.288 290.57 215.929 289.401 215.568 288.232C215.452 287.854 216.044 287.693 216.159 288.069C216.519 289.238 216.879 290.408 217.239 291.576C217.356 291.954 216.764 292.115 216.648 291.739Z" fill="#DD436B"/>
<path d="M218.159 290.469C217.997 289.879 217.835 289.29 217.673 288.701C217.631 288.546 217.725 288.36 217.887 288.324C218.048 288.287 218.218 288.372 218.263 288.538C218.426 289.128 218.587 289.717 218.75 290.307C218.792 290.461 218.697 290.647 218.536 290.683C218.374 290.721 218.205 290.635 218.159 290.469Z" fill="#DD436B"/>
<path d="M246.737 286.298C246.518 285.173 246.299 284.048 246.08 282.922C246.005 282.537 246.595 282.372 246.67 282.76C246.889 283.885 247.108 285.01 247.327 286.135C247.403 286.52 246.812 286.686 246.737 286.298Z" fill="#DD436B"/>
<path d="M244.581 284.677C244.454 283.796 244.326 282.914 244.199 282.034C244.176 281.87 244.24 281.704 244.413 281.657C244.558 281.618 244.766 281.706 244.79 281.871C244.917 282.752 245.044 283.633 245.171 284.514C245.194 284.678 245.131 284.843 244.957 284.891C244.814 284.93 244.605 284.841 244.581 284.677Z" fill="#DD436B"/>
<path d="M237.773 258.372C236.591 261.248 235.563 264.187 234.695 267.172C234.47 267.946 234.272 268.839 234.719 269.509C234.939 269.84 235.287 270.061 235.631 270.26C236.728 270.895 237.895 271.407 239.105 271.785C240.136 272.106 241.46 272.241 242.107 271.376C242.403 270.98 242.472 270.467 242.631 269.999C242.789 269.532 243.116 269.049 243.607 268.995C244.077 268.943 244.745 269.213 244.905 268.766C244.974 268.571 244.865 268.362 244.766 268.18C243.58 265.999 243.468 263.264 244.473 260.992C242.868 259.838 241.099 258.471 239.122 258.514C238.685 258.522 237.853 258.801 237.773 258.372Z" fill="#FCBA9D"/>
<path d="M279.644 203.443C279.644 203.443 244.626 218.98 241.65 225.705C238.674 232.43 235.527 258.486 235.527 258.486C235.527 258.486 237.875 262.565 245.848 262.788L247.804 235.014C247.804 235.014 250.68 235.681 249.038 232.65L275.933 221.267L279.644 203.443Z" fill="#92CEE0"/>
<path d="M278.595 206.665C278.507 212.189 276.576 217.539 273.142 221.86C272.831 222.252 272.284 221.698 272.593 221.31C275.895 217.156 277.735 211.969 277.819 206.665C277.826 206.165 278.603 206.164 278.595 206.665Z" fill="#1E3D44"/>
<path d="M246.731 232.893C246.023 232.252 245.313 231.61 244.605 230.97C244.453 230.834 244.455 230.557 244.605 230.421C244.766 230.272 244.993 230.275 245.154 230.421C245.862 231.062 246.572 231.703 247.281 232.344C247.432 232.48 247.43 232.757 247.281 232.893C247.119 233.042 246.893 233.039 246.731 232.893Z" fill="#1E3D44"/>
<path d="M244.96 234.716C244.548 234.602 244.136 234.487 243.725 234.373C243.529 234.318 243.388 234.095 243.453 233.894C243.518 233.694 243.722 233.564 243.931 233.622C244.343 233.736 244.755 233.852 245.167 233.966C245.363 234.02 245.503 234.243 245.438 234.444C245.373 234.644 245.17 234.775 244.96 234.716Z" fill="#1E3D44"/>
<path d="M349.382 190.263C349.205 188.316 349.734 186.312 350.85 184.707C351.139 184.291 351.492 183.883 351.972 183.72C352.451 183.558 353.078 183.741 353.249 184.217C353.77 183.897 354.681 183.583 355.279 183.456C355.878 183.328 356.562 183.435 356.981 183.88C357.152 184.062 357.29 184.302 357.529 184.373C357.786 184.449 358.057 184.294 358.325 184.312C358.695 184.337 358.956 184.673 359.164 184.98C359.763 185.864 360.344 186.781 360.642 187.807C360.826 188.443 360.895 189.126 360.736 189.769C360.408 191.088 359.213 191.98 358.099 192.759C356.199 194.089 354.176 195.464 351.865 195.647C351.03 195.714 350.065 195.548 349.619 194.839C349.439 194.554 349.369 194.215 349.303 193.885C349.037 192.579 348.637 191.369 349.382 190.263Z" fill="#FCBA9D"/>
<path d="M286.608 218.625C286.608 218.625 324.357 225.136 330.562 221.193C336.766 217.25 353.83 197.319 353.83 197.319C353.83 197.319 354.139 192.621 347.627 188.01L330.602 210.032C330.602 210.032 328.579 207.88 328.264 211.314L298.195 203.818L286.608 218.625Z" fill="#92CEE0"/>
<path d="M303.397 208.971C304.962 212.951 306.526 216.931 308.091 220.91C308.273 221.376 307.522 221.578 307.342 221.118C305.777 217.138 304.213 213.158 302.648 209.178C302.465 208.712 303.217 208.51 303.397 208.971Z" fill="#1E3D44"/>
<path d="M329.416 214.705C329.233 213.903 329.05 213.101 328.867 212.299C328.821 212.101 328.927 211.869 329.138 211.821C329.336 211.775 329.568 211.88 329.617 212.092C329.799 212.894 329.983 213.696 330.166 214.498C330.211 214.696 330.105 214.928 329.894 214.977C329.697 215.022 329.464 214.917 329.416 214.705Z" fill="#1E3D44"/>
<path d="M326.104 214.476C325.935 213.807 325.764 213.14 325.595 212.471C325.544 212.274 325.658 212.04 325.866 211.992C326.068 211.946 326.29 212.053 326.345 212.264C326.514 212.932 326.685 213.6 326.854 214.269C326.905 214.466 326.791 214.7 326.583 214.747C326.381 214.793 326.158 214.687 326.104 214.476Z" fill="#1E3D44"/>
<path d="M337.204 367.798C337.716 368.104 338.254 368.47 338.436 369.037C338.664 369.743 338.232 370.528 337.614 370.937C336.995 371.346 336.234 371.461 335.498 371.548C331.697 371.998 327.839 371.959 324.048 371.432C323.389 371.34 322.701 371.221 322.179 370.809C321.297 370.113 321.175 368.841 321.156 367.718C321.131 366.251 321.222 364.629 322.241 363.573C323.601 362.163 326.261 362.325 327.903 363.134C328.758 363.555 328.916 364.395 329.879 364.689C331.068 365.052 332.244 365.41 333.396 365.886C334.71 366.429 335.984 367.069 337.204 367.798Z" fill="#1E3D44"/>
<path d="M264.07 397.151C264.293 397.704 264.502 398.321 264.305 398.884C264.061 399.584 263.242 399.949 262.503 399.902C261.764 399.854 261.087 399.487 260.448 399.112C257.147 397.176 254.093 394.814 251.389 392.104C250.919 391.634 250.443 391.122 250.275 390.478C249.991 389.391 250.661 388.303 251.324 387.396C252.189 386.211 253.24 384.973 254.689 384.747C256.625 384.445 258.648 386.179 259.469 387.816C259.897 388.668 259.516 389.434 260.107 390.25C260.837 391.257 261.557 392.254 262.188 393.329C262.906 394.554 263.537 395.832 264.07 397.151Z" fill="#1E3D44"/>
<path d="M97.9556 338.435L98.6208 330.185C98.6561 329.747 98.5188 329.323 98.2342 328.988C97.9496 328.653 97.5519 328.45 97.1148 328.415L86.0142 327.519C85.1179 327.459 84.3175 328.12 84.2438 329.025L83.5787 337.275L97.9556 338.435ZM85.8729 329.157L96.9836 330.045L96.4578 336.674L85.3399 335.776L85.8729 329.157Z" fill="#DD436B"/>
<path d="M71.5252 362.142L105.869 364.914C107.385 365.036 108.713 363.906 108.836 362.388L110.781 338.271C110.903 336.754 109.774 335.425 108.257 335.302L73.9133 332.53C72.3973 332.407 71.069 333.538 70.9459 335.056L69.0009 359.172C68.8788 360.69 70.0092 362.02 71.5252 362.142Z" fill="#FE6083"/>
<path d="M107.789 351.847L107.887 351.384L109.013 337.427C109.031 337.202 108.864 337.006 108.638 336.988C108.39 336.964 108.217 337.137 108.199 337.363L107.1 350.98C94.1524 350.079 75.1355 348.669 72.5375 348.253C72.7111 346.095 73.6397 334.571 73.6397 334.571L72.8262 334.506C72.8262 334.506 71.724 348.187 71.6957 348.525L71.6816 348.696L71.7947 348.832C71.935 348.996 72.264 349.378 107.387 351.819L107.789 351.847Z" fill="#DD436B"/>
<path d="M97.9188 348.615L102.115 348.954L101.777 353.153L97.5803 352.814L97.9188 348.615Z" fill="#FCD936"/>
<path d="M77.7615 346.987L81.958 347.326L81.6195 351.525L77.4231 351.186L77.7615 346.987Z" fill="#FCD936"/>
<path d="M75.0852 357.259C74.4563 356.211 73.8275 355.162 73.1977 354.113C72.9938 353.774 73.5237 353.466 73.7266 353.804C74.3554 354.853 74.9842 355.902 75.614 356.95C75.8179 357.29 75.288 357.598 75.0852 357.259Z" fill="#DD436B"/>
<path d="M76.249 355.666C75.9502 355.132 75.6525 354.599 75.3538 354.066C75.275 353.925 75.3154 353.724 75.4638 353.647C75.6081 353.57 75.7989 353.607 75.8826 353.757C76.1814 354.29 76.4792 354.823 76.7779 355.357C76.8567 355.497 76.8163 355.698 76.6679 355.776C76.5236 355.852 76.3318 355.815 76.249 355.666Z" fill="#DD436B"/>
<path d="M102.997 344.772C102.516 343.732 102.033 342.692 101.552 341.652C101.482 341.501 101.51 341.322 101.662 341.233C101.794 341.155 102.011 341.191 102.081 341.343C102.562 342.383 103.045 343.423 103.526 344.463C103.596 344.613 103.569 344.793 103.416 344.882C103.285 344.96 103.068 344.923 102.997 344.772Z" fill="#DD436B"/>
<path d="M100.486 343.641C100.152 342.815 99.8178 341.99 99.4837 341.165C99.4211 341.012 99.5514 340.828 99.6977 340.788C99.8733 340.74 100.013 340.848 100.074 341.002C100.408 341.828 100.742 342.653 101.076 343.478C101.139 343.632 101.009 343.815 100.862 343.855C100.688 343.903 100.549 343.795 100.486 343.641Z" fill="#DD436B"/>
<path d="M87.613 319.8C87.1527 322.874 86.858 325.974 86.7288 329.081C86.6955 329.885 86.7167 330.8 87.3102 331.344C87.6029 331.613 87.9935 331.744 88.376 331.855C89.5933 332.21 90.8489 332.428 92.1136 332.503C93.1915 332.568 94.5098 332.382 94.9296 331.387C95.1214 330.933 95.0669 330.417 95.1093 329.925C95.1517 329.433 95.3535 328.886 95.8168 328.716C96.2619 328.553 96.9745 328.655 97.022 328.184C97.0432 327.978 96.8867 327.801 96.7474 327.648C95.0739 325.814 94.3109 323.185 94.7429 320.739C92.9089 320.003 90.864 319.099 88.9554 319.614C88.5345 319.727 87.7926 320.196 87.613 319.8Z" fill="#FCBA9D"/>
<path d="M148.453 290.8C161.735 301.328 175.017 311.855 188.298 322.382C191.941 325.27 195.665 328.249 198.038 332.247C200.175 335.848 201.068 340.035 201.835 344.152C205.498 363.813 207.018 383.873 206.361 403.863C201.493 405.204 194.944 405.355 189.993 404.369C185.513 386.503 181.949 368.359 178.779 350.216C177.064 350.57 175.363 349.08 174.56 347.523C173.756 345.967 174.117 343.895 175.398 342.701C161.675 332.681 148.187 322.925 134.464 312.905C130.47 309.989 126.132 306.511 125.554 301.597C125.06 297.412 127.66 293.28 131.241 291.062C135.861 288.201 144.196 287.425 148.453 290.8Z" fill="#1E3D44"/>
<path d="M195.541 346.478C194.443 347.907 193.344 349.337 192.246 350.766C192.119 350.933 191.912 351.021 191.714 350.906C191.551 350.81 191.446 350.541 191.575 350.373C192.673 348.944 193.771 347.514 194.87 346.085C194.997 345.918 195.204 345.83 195.401 345.946C195.565 346.041 195.669 346.31 195.541 346.478Z" fill="#375A60"/>
<path d="M193.368 341.478C193.007 342.56 192.647 343.642 192.287 344.724C192.22 344.923 192.018 345.054 191.808 344.996C191.614 344.943 191.47 344.718 191.537 344.517C191.897 343.436 192.258 342.354 192.618 341.271C192.684 341.072 192.886 340.942 193.096 341C193.29 341.053 193.434 341.278 193.368 341.478Z" fill="#375A60"/>
<path d="M141.307 309.365C141.635 307.916 141.964 306.466 142.292 305.016C142.402 304.528 143.152 304.734 143.041 305.223C142.713 306.673 142.384 308.123 142.056 309.572C141.946 310.06 141.197 309.853 141.307 309.365Z" fill="#375A60"/>
<path d="M192.421 410.678C193.195 411.209 193.984 411.746 194.881 412.02C196.509 412.518 198.26 412.087 199.907 411.657C203.137 410.813 206.366 409.969 209.596 409.125C210.516 408.885 211.465 408.63 212.217 408.046C212.969 407.463 213.478 406.456 213.192 405.547C213.039 405.059 212.679 404.659 212.271 404.354C210.095 402.73 207.051 403.658 204.336 403.642C201.034 403.622 197.861 402.076 194.537 402.573C192.35 402.899 191.761 404.276 191.559 406.311C191.398 407.932 190.897 409.634 192.421 410.678Z" fill="#1E3D44"/>
<path d="M137.658 305.256C142.584 321.477 147.51 337.7 152.436 353.921C153.788 358.371 155.153 362.943 154.828 367.581C154.536 371.758 152.888 375.709 151.175 379.53C142.996 397.779 132.829 415.135 120.913 431.192C116.148 429.52 110.679 425.912 107.17 422.279C113.656 405.042 121.051 388.096 128.772 371.375C127.161 370.689 126.611 368.495 126.836 366.758C127.061 365.02 128.536 363.523 130.268 363.272C124.691 347.216 119.157 331.51 113.579 315.453C111.956 310.779 110.369 305.449 112.691 301.079C114.667 297.357 119.156 295.442 123.361 295.661C128.786 295.942 136.078 300.055 137.658 305.256Z" fill="#1E3D44"/>
<path d="M122.436 300.719C123.276 305.874 119.788 311.249 114.7 312.502C114.215 312.622 114.008 311.872 114.494 311.753C119.14 310.609 122.46 305.672 121.687 300.926C121.606 300.436 122.355 300.225 122.436 300.719Z" fill="#375A60"/>
<path d="M118.688 310.485C121.983 318.761 125.265 327.042 128.544 335.325C130.183 339.466 131.82 343.608 133.457 347.751C134.294 349.867 135.161 351.974 135.959 354.104C136.621 355.869 137.2 357.742 137.072 359.65C136.877 362.585 134.547 365.485 131.391 365.009C130.946 364.943 131.071 364.254 131.494 364.246C134.966 364.176 135.583 368.244 134.675 370.803C133.945 372.861 132.824 374.807 131.866 376.765C130.849 378.844 129.83 380.924 128.813 383.004C124.591 391.632 120.369 400.259 116.147 408.887C113.772 413.74 111.397 418.593 109.022 423.446C108.802 423.895 108.132 423.501 108.351 423.053C113.138 413.27 117.925 403.487 122.714 393.704C125.089 388.851 127.464 383.998 129.839 379.145C131.032 376.707 132.285 374.288 133.416 371.82C134.035 370.465 134.655 368.878 134.258 367.37C133.917 366.073 132.887 364.995 131.494 365.023C131.528 364.769 131.562 364.514 131.597 364.26C134.133 364.642 136.035 362.183 136.279 359.88C136.542 357.407 135.482 354.982 134.595 352.738C132.771 348.117 130.944 343.497 129.116 338.878C125.398 329.478 121.675 320.082 117.937 310.692C117.755 310.227 118.506 310.025 118.688 310.485Z" fill="#375A60"/>
<path d="M146.178 375.822C145.098 376.545 144.018 377.268 142.937 377.991C142.762 378.108 142.507 378.025 142.405 377.851C142.293 377.66 142.369 377.436 142.544 377.319C143.624 376.596 144.704 375.874 145.785 375.151C145.959 375.033 146.215 375.116 146.317 375.29C146.428 375.481 146.352 375.705 146.178 375.822Z" fill="#375A60"/>
<path d="M144.072 371.289C143.224 372.768 141.79 373.873 140.146 374.317C139.662 374.448 139.456 373.698 139.939 373.568C141.394 373.175 142.65 372.206 143.401 370.898C143.65 370.462 144.321 370.854 144.072 371.289Z" fill="#375A60"/>
<path d="M140.62 317.301C138.401 313.011 137.597 308.141 138.297 303.365C138.369 302.872 139.118 303.081 139.045 303.572C138.378 308.128 139.176 312.822 141.29 316.909C141.52 317.351 140.85 317.745 140.62 317.301Z" fill="#375A60"/>
<path d="M105.116 429.83C105.336 430.742 105.562 431.67 106.045 432.474C106.922 433.935 108.509 434.788 110.021 435.573C112.985 437.11 115.948 438.646 118.911 440.184C119.756 440.622 120.631 441.068 121.58 441.138C122.529 441.208 123.581 440.801 123.977 439.935C124.189 439.47 124.19 438.932 124.09 438.431C123.56 435.767 120.679 434.417 118.673 432.586C116.234 430.359 114.911 427.086 112.11 425.226C110.267 424.004 108.908 424.632 107.397 426.008C106.192 427.104 104.682 428.033 105.116 429.83Z" fill="#1E3D44"/>
<path d="M126.95 242.511C132.602 241.767 138.31 244.471 142.311 248.535C146.312 252.599 148.83 257.885 150.818 263.232C153.626 270.785 155.521 278.68 156.445 286.687C156.594 287.971 156.713 289.303 156.306 290.53C155.777 292.125 154.444 293.305 153.113 294.329C139.998 304.416 121.284 306.644 106.17 299.918C105.836 295.259 104.787 290.566 104.453 285.907C103.799 276.792 103.181 267.378 106.188 258.748C109.194 250.119 116.819 242.412 125.95 242.286C126.201 241.714 126.698 243.082 126.95 242.511Z" fill="#92CEE0"/>
<path d="M133.736 210.129C132.887 208.975 131.735 207.961 130.334 207.661C128.933 207.362 127.283 207.961 126.707 209.274C126.549 209.636 126.459 210.056 126.153 210.303C125.353 210.952 124.081 209.813 123.174 210.298C122.02 210.916 123.16 212.734 122.771 213.984C122.413 215.136 120.888 215.395 119.696 215.212C118.504 215.029 117.211 214.633 116.152 215.211C114.466 216.131 114.751 218.647 115.544 220.397C115.707 220.757 115.885 221.135 115.84 221.527C115.715 222.6 114.04 223.106 114.173 224.178C114.271 224.962 115.276 225.275 115.648 225.972C116.438 227.451 113.967 228.872 114.127 230.542C114.288 232.221 116.656 232.446 117.935 233.544C119.102 234.547 119.434 236.433 120.845 237.045C122.408 237.723 124.155 236.27 124.719 234.662C125.283 233.054 125.149 231.275 125.633 229.641C126.122 227.997 127.276 226.59 128.738 225.711C129.891 225.018 131.19 224.618 132.352 223.95C134.893 222.488 135.766 218.734 135.691 216.026C135.632 213.926 134.988 211.829 133.736 210.129Z" fill="#1E3D44"/>
<path d="M133.809 226.893C135.009 231.314 134.109 237.494 128.997 237.655C125.596 237.762 121.976 234.856 120.776 230.436C119.576 226.015 120.244 221.24 124.868 219.736C130.732 217.831 132.609 222.472 133.809 226.893Z" fill="#FCBA9D"/>
<path d="M121.977 229.876C122.785 231.068 123.383 233.258 122.408 233.92C121.433 234.583 119.258 233.467 118.448 232.275C117.64 231.083 117.773 229.58 118.748 228.919C119.723 228.257 121.167 228.684 121.977 229.876Z" fill="#FCBA9D"/>
<path d="M123.158 240.99C122.921 241.802 122.526 242.623 122.685 243.453C122.788 243.988 123.113 244.452 123.449 244.881C124.267 245.923 125.226 246.891 126.412 247.482C127.598 248.071 129.042 248.243 130.251 247.702C131.46 247.16 132.333 245.817 132.109 244.51C131.778 242.582 129.501 241.653 128.598 239.919C128.076 238.917 128.059 237.731 127.683 236.667C127.133 235.102 125.534 233.518 123.807 233.374C122.904 233.298 122.297 233.12 122.384 233.814C122.506 234.77 123.293 236.835 123.393 237.801C123.503 238.866 123.459 239.956 123.158 240.99Z" fill="#FCBA9D"/>
<path d="M114.597 246.463C106.942 254.01 100.632 261.056 94.1848 269.659C91.288 273.524 88.4942 277.535 86.7258 282.032C85.0281 286.347 84.3256 290.988 83.8896 295.606C83.0983 303.983 83.1468 312.44 84.0329 320.808C88.0481 321.639 92.1319 321.469 96.2207 321.166C96.0208 312.103 96.8061 302.698 96.6052 293.636C97.3824 293.39 98.7571 292.133 98.6592 291.323C98.5613 290.513 97.8356 289.825 97.0221 289.77C110.076 280.2 116.231 262.572 114.597 246.463Z" fill="#92CEE0"/>
<path d="M172.57 236.203C171.348 234.677 170.684 232.713 170.728 230.759C170.74 230.252 170.809 229.718 171.119 229.317C171.43 228.917 172.053 228.722 172.458 229.025C172.716 228.47 173.302 227.706 173.731 227.27C174.159 226.833 174.79 226.544 175.385 226.684C175.628 226.74 175.875 226.866 176.113 226.792C176.37 226.713 176.51 226.434 176.744 226.302C177.066 226.119 177.469 226.254 177.811 226.396C178.798 226.802 179.788 227.245 180.602 227.937C181.106 228.365 181.541 228.897 181.763 229.521C182.217 230.802 181.713 232.205 181.213 233.47C180.362 235.628 179.434 237.893 177.608 239.323C176.949 239.839 176.053 240.235 175.29 239.889C174.983 239.75 174.738 239.507 174.499 239.268C173.559 238.324 172.557 237.536 172.57 236.203Z" fill="#FCBA9D"/>
<path d="M138.693 245.561C147.123 250.969 152.802 257.246 160.032 264.18C159.696 263.486 159.878 262.789 159.918 262.019C159.957 261.25 160.525 260.448 161.295 260.437C162.175 260.424 162.736 261.344 163.11 262.141C165.339 252.544 168.593 243.289 170.821 233.692C174.16 235.078 177.824 236.427 180.879 238.358C177.892 249.705 175.63 261.647 172.642 272.993C172.097 275.062 171.26 277.448 169.215 278.067C168.182 278.379 167.07 278.144 166.028 277.866C158.03 275.729 150.909 271.193 144.055 266.549C140.362 264.048 136.477 261.2 135.087 256.96C133.775 252.954 137.477 249.599 138.693 245.561Z" fill="#92CEE0"/>
<path d="M112.071 252.256C112.18 262.57 109.968 272.78 105.621 282.132C105.411 282.585 104.74 282.19 104.95 281.739C109.239 272.513 111.401 262.429 111.294 252.256C111.289 251.755 112.066 251.755 112.071 252.256Z" fill="#1E3D44"/>
<path d="M95.4039 289.487C94.3229 289.621 93.2409 289.754 92.1599 289.888C91.951 289.915 91.7713 289.692 91.7713 289.5C91.7713 289.268 91.951 289.137 92.1599 289.111C93.2409 288.976 94.3229 288.843 95.4039 288.709C95.6128 288.683 95.7925 288.906 95.7925 289.098C95.7925 289.33 95.6138 289.461 95.4039 289.487Z" fill="#1E3D44"/>
<path d="M94.31 286.751C93.6358 286.893 92.9615 287.035 92.2863 287.177C92.0874 287.218 91.8573 287.118 91.8078 286.905C91.7634 286.71 91.8664 286.472 92.0793 286.426C92.7536 286.285 93.4278 286.142 94.1021 286.001C94.3009 285.96 94.531 286.06 94.5805 286.273C94.6259 286.468 94.523 286.706 94.31 286.751Z" fill="#1E3D44"/>
<path d="M153.713 272.659C152.65 266.208 150.098 260.104 146.251 254.818C145.957 254.413 146.631 254.024 146.922 254.425C150.802 259.757 153.39 265.944 154.462 272.452C154.543 272.942 153.794 273.153 153.713 272.659Z" fill="#1E3D44"/>
<path d="M163.232 266.625C162.837 265.942 162.444 265.26 162.049 264.577C161.947 264.401 162.003 264.144 162.188 264.045C162.374 263.947 162.611 263.996 162.72 264.184C163.115 264.867 163.509 265.549 163.903 266.232C164.005 266.408 163.95 266.666 163.764 266.765C163.578 266.862 163.341 266.813 163.232 266.625Z" fill="#1E3D44"/>
<path d="M159.813 266.999C159.28 265.643 158.747 264.288 158.214 262.933C158.137 262.737 158.298 262.505 158.485 262.454C158.705 262.393 158.886 262.53 158.964 262.726C159.497 264.081 160.03 265.436 160.563 266.792C160.639 266.988 160.478 267.219 160.291 267.271C160.07 267.331 159.889 267.196 159.813 266.999Z" fill="#1E3D44"/>
<path d="M143.312 283.683C142.844 286.226 141.44 288.571 139.416 290.179C139.028 290.487 138.475 289.941 138.867 289.63C140.801 288.094 142.116 285.907 142.563 283.477C142.653 282.985 143.402 283.193 143.312 283.683Z" fill="#1E3D44"/>
<path d="M139.538 280.442C137.986 283.849 135.75 286.92 132.991 289.446C132.622 289.783 132.071 289.235 132.441 288.897C135.159 286.409 137.341 283.402 138.868 280.049C139.074 279.595 139.744 279.989 139.538 280.442Z" fill="#1E3D44"/>
<path d="M1.03634 240.358C1.33712 240.358 1.63385 240.229 1.83875 239.978L51.3264 179.505L185.694 172.11L185.982 171.788L270.469 76.8613L384.209 82.492L508.899 15.7775C509.403 15.5078 509.593 14.8796 509.324 14.3746C509.053 13.8696 508.426 13.6797 507.922 13.9494L383.737 80.3922L269.58 74.7413L184.72 170.087L50.2999 177.485L0.234925 238.664C-0.128435 239.108 -0.0628226 239.761 0.379265 240.124C0.574067 240.28 0.805205 240.358 1.03634 240.358Z" fill="#9747FF"/>
<path d="M509.378 24.9786L500.935 7.80359H522.138L509.378 24.9786Z" fill="#9747FF"/>
<path d="M383.421 85.2291C380.958 85.2291 378.961 83.2309 378.961 80.7659C378.961 78.301 380.958 76.3027 383.421 76.3027C385.885 76.3027 387.882 78.301 387.882 80.7659C387.882 83.2309 385.885 85.2291 383.421 85.2291Z" fill="#9747FF"/>
<path d="M269.816 80.766C267.352 80.766 265.355 78.7677 265.355 76.3028C265.355 73.8378 267.352 71.8396 269.816 71.8396C272.279 71.8396 274.276 73.8378 274.276 76.3028C274.276 78.7677 272.279 80.766 269.816 80.766Z" fill="#9747FF"/>
<path d="M185.481 175.502C183.018 175.502 181.021 173.504 181.021 171.039C181.021 168.574 183.018 166.576 185.481 166.576C187.944 166.576 189.941 168.574 189.941 171.039C189.941 173.504 187.944 175.502 185.481 175.502Z" fill="#9747FF"/>
<path d="M49.5188 183.286C47.0554 183.286 45.0585 181.288 45.0585 178.823C45.0585 176.358 47.0554 174.36 49.5188 174.36C51.9821 174.36 53.979 176.358 53.979 178.823C53.979 181.288 51.9821 183.286 49.5188 183.286Z" fill="#9747FF"/>
<path d="M83.2466 132.16C115.863 131.888 148.486 132.367 181.081 133.596C180.355 130.475 178.223 126.863 175.091 126.193C171.959 125.522 168.493 126.806 166.553 129.356C165.808 122.578 163.625 114.594 158.111 110.586C152.597 106.578 144.086 106.39 139.421 111.36C136.576 114.39 135.559 118.657 134.651 122.714C134.476 116.984 133.256 110.753 129.635 106.31C126.013 101.867 120.23 99.0106 114.544 99.7216C110.913 100.176 107.482 102.07 105.161 104.901C100.769 110.261 100.776 117.863 100.999 124.792C99.9551 122.488 98.8044 119.716 96.6061 118.464C93.3581 116.615 88.9675 118.281 86.7712 121.307C84.5749 124.333 83.0962 128.424 83.2466 132.16Z" fill="#92CEE0"/>
<path d="M280.657 37.54C248.04 37.2684 215.418 37.7471 182.822 38.9763C183.549 35.8554 185.681 32.2436 188.813 31.573C191.945 30.9023 195.411 32.186 197.351 34.7363C198.096 27.9582 200.279 19.9741 205.793 15.9664C211.306 11.9588 219.818 11.7699 224.483 16.7401C227.328 19.7701 228.344 24.0373 229.253 28.0945C229.427 22.3638 230.648 16.1331 234.269 11.6901C237.891 7.24711 243.674 4.39083 249.36 5.10187C252.99 5.55536 256.422 7.45012 258.742 10.2811C263.135 15.6412 263.128 23.2435 262.905 30.1721C263.949 27.8683 265.099 25.0958 267.298 23.8444C270.546 21.9951 274.936 23.6616 277.133 26.6876C279.329 29.7136 280.806 33.803 280.657 37.54Z" fill="#92CEE0"/>
<path d="M670.564 26.4845C644.024 26.2633 617.479 26.6532 590.956 27.6531C591.548 25.1129 593.283 22.1749 595.83 21.6284C598.378 21.082 601.199 22.1274 602.778 24.2019C603.383 18.6863 605.161 12.19 609.646 8.92871C614.133 5.66742 621.058 5.5139 624.855 9.55794C627.17 12.0233 627.997 15.4957 628.736 18.7974C628.878 14.1342 629.87 9.06405 632.817 5.44926C635.765 1.83447 640.47 -0.490555 645.097 0.088175C648.051 0.457835 650.843 1.9991 652.732 4.30291C656.306 8.66408 656.301 14.8503 656.119 20.4882C656.969 18.6136 657.904 16.3573 659.693 15.3392C662.335 13.8343 665.908 15.1907 667.695 17.6531C669.481 20.1155 670.687 23.4434 670.564 26.4845Z" fill="#92CEE0"/>
<path d="M534.289 103.224C566.906 102.953 599.529 103.431 632.124 104.661C631.397 101.54 629.266 97.9279 626.134 97.2573C623.002 96.5866 619.536 97.8704 617.596 100.421C616.851 93.6425 614.668 85.6585 609.154 81.6508C603.64 77.6431 595.129 77.4542 590.464 82.4244C587.618 85.4544 586.603 89.7217 585.694 93.7788C585.519 88.0481 584.299 81.8174 580.677 77.3744C577.056 72.9314 571.272 70.0752 565.587 70.7862C561.956 71.2407 558.524 73.1344 556.204 75.9655C551.811 81.3255 551.818 88.9278 552.041 95.8564C550.998 93.5526 549.847 90.7801 547.649 89.5288C544.401 87.6794 540.01 89.346 537.814 92.3719C535.62 95.3959 534.139 99.4884 534.289 103.224Z" fill="#92CEE0"/>
<path d="M28.8829 246.215C51.6009 245.721 74.3402 246.152 97.0229 247.509C96.9503 245.352 95.5948 242.18 93.5135 241.62C91.4323 241.059 89.0361 241.998 87.8915 243.825C88.0025 243.74 88.1125 243.655 88.2236 243.569C84.5112 232.088 74.6501 222.422 62.7763 220.32C59.1911 219.684 55.4404 219.651 51.9683 220.746C43.5303 223.408 38.3302 232.341 37.337 241.138C35.5999 238.92 32.6053 236.953 30.0406 238.117C27.5637 239.24 27.8543 243.697 28.8829 246.215Z" fill="#92CEE0"/>
<path d="M348.897 48.9652C367.021 48.5713 385.161 48.9157 403.256 49.9974C403.198 48.2774 402.116 45.7463 400.456 45.2989C398.796 44.8514 396.885 45.6009 395.97 47.0593C396.059 46.9916 396.147 46.9229 396.236 46.8553C393.275 37.6966 385.408 29.9862 375.935 28.3086C373.076 27.8026 370.083 27.7754 367.313 28.649C360.582 30.773 356.434 37.8986 355.642 44.9171C354.256 43.1476 351.867 41.579 349.821 42.5072C347.844 43.4011 348.077 46.9573 348.897 48.9652Z" fill="#92CEE0"/>
<path d="M449.5 89.149C464.709 88.8177 479.932 89.1075 495.117 90.0155C495.069 88.5722 494.161 86.4482 492.767 86.0725C491.374 85.6968 489.771 86.326 489.004 87.5491C489.077 87.4915 489.152 87.435 489.226 87.3774C486.741 79.6913 480.139 73.2213 472.189 71.8133C469.789 71.3881 467.278 71.3659 464.953 72.0991C459.304 73.8818 455.824 79.861 455.159 85.7503C453.996 84.2656 451.99 82.9496 450.274 83.7283C448.617 84.4797 448.812 87.4633 449.5 89.149Z" fill="#92CEE0"/>
<path d="M797 134L717.581 171.391C707.612 176.311 699.908 184.849 696.049 195.254L695.912 195.625C692.294 205.382 685.284 213.52 676.159 218.558L610.362 254.889C603.505 258.675 597.799 264.237 593.847 270.989C587.358 282.074 576.285 289.729 563.601 291.898L508.308 301.355C496.51 303.373 486.066 310.145 479.429 320.081L474.951 326.782C469.179 335.423 460.493 341.716 450.469 344.519L404.442 357.394C398.342 359.1 392.689 362.114 387.876 366.224L379.748 373.166C370.83 380.783 355.866 374.699 344.174 373.648L309.392 368.917C298.733 367.96 287.598 381.995 279.009 388.363L260.645 401.978C253.134 407.546 244.024 410.553 234.665 410.553H216.409C208.5 410.553 200.742 412.701 193.964 416.766L169.363 431.522C162.587 435.587 154.827 437.735 146.919 437.735H130.55C121.905 437.735 113.456 440.301 106.279 445.106L93 454H797V134Z" fill="#1E3D44"/>
</svg>
