<svg id="SvgjsSvg1001" width="288" height="288" xmlns="http://www.w3.org/2000/svg" version="1.1" xmlns:xlink="http://www.w3.org/1999/xlink" xmlns:svgjs="http://svgjs.com/svgjs"><defs id="SvgjsDefs1002"></defs><g id="SvgjsG1008"><svg xmlns="http://www.w3.org/2000/svg" fill="none" viewBox="0 0 24 24" width="288" height="288"><path fill="url(#a)" fill-rule="evenodd" d="M6.29289 6.29289C6.68342 5.90237 7.31658 5.90237 7.70711 6.29289L17.7071 16.2929C18.0976 16.6834 18.0976 17.3166 17.7071 17.7071C17.3166 18.0976 16.6834 18.0976 16.2929 17.7071L6.29289 7.70711C5.90237 7.31658 5.90237 6.68342 6.29289 6.29289Z" clip-rule="evenodd"></path><path fill="#8d3cfb" fill-rule="evenodd" d="M6.29289 17.7071C5.90237 17.3166 5.90237 16.6834 6.29289 16.2929L16.2929 6.29289C16.6834 5.90237 17.3166 5.90237 17.7071 6.29289C18.0976 6.68342 18.0976 7.31658 17.7071 7.70711L7.70711 17.7071C7.31658 18.0976 6.68342 18.0976 6.29289 17.7071Z" clip-rule="evenodd" className="color850026 svgShape"></path><defs><linearGradient id="a" x1="5.455" x2="18.546" y1="5.455" y2="18.546" gradientUnits="userSpaceOnUse"><stop offset=".083" stop-color="#6a03f5" className="stopColorFF6A6A svgShape"></stop><stop offset="1" stop-color="#a159fd" className="stopColorF72257 svgShape"></stop></linearGradient></defs></svg></g></svg>