<svg xmlns="http://www.w3.org/2000/svg" xmlns:xlink="http://www.w3.org/1999/xlink" viewBox="0,0,256,256" width="100px" height="100px" fill-rule="nonzero"><g fill="#cc5de8" fill-rule="nonzero" stroke="none" stroke-width="1" stroke-linecap="butt" stroke-linejoin="miter" stroke-miterlimit="10" stroke-dasharray="" stroke-dashoffset="0" font-family="none" font-weight="none" font-size="none" text-anchor="none" style="mix-blend-mode: normal"><g transform="scale(2.56,2.56)"><path d="M32.999,75h-32.997l0.001,-4h32.997c0.516,0 1.025,-0.2 1.416,-0.587l14.171,-14.173c0.78,-0.773 2.048,-0.773 2.828,0l14.172,14.173c0.78,0.787 2.049,0.787 2.829,0c0.78,-0.773 0.78,-2.053 0,-2.827l-14.171,-14.173c-0.781,-0.773 -0.781,-2.04 0,-2.827l14.172,-14.173c0.78,-0.773 0.78,-2.053 0,-2.827c-0.78,-0.787 -2.049,-0.787 -2.829,0l-14.173,14.174c-0.78,0.773 -2.048,0.773 -2.828,0l-14.17,-14.173c-0.78,-0.787 -2.049,-0.787 -2.829,0c-0.78,0.773 -0.78,2.053 0,2.827l14.171,14.173c0.781,0.787 0.781,2.053 0,2.827l-14.172,14.173c-0.391,0.387 -0.585,0.893 -0.585,1.413h-4c0,-1.533 0.585,-3.067 1.757,-4.24l12.756,-12.76l-12.756,-12.76c-2.343,-2.333 -2.343,-6.133 0,-8.48c2.343,-2.347 6.143,-2.347 8.485,0l12.757,12.76l12.757,-12.76c2.343,-2.347 6.143,-2.347 8.485,0c2.343,2.347 2.343,6.147 0,8.48l-12.756,12.76l12.757,12.76c2.343,2.347 2.343,6.147 0,8.48c-2.343,2.347 -6.143,2.347 -8.485,0l-12.757,-12.747l-12.757,12.747c-1.172,1.173 -2.711,1.76 -4.246,1.76zM38.659,74.653l3.659,-3.653h15.368l3.659,3.653c0.117,0.12 0.239,0.24 0.363,0.347h-23.414c0.125,-0.107 0.247,-0.227 0.365,-0.347zM72.659,74.653c1.048,-1.04 1.745,-2.307 2.089,-3.653h25.255v4h-27.708c0.124,-0.107 0.246,-0.227 0.364,-0.347z"></path></g></g></svg>