<svg width="359" height="96" viewBox="0 0 359 96" fill="none" xmlns="http://www.w3.org/2000/svg">
<g filter="url(#filter0_d_776_591)">
<path d="M4 0H354.186L276.267 87.7703H4V0Z" fill="#85DCBF"/>
</g>
<path d="M45.25 59V25H56.8C58.8 25 60.5333 25.3667 62 26.1C63.4667 26.8333 64.6 27.8333 65.4 29.1C66.2 30.3333 66.6 31.7333 66.6 33.3C66.6 34.9667 66.2667 36.45 65.6 37.75C64.9333 39.0167 63.9333 39.95 62.6 40.55C63.9 40.8833 65.05 41.45 66.05 42.25C67.0833 43.05 67.8833 44.05 68.45 45.25C69.05 46.45 69.35 47.8167 69.35 49.35C69.35 51.25 68.9 52.9333 68 54.4C67.1333 55.8333 65.9 56.9667 64.3 57.8C62.7 58.6 60.7833 59 58.55 59H45.25ZM51.4 54H57.9C59.3667 54 60.6 53.5333 61.6 52.6C62.6 51.6333 63.1 50.4333 63.1 49C63.1 48.1 62.8667 47.2833 62.4 46.55C61.9333 45.8167 61.3167 45.2333 60.55 44.8C59.8167 44.3333 58.9833 44.1 58.05 44.1H51.4V54ZM51.4 38.85H56.05C57.3167 38.85 58.4 38.45 59.3 37.65C60.2333 36.85 60.7 35.7667 60.7 34.4C60.7 33.1 60.2333 32.05 59.3 31.25C58.4 30.45 57.2 30.05 55.7 30.05H51.4V38.85ZM85.8273 59.5C83.7607 59.5 81.894 58.9667 80.2273 57.9C78.594 56.8333 77.294 55.4167 76.3273 53.65C75.394 51.8833 74.9273 50 74.9273 48C74.9273 45.9667 75.394 44.0833 76.3273 42.35C77.294 40.6167 78.594 39.2 80.2273 38.1C81.894 37 83.7607 36.45 85.8273 36.45C87.3607 36.45 88.794 36.75 90.1273 37.35C91.494 37.9167 92.6607 38.8 93.6273 40V37H99.7773V59H93.6273V56C93.0607 56.7667 92.3607 57.4167 91.5273 57.95C90.694 58.45 89.7773 58.8333 88.7773 59.1C87.8107 59.3667 86.8273 59.5 85.8273 59.5ZM87.5273 54.35C88.694 54.35 89.7273 54.05 90.6273 53.45C91.5607 52.85 92.294 52.0667 92.8273 51.1C93.3607 50.1333 93.6273 49.1 93.6273 48C93.6273 46.8667 93.3607 45.8333 92.8273 44.9C92.294 43.9333 91.5607 43.15 90.6273 42.55C89.7273 41.95 88.694 41.65 87.5273 41.65C86.3607 41.65 85.3107 41.95 84.3773 42.55C83.4773 43.15 82.7607 43.9333 82.2273 44.9C81.694 45.8333 81.4273 46.8667 81.4273 48C81.4273 49.1 81.694 50.1333 82.2273 51.1C82.7607 52.0667 83.4773 52.85 84.3773 53.45C85.3107 54.05 86.3607 54.35 87.5273 54.35ZM117.91 59.55C115.877 59.55 114.077 59.2833 112.51 58.75C110.943 58.1833 109.677 57.3 108.71 56.1C107.777 54.9 107.21 53.3667 107.01 51.5H113.21C113.31 52.5333 113.61 53.3167 114.11 53.85C114.643 54.35 115.277 54.6833 116.01 54.85C116.743 55.0167 117.427 55.1 118.06 55.1C119.16 55.1 120.043 54.9 120.71 54.5C121.41 54.1 121.76 53.5 121.76 52.7C121.76 51.9667 121.443 51.4 120.81 51C120.21 50.5667 119.393 50.2 118.36 49.9C117.593 49.7333 116.727 49.5667 115.76 49.4C114.827 49.2 113.893 48.9667 112.96 48.7C112.027 48.4333 111.193 48.0833 110.46 47.65C109.693 47.2167 109.077 46.65 108.61 45.95C108.143 45.25 107.91 44.3833 107.91 43.35C107.91 41.85 108.293 40.5833 109.06 39.55C109.827 38.5167 110.927 37.75 112.36 37.25C113.827 36.7167 115.593 36.45 117.66 36.45C120.293 36.45 122.493 36.9833 124.26 38.05C126.027 39.0833 127.11 40.8167 127.51 43.25H121.36C121.227 42.5833 120.96 42.0833 120.56 41.75C120.193 41.3833 119.743 41.1333 119.21 41C118.677 40.8333 118.11 40.75 117.51 40.75C116.677 40.75 115.91 40.9333 115.21 41.3C114.51 41.6667 114.16 42.1833 114.16 42.85C114.16 43.5833 114.51 44.1 115.21 44.4C115.943 44.6667 116.81 44.9 117.81 45.1C118.41 45.2 119.077 45.3333 119.81 45.5C120.577 45.6333 121.343 45.8167 122.11 46.05C122.877 46.25 123.593 46.5 124.26 46.8C125.393 47.3333 126.293 48.05 126.96 48.95C127.66 49.85 128.01 51.0333 128.01 52.5C128.01 54.2 127.577 55.5667 126.71 56.6C125.843 57.6333 124.643 58.3833 123.11 58.85C121.577 59.3167 119.843 59.55 117.91 59.55ZM136.195 59V36.95H142.395V59H136.195ZM139.295 33.6C138.262 33.6 137.379 33.25 136.645 32.55C135.945 31.8167 135.595 30.9333 135.595 29.9C135.595 28.9 135.945 28.05 136.645 27.35C137.379 26.6167 138.262 26.25 139.295 26.25C140.295 26.25 141.145 26.6167 141.845 27.35C142.579 28.05 142.945 28.9 142.945 29.9C142.945 30.9333 142.579 31.8167 141.845 32.55C141.145 33.25 140.295 33.6 139.295 33.6ZM162.181 59.5C160.481 59.5 158.898 59.2167 157.431 58.65C155.998 58.05 154.748 57.2333 153.681 56.2C152.615 55.1333 151.798 53.9 151.231 52.5C150.665 51.1 150.381 49.6 150.381 48C150.381 45.9 150.881 43.9833 151.881 42.25C152.881 40.4833 154.281 39.0833 156.081 38.05C157.881 37.0167 159.948 36.5 162.281 36.5C164.415 36.5 166.298 36.9 167.931 37.7C169.598 38.4667 170.948 39.5333 171.981 40.9C173.048 42.2667 173.698 43.8 173.931 45.5H167.681C167.448 44.3 166.865 43.35 165.931 42.65C164.998 41.95 163.881 41.6 162.581 41.6C161.348 41.6 160.298 41.9167 159.431 42.55C158.598 43.1833 157.965 43.9833 157.531 44.95C157.098 45.9167 156.881 46.95 156.881 48.05C156.881 49.05 157.081 50.05 157.481 51.05C157.881 52.05 158.498 52.8833 159.331 53.55C160.165 54.1833 161.198 54.5 162.431 54.5C163.698 54.5 164.781 54.2167 165.681 53.65C166.615 53.05 167.248 52.2167 167.581 51.15H173.731C173.398 52.7833 172.698 54.2333 171.631 55.5C170.598 56.7333 169.265 57.7167 167.631 58.45C166.031 59.15 164.215 59.5 162.181 59.5Z" fill="black"/>
<defs>
<filter id="filter0_d_776_591" x="0" y="0" width="358.186" height="95.7703" filterUnits="userSpaceOnUse" color-interpolation-filters="sRGB">
<feFlood flood-opacity="0" result="BackgroundImageFix"/>
<feColorMatrix in="SourceAlpha" type="matrix" values="0 0 0 0 0 0 0 0 0 0 0 0 0 0 0 0 0 0 127 0" result="hardAlpha"/>
<feOffset dy="4"/>
<feGaussianBlur stdDeviation="2"/>
<feComposite in2="hardAlpha" operator="out"/>
<feColorMatrix type="matrix" values="0 0 0 0 0.0980392 0 0 0 0 0.211765 0 0 0 0 0.317647 0 0 0 0.76 0"/>
<feBlend mode="normal" in2="BackgroundImageFix" result="effect1_dropShadow_776_591"/>
<feBlend mode="normal" in="SourceGraphic" in2="effect1_dropShadow_776_591" result="shape"/>
</filter>
</defs>
</svg>
