<svg width="359" height="96" viewBox="0 0 359 96" fill="none" xmlns="http://www.w3.org/2000/svg">
<g filter="url(#filter0_d_776_593)">
<path d="M4 0H354.186L276.267 87.7703H4V0Z" fill="#DEA85F"/>
</g>
<path d="M45.25 59V25H66.1V30.6H51.4V39.15H65.6V44.8H51.4V53.4H66.1V59H45.25ZM75.3008 59V21.5H81.4508V59H75.3008ZM91.4473 59V36.95H97.6473V59H91.4473ZM94.5473 33.6C93.5139 33.6 92.6306 33.25 91.8973 32.55C91.1973 31.8167 90.8473 30.9333 90.8473 29.9C90.8473 28.9 91.1973 28.05 91.8973 27.35C92.6306 26.6167 93.5139 26.25 94.5473 26.25C95.5473 26.25 96.3973 26.6167 97.0973 27.35C97.8306 28.05 98.1973 28.9 98.1973 29.9C98.1973 30.9333 97.8306 31.8167 97.0973 32.55C96.3973 33.25 95.5473 33.6 94.5473 33.6ZM110.818 59V41.9H105.668V36.95H110.818V28.5H116.968V36.95H122.118V41.9H116.968V59H110.818ZM139.738 59.45C137.338 59.45 135.188 58.9833 133.288 58.05C131.388 57.0833 129.888 55.75 128.788 54.05C127.721 52.3167 127.188 50.2833 127.188 47.95C127.188 45.7167 127.721 43.7333 128.788 42C129.888 40.2667 131.371 38.9167 133.238 37.95C135.105 36.95 137.221 36.45 139.588 36.45C141.755 36.45 143.738 36.9333 145.538 37.9C147.371 38.8667 148.838 40.2167 149.938 41.95C151.038 43.6833 151.588 45.6833 151.588 47.95V49.35H132.188V45.4H145.538C145.405 44.0667 144.788 42.9667 143.688 42.1C142.621 41.2333 141.288 40.8 139.688 40.8C138.355 40.8 137.221 41.0833 136.288 41.65C135.388 42.1833 134.688 42.95 134.188 43.95C133.721 44.95 133.488 46.1167 133.488 47.45C133.488 48.95 133.755 50.25 134.288 51.35C134.821 52.45 135.538 53.3 136.438 53.9C137.371 54.5 138.388 54.8 139.488 54.8C140.521 54.8 141.471 54.6833 142.338 54.45C143.238 54.1833 144.021 53.85 144.688 53.45C145.388 53.0167 145.938 52.55 146.338 52.05L150.038 55.2C149.371 56 148.488 56.7333 147.388 57.4C146.321 58.0333 145.121 58.5333 143.788 58.9C142.488 59.2667 141.138 59.45 139.738 59.45Z" fill="black"/>
<defs>
<filter id="filter0_d_776_593" x="0" y="0" width="358.186" height="95.7703" filterUnits="userSpaceOnUse" color-interpolation-filters="sRGB">
<feFlood flood-opacity="0" result="BackgroundImageFix"/>
<feColorMatrix in="SourceAlpha" type="matrix" values="0 0 0 0 0 0 0 0 0 0 0 0 0 0 0 0 0 0 127 0" result="hardAlpha"/>
<feOffset dy="4"/>
<feGaussianBlur stdDeviation="2"/>
<feComposite in2="hardAlpha" operator="out"/>
<feColorMatrix type="matrix" values="0 0 0 0 0.0980392 0 0 0 0 0.211765 0 0 0 0 0.317647 0 0 0 0.76 0"/>
<feBlend mode="normal" in2="BackgroundImageFix" result="effect1_dropShadow_776_593"/>
<feBlend mode="normal" in="SourceGraphic" in2="effect1_dropShadow_776_593" result="shape"/>
</filter>
</defs>
</svg>
