<svg width="359" height="96" viewBox="0 0 359 96" fill="none" xmlns="http://www.w3.org/2000/svg">
<g filter="url(#filter0_d_776_592)">
<path d="M4 0H354.186L276.267 87.7703H4V0Z" fill="#2A6057"/>
</g>
<path d="M45.25 59V25H58.3C60.1667 25 61.9 25.45 63.5 26.35C65.1 27.25 66.3833 28.5 67.35 30.1C68.3167 31.7 68.8 33.5667 68.8 35.7C68.8 37.9 68.3167 39.8 67.35 41.4C66.3833 43 65.1 44.2333 63.5 45.1C61.9333 45.9667 60.2 46.4 58.3 46.4H51.4V59H45.25ZM51.4 41.4H57.4C58.3333 41.4 59.1833 41.1667 59.95 40.7C60.75 40.2333 61.4 39.5667 61.9 38.7C62.4 37.8 62.65 36.7833 62.65 35.65C62.65 34.5167 62.4 33.5333 61.9 32.7C61.4333 31.8333 60.8 31.1833 60 30.75C59.2 30.2833 58.3333 30.05 57.4 30.05H51.4V41.4ZM76.1285 59V36.95H82.3285V40.2C82.7285 39.4 83.2285 38.7333 83.8285 38.2C84.4285 37.6333 85.1118 37.2167 85.8785 36.95C86.6785 36.65 87.5118 36.5 88.3785 36.5C88.7119 36.5 89.0785 36.5333 89.4785 36.6C89.9118 36.6667 90.2952 36.7833 90.6285 36.95V43C90.2285 42.5667 89.7618 42.2667 89.2285 42.1C88.7285 41.9 88.2118 41.8 87.6785 41.8C86.7118 41.8 85.8118 42.1167 84.9785 42.75C84.1785 43.35 83.5285 44.1333 83.0285 45.1C82.5618 46.0333 82.3285 47 82.3285 48V59H76.1285ZM109.324 59.4C106.957 59.4 104.824 58.9333 102.924 58C101.024 57.0333 99.5238 55.6833 98.4238 53.95C97.3238 52.2167 96.7738 50.2167 96.7738 47.95C96.7738 45.7167 97.3238 43.75 98.4238 42.05C99.5238 40.3167 101.024 38.95 102.924 37.95C104.824 36.95 106.957 36.45 109.324 36.45C111.69 36.45 113.807 36.95 115.674 37.95C117.574 38.95 119.074 40.3167 120.174 42.05C121.307 43.75 121.874 45.7167 121.874 47.95C121.874 50.2167 121.324 52.2167 120.224 53.95C119.124 55.6833 117.624 57.0333 115.724 58C113.824 58.9333 111.69 59.4 109.324 59.4ZM109.324 54.4C110.69 54.4 111.824 54.1 112.724 53.5C113.624 52.8667 114.29 52.0667 114.724 51.1C115.157 50.1 115.374 49.05 115.374 47.95C115.374 46.8167 115.14 45.7667 114.674 44.8C114.24 43.8 113.574 43 112.674 42.4C111.807 41.7667 110.69 41.45 109.324 41.45C107.957 41.45 106.824 41.7667 105.924 42.4C105.024 43 104.34 43.8 103.874 44.8C103.44 45.7667 103.224 46.8167 103.224 47.95C103.224 49.05 103.44 50.1 103.874 51.1C104.307 52.0667 104.974 52.8667 105.874 53.5C106.807 54.1 107.957 54.4 109.324 54.4Z" fill="black"/>
<defs>
<filter id="filter0_d_776_592" x="0" y="0" width="358.186" height="95.7703" filterUnits="userSpaceOnUse" color-interpolation-filters="sRGB">
<feFlood flood-opacity="0" result="BackgroundImageFix"/>
<feColorMatrix in="SourceAlpha" type="matrix" values="0 0 0 0 0 0 0 0 0 0 0 0 0 0 0 0 0 0 127 0" result="hardAlpha"/>
<feOffset dy="4"/>
<feGaussianBlur stdDeviation="2"/>
<feComposite in2="hardAlpha" operator="out"/>
<feColorMatrix type="matrix" values="0 0 0 0 0.0980392 0 0 0 0 0.211765 0 0 0 0 0.317647 0 0 0 0.76 0"/>
<feBlend mode="normal" in2="BackgroundImageFix" result="effect1_dropShadow_776_592"/>
<feBlend mode="normal" in="SourceGraphic" in2="effect1_dropShadow_776_592" result="shape"/>
</filter>
</defs>
</svg>
