<svg width="27" height="23" viewBox="0 0 27 23" fill="none" xmlns="http://www.w3.org/2000/svg">
<path d="M15.8203 6.32812H13.9219V12.6562L19.3388 15.8709L20.25 14.3395L15.8203 11.707V6.32812ZM15.1875 0C12.1665 0 9.26927 1.20008 7.13311 3.33624C4.99695 5.47239 3.79688 8.36964 3.79688 11.3906H0L5.01188 16.4911L10.125 11.3906H6.32812C6.32813 9.04097 7.26152 6.78755 8.92298 5.1261C10.5844 3.46465 12.8378 2.53125 15.1875 2.53125C17.5372 2.53125 19.7906 3.46465 21.452 5.1261C23.1135 6.78755 24.0469 9.04097 24.0469 11.3906C24.0469 13.7403 23.1135 15.9937 21.452 17.6551C19.7906 19.3166 17.5372 20.25 15.1875 20.25C12.7448 20.25 10.53 19.2502 8.93531 17.6428L7.13812 19.44C8.19063 20.5037 9.44452 21.347 10.8266 21.9207C12.2086 22.4943 13.6911 22.7869 15.1875 22.7812C18.2085 22.7812 21.1057 21.5812 23.2419 19.445C25.378 17.3089 26.5781 14.4116 26.5781 11.3906C26.5781 8.36964 25.378 5.47239 23.2419 3.33624C21.1057 1.20008 18.2085 0 15.1875 0Z" fill="#A0A0A0"/>
</svg>
