<svg width="100" height="100" viewBox="0 0 100 100" fill="none" xmlns="http://www.w3.org/2000/svg">
<path d="M57.2266 26.1719C57.2266 24.1536 56.5267 22.4284 55.127 20.9961C53.7272 19.5638 52.0182 18.8477 50 18.8477C47.9818 18.8477 46.2728 19.5638 44.873 20.9961C43.4733 22.4284 42.7734 24.1536 42.7734 26.1719C42.7734 26.4323 42.7897 26.6927 42.8223 26.9531C42.8548 27.2135 42.9036 27.5065 42.9688 27.832H57.0312C57.0964 27.5065 57.1452 27.2135 57.1777 26.9531C57.2103 26.6927 57.2266 26.4323 57.2266 26.1719ZM71.9727 22.5586C71.4518 22.4935 71.0124 22.2819 70.6543 21.9238C70.2962 21.5658 70.0521 21.1263 69.9219 20.6055C69.7266 19.8893 69.4661 19.1732 69.1406 18.457C68.8151 17.7409 68.457 17.0247 68.0664 16.3086C67.806 15.8529 67.6921 15.3646 67.7246 14.8438C67.7572 14.3229 67.9036 13.8346 68.1641 13.3789L70.6055 9.47266L66.9922 5.95703L62.8906 8.39844C62.5 8.65885 62.0443 8.78906 61.5234 8.78906C61.0026 8.78906 60.5143 8.65885 60.0586 8.39844C59.4076 8.00781 58.7077 7.66602 57.959 7.37305C57.2103 7.08008 56.4779 6.83594 55.7617 6.64062C55.2409 6.51041 54.8014 6.25 54.4434 5.85938C54.0853 5.46875 53.8411 5.04557 53.7109 4.58984L52.5391 0H47.4609L46.3867 4.49219C46.2565 5.01302 46.0124 5.45248 45.6543 5.81055C45.2962 6.16862 44.8568 6.44531 44.3359 6.64062C43.5547 6.83594 42.806 7.08008 42.0898 7.37305C41.3737 7.66602 40.6576 8.00781 39.9414 8.39844C39.4857 8.65885 39.0137 8.77279 38.5254 8.74023C38.0371 8.70768 37.5651 8.5612 37.1094 8.30078L33.0078 5.85938L29.3945 9.375L31.8359 13.3789C32.1615 13.8346 32.3242 14.3229 32.3242 14.8438C32.3242 15.3646 32.194 15.8529 31.9336 16.3086C31.543 16.9596 31.2012 17.6432 30.9082 18.3594C30.6152 19.0755 30.3385 19.7917 30.0781 20.5078C29.9479 21.0286 29.7038 21.4681 29.3457 21.8262C28.9876 22.1842 28.5482 22.4284 28.0273 22.5586L23.4375 23.6328V27.832H37.1094C37.1094 27.5065 37.0931 27.2135 37.0605 26.9531C37.028 26.6927 37.0117 26.4323 37.0117 26.1719C37.0117 22.5911 38.2812 19.5312 40.8203 16.9922C43.3594 14.4531 46.4193 13.1836 50 13.1836C53.5807 13.1836 56.6406 14.4531 59.1797 16.9922C61.7188 19.5312 62.9883 22.5911 62.9883 26.1719C62.9883 26.4323 62.972 26.6927 62.9395 26.9531C62.9069 27.2135 62.8906 27.5065 62.8906 27.832H76.5625V23.7305L71.9727 22.5586ZM0 86.8164V98.0469C0 98.5677 0.195312 99.0234 0.585938 99.4141C0.976562 99.8047 1.43229 100 1.95312 100H98.0469C98.5677 100 99.0234 99.8047 99.4141 99.4141C99.8047 99.0234 100 98.5677 100 98.0469V86.8164H68.8477L66.6016 92.1875C66.4062 92.7734 66.0645 93.2292 65.5762 93.5547C65.0879 93.8802 64.5508 94.043 63.9648 94.043H35.9375C35.3516 94.043 34.8145 93.8802 34.3262 93.5547C33.8379 93.2292 33.4961 92.7734 33.3008 92.1875L31.1523 86.8164H0ZM90.4297 33.4961H9.57031C9.04948 33.4961 8.59375 33.6751 8.20312 34.0332C7.8125 34.3913 7.61719 34.8633 7.61719 35.4492V81.1523H33.1055C33.6914 81.1523 34.2122 81.3151 34.668 81.6406C35.1237 81.9661 35.4818 82.3893 35.7422 82.9102L37.8906 88.2812H62.1094L64.2578 82.9102C64.4531 82.3893 64.7949 81.9661 65.2832 81.6406C65.7715 81.3151 66.3086 81.1523 66.8945 81.1523H92.3828V35.4492C92.3828 34.8633 92.1875 34.3913 91.7969 34.0332C91.4062 33.6751 90.9505 33.4961 90.4297 33.4961ZM39.9414 54.0039L29.5898 59.1797L39.9414 64.3555V69.9219L22.5586 60.9375V57.4219L39.9414 48.5352V54.0039ZM48.2422 70.2148H42.9688L52.7344 44.7266H58.1055L48.2422 70.2148ZM77.4414 60.9375L60.0586 69.9219V64.3555L70.5078 59.1797L60.0586 54.0039V48.5352L77.4414 57.4219V60.9375Z" fill="white"/>
</svg>
