<svg width="100" height="100" viewBox="0 0 100 100" fill="none" xmlns="http://www.w3.org/2000/svg">
<path d="M93.9453 64.8438C93.9453 63.2161 93.3756 61.8327 92.2363 60.6934C91.097 59.554 89.7135 58.9844 88.0859 58.9844C89.7135 58.9844 91.097 58.4147 92.2363 57.2754C93.3756 56.1361 93.9453 54.7526 93.9453 53.125C93.9453 51.4974 93.3756 50.1139 92.2363 48.9746C91.097 47.8353 89.7135 47.2656 88.0859 47.2656H64.0625C65.8203 41.9271 66.8457 37.9557 67.1387 35.3516C67.4316 32.7474 67.5781 29.8177 67.5781 26.5625C67.5781 24.1536 66.7155 22.0866 64.9902 20.3613C63.265 18.6361 61.1979 17.7734 58.7891 17.7734H57.0312C56.4453 17.7734 55.8594 17.9688 55.2734 18.3594C54.6875 18.75 54.3294 19.3034 54.1992 20.0195C53.4831 22.819 52.6367 25.6836 51.6602 28.6133C50.6836 31.4779 49.4629 34.1634 47.998 36.6699C46.5332 39.1764 44.7591 41.3411 42.6758 43.1641C40.6576 44.987 38.2161 46.224 35.3516 46.875V89.2578L45.5078 92.5781C47.0052 93.099 48.5189 93.4896 50.0488 93.75C51.5788 94.0104 53.1576 94.1406 54.7852 94.1406H82.2266C83.8542 94.1406 85.2376 93.571 86.377 92.4316C87.5163 91.2923 88.0859 89.9089 88.0859 88.2812C88.0859 86.6536 87.5163 85.2702 86.377 84.1309C85.2376 82.9915 83.8542 82.4219 82.2266 82.4219H88.0859C89.7135 82.4219 91.097 81.8522 92.2363 80.7129C93.3756 79.5736 93.9453 78.1901 93.9453 76.5625C93.9453 74.9349 93.3756 73.5514 92.2363 72.4121C91.097 71.2728 89.7135 70.7031 88.0859 70.7031C89.7135 70.7031 91.097 70.1335 92.2363 68.9941C93.3756 67.8548 93.9453 66.4714 93.9453 64.8438ZM20.7031 41.4062H8.98438C8.20312 41.4062 7.51953 41.6992 6.93359 42.2852C6.34766 42.8711 6.05469 43.5547 6.05469 44.3359V97.0703C6.05469 97.8516 6.34766 98.5352 6.93359 99.1211C7.51953 99.707 8.20312 100 8.98438 100H20.7031C23.112 100 25.179 99.1374 26.9043 97.4121C28.6296 95.6868 29.4922 93.6198 29.4922 91.2109V50.1953C29.4922 47.7865 28.6296 45.7194 26.9043 43.9941C25.179 42.2689 23.112 41.4062 20.7031 41.4062ZM20.7031 88.2812C19.9219 88.2812 19.2383 87.9883 18.6523 87.4023C18.0664 86.8164 17.7734 86.1328 17.7734 85.3516C17.7734 84.5703 18.0664 83.8867 18.6523 83.3008C19.2383 82.7148 19.9219 82.4219 20.7031 82.4219C21.4844 82.4219 22.168 82.7148 22.7539 83.3008C23.3398 83.8867 23.6328 84.5703 23.6328 85.3516C23.6328 86.1328 23.3398 86.8164 22.7539 87.4023C22.168 87.9883 21.4844 88.2812 20.7031 88.2812ZM46.3867 12.8906L42.1875 8.78906C41.6016 8.20312 40.918 7.91016 40.1367 7.91016C39.3555 7.91016 38.6719 8.20312 38.0859 8.78906C37.5 9.375 37.207 10.0586 37.207 10.8398C37.207 11.6211 37.5 12.3047 38.0859 12.8906L42.1875 17.0898C42.7734 17.6107 43.4733 17.8711 44.2871 17.8711C45.1009 17.8711 45.8008 17.6107 46.3867 17.0898C46.9076 16.5039 47.168 15.804 47.168 14.9902C47.168 14.1764 46.9076 13.4766 46.3867 12.8906ZM79.4922 8.78906C78.9062 8.20312 78.2227 7.91016 77.4414 7.91016C76.6602 7.91016 75.9766 8.20312 75.3906 8.78906L71.1914 12.8906C70.6706 13.4766 70.4102 14.1764 70.4102 14.9902C70.4102 15.804 70.6706 16.5039 71.1914 17.0898C71.7773 17.6107 72.4772 17.8711 73.291 17.8711C74.1048 17.8711 74.8047 17.6107 75.3906 17.0898L79.4922 12.8906C80.0781 12.3047 80.3711 11.6211 80.3711 10.8398C80.3711 10.0586 80.0781 9.375 79.4922 8.78906ZM58.7891 0C57.9427 0 57.2428 0.276695 56.6895 0.830078C56.1361 1.38346 55.8594 2.08334 55.8594 2.92969V8.98438C55.8594 9.83073 56.1361 10.5306 56.6895 11.084C57.2428 11.6374 57.9427 11.9141 58.7891 11.9141C59.6354 11.9141 60.3353 11.6374 60.8887 11.084C61.4421 10.5306 61.7188 9.83073 61.7188 8.98438V2.92969C61.7188 2.08334 61.4421 1.38346 60.8887 0.830078C60.3353 0.276695 59.6354 0 58.7891 0Z" fill="white"/>
</svg>
