<svg width="88" height="100" viewBox="0 0 88 100" fill="none" xmlns="http://www.w3.org/2000/svg">
<path d="M87.8906 64.8438C87.8906 63.2161 87.321 61.8327 86.1816 60.6934C85.0423 59.554 83.6589 58.9844 82.0312 58.9844C83.6589 58.9844 85.0423 58.4147 86.1816 57.2754C87.321 56.1361 87.8906 54.7526 87.8906 53.125C87.8906 51.4974 87.321 50.1139 86.1816 48.9746C85.0423 47.8353 83.6589 47.2656 82.0312 47.2656H58.0078C59.7656 41.9271 60.791 37.9557 61.084 35.3516C61.377 32.7474 61.5234 29.8177 61.5234 26.5625C61.5234 24.1536 60.6608 22.0866 58.9355 20.3613C57.2103 18.6361 55.1432 17.7734 52.7344 17.7734H50.9766C50.3906 17.7734 49.8047 17.9688 49.2188 18.3594C48.6328 18.75 48.2747 19.3034 48.1445 20.0195C47.4284 22.819 46.582 25.6836 45.6055 28.6133C44.6289 31.4779 43.4082 34.1634 41.9434 36.6699C40.4785 39.1764 38.7044 41.3411 36.6211 43.1641C34.6029 44.987 32.1615 46.224 29.2969 46.875V89.2578L39.4531 92.5781C40.9505 93.099 42.4642 93.4896 43.9941 93.75C45.5241 94.0104 47.1029 94.1406 48.7305 94.1406H76.1719C77.7995 94.1406 79.1829 93.571 80.3223 92.4316C81.4616 91.2923 82.0312 89.9089 82.0312 88.2812C82.0312 86.6536 81.4616 85.2702 80.3223 84.1309C79.1829 82.9915 77.7995 82.4219 76.1719 82.4219H82.0312C83.6589 82.4219 85.0423 81.8522 86.1816 80.7129C87.321 79.5736 87.8906 78.1901 87.8906 76.5625C87.8906 74.9349 87.321 73.5514 86.1816 72.4121C85.0423 71.2728 83.6589 70.7031 82.0312 70.7031C83.6589 70.7031 85.0423 70.1335 86.1816 68.9941C87.321 67.8548 87.8906 66.4714 87.8906 64.8438ZM14.6484 41.4062H2.92969C2.14844 41.4062 1.46484 41.6992 0.878906 42.2852C0.292969 42.8711 0 43.5547 0 44.3359V97.0703C0 97.8516 0.292969 98.5352 0.878906 99.1211C1.46484 99.707 2.14844 100 2.92969 100H14.6484C17.0573 100 19.1243 99.1374 20.8496 97.4121C22.5749 95.6868 23.4375 93.6198 23.4375 91.2109V50.1953C23.4375 47.7865 22.5749 45.7194 20.8496 43.9941C19.1243 42.2689 17.0573 41.4062 14.6484 41.4062ZM14.6484 88.2812C13.8672 88.2812 13.1836 87.9883 12.5977 87.4023C12.0117 86.8164 11.7188 86.1328 11.7188 85.3516C11.7188 84.5703 12.0117 83.8867 12.5977 83.3008C13.1836 82.7148 13.8672 82.4219 14.6484 82.4219C15.4297 82.4219 16.1133 82.7148 16.6992 83.3008C17.2852 83.8867 17.5781 84.5703 17.5781 85.3516C17.5781 86.1328 17.2852 86.8164 16.6992 87.4023C16.1133 87.9883 15.4297 88.2812 14.6484 88.2812ZM40.332 12.8906L36.1328 8.78906C35.5469 8.20312 34.8633 7.91016 34.082 7.91016C33.3008 7.91016 32.6172 8.20312 32.0312 8.78906C31.4453 9.375 31.1523 10.0586 31.1523 10.8398C31.1523 11.6211 31.4453 12.3047 32.0312 12.8906L36.1328 17.0898C36.7188 17.6107 37.4186 17.8711 38.2324 17.8711C39.0462 17.8711 39.7461 17.6107 40.332 17.0898C40.8529 16.5039 41.1133 15.804 41.1133 14.9902C41.1133 14.1764 40.8529 13.4766 40.332 12.8906ZM73.4375 8.78906C72.8516 8.20312 72.168 7.91016 71.3867 7.91016C70.6055 7.91016 69.9219 8.20312 69.3359 8.78906L65.1367 12.8906C64.6159 13.4766 64.3555 14.1764 64.3555 14.9902C64.3555 15.804 64.6159 16.5039 65.1367 17.0898C65.7227 17.6107 66.4225 17.8711 67.2363 17.8711C68.0501 17.8711 68.75 17.6107 69.3359 17.0898L73.4375 12.8906C74.0234 12.3047 74.3164 11.6211 74.3164 10.8398C74.3164 10.0586 74.0234 9.375 73.4375 8.78906ZM52.7344 0C51.888 0 51.1882 0.276695 50.6348 0.830078C50.0814 1.38346 49.8047 2.08334 49.8047 2.92969V8.98438C49.8047 9.83073 50.0814 10.5306 50.6348 11.084C51.1882 11.6374 51.888 11.9141 52.7344 11.9141C53.5807 11.9141 54.2806 11.6374 54.834 11.084C55.3874 10.5306 55.6641 9.83073 55.6641 8.98438V2.92969C55.6641 2.08334 55.3874 1.38346 54.834 0.830078C54.2806 0.276695 53.5807 0 52.7344 0Z" fill="#A560D8"/>
</svg>
