<svg width="100" height="66" viewBox="0 0 100 66" fill="none" xmlns="http://www.w3.org/2000/svg">
<path d="M65.2344 15.4132C65.2344 19.6287 63.7533 23.2515 60.791 26.2814C57.8288 29.3114 54.2318 30.8263 50 30.8263C45.7682 30.8263 42.1712 29.3114 39.209 26.2814C36.2467 23.2515 34.7656 19.6287 34.7656 15.4132C34.7656 11.1317 36.2467 7.49252 39.209 4.49551C42.1712 1.4985 45.7682 0 50 0C54.2318 0 57.8288 1.4985 60.791 4.49551C63.7533 7.49252 65.2344 11.1317 65.2344 15.4132ZM91.3086 28.5539C91.3086 31.6497 90.2506 34.268 88.1348 36.4087C86.0189 38.5494 83.4635 39.6198 80.4688 39.6198C77.474 39.6198 74.9023 38.5494 72.7539 36.4087C70.6055 34.268 69.5312 31.6497 69.5312 28.5539C69.5312 25.524 70.6055 22.9386 72.7539 20.7979C74.9023 18.6572 77.474 17.5868 80.4688 17.5868C83.4635 17.5868 86.0189 18.6572 88.1348 20.7979C90.2506 22.9386 91.3086 25.524 91.3086 28.5539ZM30.7617 28.5539C30.7617 31.6497 29.7038 34.268 27.5879 36.4087C25.472 38.5494 22.9167 39.6198 19.9219 39.6198C16.862 39.6198 14.2741 38.5494 12.1582 36.4087C10.0423 34.268 8.98438 31.6497 8.98438 28.5539C8.98438 25.524 10.0423 22.9386 12.1582 20.7979C14.2741 18.6572 16.862 17.5868 19.9219 17.5868C22.9167 17.5868 25.472 18.6572 27.5879 20.7979C29.7038 22.9386 30.7617 25.524 30.7617 28.5539ZM50 35.1737C46.0938 35.1737 42.4154 35.9311 38.9648 37.4461C35.5794 38.9611 32.6009 41.003 30.0293 43.5719C27.4577 46.1407 25.4232 49.1707 23.9258 52.6617C22.4935 56.1527 21.7773 59.8743 21.7773 63.8263C21.7773 64.4192 21.9889 64.9296 22.4121 65.3578C22.8353 65.7859 23.3398 66 23.9258 66H76.0742C76.6602 66 77.1647 65.7859 77.5879 65.3578C78.0111 64.9296 78.2227 64.4192 78.2227 63.8263C78.2227 59.8743 77.5065 56.1527 76.0742 52.6617C74.5768 49.1707 72.5423 46.1407 69.9707 43.5719C67.3991 41.003 64.4206 38.9611 61.0352 37.4461C57.5846 35.9311 53.9062 35.1737 50 35.1737ZM23.6328 44.4611C22.9818 44.3293 22.3145 44.2141 21.6309 44.1153C20.9473 44.0165 20.2474 43.9671 19.5312 43.9671C16.862 43.9671 14.3229 44.494 11.9141 45.5479C9.57031 46.6018 7.51953 48.018 5.76172 49.7964C4.00391 51.5749 2.60417 53.6826 1.5625 56.1198C0.520833 58.491 0 61.0599 0 63.8263C0 64.4192 0.211589 64.9296 0.634766 65.3578C1.05794 65.7859 1.5625 66 2.14844 66H17.7734C17.6432 65.6707 17.5456 65.3249 17.4805 64.9626C17.4154 64.6003 17.3828 64.2216 17.3828 63.8263C17.3828 60.2036 17.9362 56.7455 19.043 53.4521C20.1497 50.1587 21.6797 47.1617 23.6328 44.4611ZM80.4688 43.9671C79.7526 43.9671 79.0527 44.0165 78.3691 44.1153C77.6855 44.2141 77.0182 44.3293 76.3672 44.4611C78.3203 47.1617 79.8503 50.1587 80.957 53.4521C82.0638 56.7455 82.6172 60.2036 82.6172 63.8263C82.6172 64.2216 82.5846 64.6003 82.5195 64.9626C82.4544 65.3249 82.3568 65.6707 82.2266 66H97.8516C98.4375 66 98.9421 65.7859 99.3652 65.3578C99.7884 64.9296 100 64.4192 100 63.8263C100 61.0599 99.4792 58.491 98.4375 56.1198C97.3958 53.6826 95.9961 51.5749 94.2383 49.7964C92.4805 48.018 90.4297 46.6018 88.0859 45.5479C85.6771 44.494 83.138 43.9671 80.4688 43.9671Z" fill="white"/>
</svg>
