<svg width="100" height="100" viewBox="0 0 100 100" fill="none" xmlns="http://www.w3.org/2000/svg">
<path id="Vector" d="M14.6484 69.9219V99.6094H84.7656V69.9219L52.6367 75.7812V82.0312H46.7773V75.7812L14.6484 69.9219ZM64.3555 39.3555L62.6953 38.5742C62.5651 38.5091 61.1816 37.9395 58.5449 36.8652C55.9082 35.791 52.9622 35.2539 49.707 35.2539C46.4518 35.2539 43.5059 35.791 40.8691 36.8652C38.2324 37.9395 36.849 38.5091 36.7188 38.5742L35.0586 39.3555V46.9727H14.6484V63.9648L49.707 70.3125L84.7656 63.9648V46.9727H64.3555V39.3555ZM58.4961 46.9727H40.918V43.0664C41.8945 42.6758 43.1803 42.2526 44.7754 41.7969C46.3704 41.3411 48.0143 41.1133 49.707 41.1133C51.3997 41.1133 53.0436 41.3411 54.6387 41.7969C56.2337 42.2526 57.5195 42.6758 58.4961 43.0664V46.9727ZM6.05469 41.6992L15.8203 38.6719L25.5859 41.6992L25.6836 31.4453L31.543 23.1445L21.875 19.9219L15.8203 11.7188L9.66797 19.9219L0 23.1445L5.95703 31.4453L6.05469 41.6992ZM49.707 0L43.6523 8.20312L33.8867 11.4258L39.8438 19.8242L39.9414 29.9805L49.707 26.9531L59.4727 29.9805L59.5703 19.8242L65.5273 11.4258L55.7617 8.20312L49.707 0ZM84.1797 11.7188L78.125 19.9219L68.457 23.1445L74.3164 31.4453L74.4141 41.6992L84.1797 38.6719L93.9453 41.6992L94.043 31.4453L100 23.1445L90.332 19.9219L84.1797 11.7188Z" fill="#A560D8"/>
</svg>
